STARTFONT 2.1
FONT -ADECW-Heiti-Medium-R-Normal--34-340-75-75-M-340-GB2312.1980-1
SIZE 34 75 75
FONTBOUNDINGBOX 34 34 0 -8

STARTPROPERTIES 26
FONTNAME_REGISTRY ""
FAMILY_NAME "Heiti"
FOUNDRY "ADECW"
WEIGHT_NAME "Medium"
SLANT "R"
SETWIDTH_NAME "Normal"
ADD_STYLE_NAME ""
PIXEL_SIZE 34
POINT_SIZE 340
RESOLUTION_X 75
RESOLUTION_Y 75
SPACING "M"
AVERAGE_WIDTH 340
CHARSET_REGISTRY "GB2312.1980"
CHARSET_ENCODING "1"
DEVICE_FONT_NAME "Heiti-GB2312.1980-1"
CHARSET_COLLECTIONS "GB2312.1980-1"
FULL_NAME "Heiti GB2312.1980 1"
COPYRIGHT "Copyright (c) 1991 Digital Equipment Corporation Asia"
CAP_HEIGHT 25
X_HEIGHT 16
WEIGHT 10
QUAD_WIDTH 34
DEFAULT_CHAR 65021
FONT_DESCENT 8
FONT_ASCENT 26
ENDPROPERTIES

CHARS 7446

STARTCHAR A1A1
ENCODING 41377
SWIDTH 960 0
DWIDTH 34 0
BBX 34 34 0 -8
BITMAP
0000000000
0000000000
0000000000
0000000000
0000000000
0000000000
0000000000
0000000000
0000000000
0000000000
0000000000
0000000000
0000000000
0000000000
0000000000
0000000000
0000000000
0000000000
0000000000
0000000000
0000000000
0000000000
0000000000
0000000000
0000000000
0000000000
0000000000
0000000000
0000000000
0000000000
0000000000
0000000000
0000000000
0000000000
ENDCHAR

STARTCHAR A1A2
ENCODING 41378
SWIDTH 960 0
DWIDTH 34 0
BBX 34 34 0 -8
BITMAP
0000000000
0000000000
0000000000
0000000000
0000000000
0000000000
0000000000
0000000000
0000000000
0000000000
0000000000
0000000000
0000000000
0000000000
0000000000
0000000000
0000000000
0000000000
0000000000
0000000000
0000000000
0600000000
0180000000
00E0000000
0070000000
0038000000
0038000000
0018000000
0010000000
0000000000
0000000000
0000000000
0000000000
0000000000
ENDCHAR

STARTCHAR A1A3
ENCODING 41379
SWIDTH 960 0
DWIDTH 34 0
BBX 34 34 0 -8
BITMAP
0000000000
0000000000
0000000000
0000000000
0000000000
0000000000
0000000000
0000000000
0000000000
0000000000
0000000000
0000000000
0000000000
0000000000
0000000000
0000000000
0000000000
0000000000
0000000000
0000000000
0000000000
01E0000000
0330000000
0618000000
0408000000
0408000000
0618000000
0330000000
01E0000000
0000000000
0000000000
0000000000
0000000000
0000000000
ENDCHAR

STARTCHAR A1A4
ENCODING 41380
SWIDTH 960 0
DWIDTH 34 0
BBX 34 34 0 -8
BITMAP
0000000000
0000000000
0000000000
0000000000
0000000000
0000000000
0000000000
0000000000
0000000000
0000000000
0000000000
0000000000
0000000000
0000000000
0001E00000
0003F00000
0003F00000
0003F00000
0003F00000
0001E00000
0000000000
0000000000
0000000000
0000000000
0000000000
0000000000
0000000000
0000000000
0000000000
0000000000
0000000000
0000000000
0000000000
0000000000
ENDCHAR

STARTCHAR A1A5
ENCODING 41381
SWIDTH 960 0
DWIDTH 34 0
BBX 34 34 0 -8
BITMAP
0000000000
0000000000
0000000000
0000000000
0000000000
0000000000
000FF80000
0000000000
0000000000
0000000000
0000000000
0000000000
0000000000
0000000000
0000000000
0000000000
0000000000
0000000000
0000000000
0000000000
0000000000
0000000000
0000000000
0000000000
0000000000
0000000000
0000000000
0000000000
0000000000
0000000000
0000000000
0000000000
0000000000
0000000000
ENDCHAR

STARTCHAR A1A6
ENCODING 41382
SWIDTH 960 0
DWIDTH 34 0
BBX 34 34 0 -8
BITMAP
0000000000
0000000000
0000000000
0000000000
0008080000
0004100000
0006300000
0002200000
0003600000
0001400000
0001C00000
0000800000
0000000000
0000000000
0000000000
0000000000
0000000000
0000000000
0000000000
0000000000
0000000000
0000000000
0000000000
0000000000
0000000000
0000000000
0000000000
0000000000
0000000000
0000000000
0000000000
0000000000
0000000000
0000000000
ENDCHAR

STARTCHAR A1A7
ENCODING 41383
SWIDTH 960 0
DWIDTH 34 0
BBX 34 34 0 -8
BITMAP
0000000000
0000000000
0000000000
0000000000
0000000000
0018060000
003C0F0000
003C0F0000
0018060000
0000000000
0000000000
0000000000
0000000000
0000000000
0000000000
0000000000
0000000000
0000000000
0000000000
0000000000
0000000000
0000000000
0000000000
0000000000
0000000000
0000000000
0000000000
0000000000
0000000000
0000000000
0000000000
0000000000
0000000000
0000000000
ENDCHAR

STARTCHAR A1A8
ENCODING 41384
SWIDTH 960 0
DWIDTH 34 0
BBX 34 34 0 -8
BITMAP
0000000000
0000000000
0000000000
0000000000
0000000000
0000000000
0000000000
0000000000
0000000000
0000000000
0000000000
0003030000
0007878000
0007878000
000F0F0000
000E0E0000
001C1C0000
001C1C0000
0038380000
0030600000
0060C00000
0040800000
0000000000
0000000000
0000000000
0000000000
0000000000
0000000000
0000000000
0000000000
0000000000
0000000000
0000000000
0000000000
ENDCHAR

STARTCHAR A1A9
ENCODING 41385
SWIDTH 960 0
DWIDTH 34 0
BBX 34 34 0 -8
BITMAP
0000000000
0000000000
0000000000
0000000000
0001000000
0001C00000
0003800000
0003000000
0007000000
0006000000
000E000000
000C010000
001FFF8000
003001C000
0060038000
0040030000
0080070000
0100060000
02080E0000
00040C0000
0006180000
0003100000
0001A00000
0000E00000
0000700000
0000780000
00003C0000
00001C0000
00000C0000
0000080000
0000000000
0000000000
0000000000
0000000000
ENDCHAR

STARTCHAR A1AA
ENCODING 41386
SWIDTH 960 0
DWIDTH 34 0
BBX 34 34 0 -8
BITMAP
0000000000
0000000000
0000000000
0000000000
0000000000
0000000000
0000000000
0000000000
0000000000
0000000000
0000000000
0000000000
0000000000
0000000000
0000000000
0000000000
0FFFFFFC00
0000000000
0000000000
0000000000
0000000000
0000000000
0000000000
0000000000
0000000000
0000000000
0000000000
0000000000
0000000000
0000000000
0000000000
0000000000
0000000000
0000000000
ENDCHAR

STARTCHAR A1AB
ENCODING 41387
SWIDTH 960 0
DWIDTH 34 0
BBX 34 34 0 -8
BITMAP
0000000000
0000000000
0000000000
0000000000
0000000000
0000000000
0000000000
0000000000
0000000000
0000000000
0000000000
0000000000
0000000000
0000000000
0000000000
0078000000
01FE000800
0387C01000
0401F86000
08003FC000
0000078000
0000000000
0000000000
0000000000
0000000000
0000000000
0000000000
0000000000
0000000000
0000000000
0000000000
0000000000
0000000000
0000000000
ENDCHAR

STARTCHAR A1AC
ENCODING 41388
SWIDTH 960 0
DWIDTH 34 0
BBX 34 34 0 -8
BITMAP
0000000000
0000000000
0002200000
0002200000
0002200000
0002200000
0002200000
0002200000
0002200000
0002200000
0002200000
0002200000
0002200000
0002200000
0002200000
0002200000
0002200000
0002200000
0002200000
0002200000
0002200000
0002200000
0002200000
0002200000
0002200000
0002200000
0002200000
0002200000
0002200000
0002200000
0002200000
0002200000
0000000000
0000000000
ENDCHAR

STARTCHAR A1AD
ENCODING 41389
SWIDTH 960 0
DWIDTH 34 0
BBX 34 34 0 -8
BITMAP
0000000000
0000000000
0000000000
0000000000
0000000000
0000000000
0000000000
0000000000
0000000000
0000000000
0000000000
0000000000
0000000000
0000000000
0000000000
0600C01800
0F01E03C00
0F01E03C00
0600C01800
0000000000
0000000000
0000000000
0000000000
0000000000
0000000000
0000000000
0000000000
0000000000
0000000000
0000000000
0000000000
0000000000
0000000000
0000000000
ENDCHAR

STARTCHAR A1AE
ENCODING 41390
SWIDTH 960 0
DWIDTH 34 0
BBX 34 34 0 -8
BITMAP
0000000000
0000000000
0000000400
0000000800
0000001000
0000003000
0000006000
0000006000
000000F000
000000F800
000000F800
0000007000
0000000000
0000000000
0000000000
0000000000
0000000000
0000000000
0000000000
0000000000
0000000000
0000000000
0000000000
0000000000
0000000000
0000000000
0000000000
0000000000
0000000000
0000000000
0000000000
0000000000
0000000000
0000000000
ENDCHAR

STARTCHAR A1AF
ENCODING 41391
SWIDTH 960 0
DWIDTH 34 0
BBX 34 34 0 -8
BITMAP
0000000000
0000000000
0380000000
07C0000000
07C0000000
03C0000000
0180000000
0180000000
0300000000
0200000000
0400000000
0800000000
0000000000
0000000000
0000000000
0000000000
0000000000
0000000000
0000000000
0000000000
0000000000
0000000000
0000000000
0000000000
0000000000
0000000000
0000000000
0000000000
0000000000
0000000000
0000000000
0000000000
0000000000
0000000000
ENDCHAR

STARTCHAR A1B0
ENCODING 41392
SWIDTH 960 0
DWIDTH 34 0
BBX 34 34 0 -8
BITMAP
0000000000
0000000000
0000010400
0000020800
0000041000
0000082000
0000082000
0000186000
00001C7000
00001E7800
00001E7800
00000C3000
0000000000
0000000000
0000000000
0000000000
0000000000
0000000000
0000000000
0000000000
0000000000
0000000000
0000000000
0000000000
0000000000
0000000000
0000000000
0000000000
0000000000
0000000000
0000000000
0000000000
0000000000
0000000000
ENDCHAR

STARTCHAR A1B1
ENCODING 41393
SWIDTH 960 0
DWIDTH 34 0
BBX 34 34 0 -8
BITMAP
0000000000
0000000000
030C000000
079E000000
079E000000
038E000000
0186000000
0104000000
0104000000
0208000000
0410000000
0820000000
0000000000
0000000000
0000000000
0000000000
0000000000
0000000000
0000000000
0000000000
0000000000
0000000000
0000000000
0000000000
0000000000
0000000000
0000000000
0000000000
0000000000
0000000000
0000000000
0000000000
0000000000
0000000000
ENDCHAR

STARTCHAR A1B2
ENCODING 41394
SWIDTH 960 0
DWIDTH 34 0
BBX 34 34 0 -8
BITMAP
0000000000
0000000000
0000000800
0000001000
0000002000
0000004000
0000008000
0000008000
0000008000
0000008000
0000008000
0000008000
0000008000
0000008000
0000008000
0000008000
0000008000
0000008000
0000008000
0000008000
0000008000
0000008000
0000008000
0000008000
0000008000
0000008000
0000008000
0000008000
0000004000
0000002000
0000001000
0000000800
0000000000
0000000000
ENDCHAR

STARTCHAR A1B3
ENCODING 41395
SWIDTH 960 0
DWIDTH 34 0
BBX 34 34 0 -8
BITMAP
0000000000
0000000000
0400000000
0200000000
0100000000
0080000000
0040000000
0040000000
0040000000
0040000000
0040000000
0040000000
0040000000
0040000000
0040000000
0040000000
0040000000
0040000000
0040000000
0040000000
0040000000
0040000000
0040000000
0040000000
0040000000
0040000000
0040000000
0040000000
0080000000
0100000000
0200000000
0400000000
0000000000
0000000000
ENDCHAR

STARTCHAR A1B4
ENCODING 41396
SWIDTH 960 0
DWIDTH 34 0
BBX 34 34 0 -8
BITMAP
0000000000
0000000000
0000000800
0000000800
0000001000
0000001000
0000002000
0000002000
0000004000
0000004000
0000008000
0000008000
0000010000
0000010000
0000020000
0000020000
0000040000
0000040000
0000020000
0000020000
0000010000
0000010000
0000008000
0000008000
0000004000
0000004000
0000002000
0000002000
0000001000
0000001000
0000000800
0000000800
0000000000
0000000000
ENDCHAR

STARTCHAR A1B5
ENCODING 41397
SWIDTH 960 0
DWIDTH 34 0
BBX 34 34 0 -8
BITMAP
0000000000
0000000000
0400000000
0400000000
0200000000
0200000000
0100000000
0100000000
0080000000
0080000000
0040000000
0040000000
0020000000
0020000000
0010000000
0010000000
0008000000
0008000000
0010000000
0010000000
0020000000
0020000000
0040000000
0040000000
0080000000
0080000000
0100000000
0100000000
0200000000
0200000000
0400000000
0400000000
0000000000
0000000000
ENDCHAR

STARTCHAR A1B6
ENCODING 41398
SWIDTH 960 0
DWIDTH 34 0
BBX 34 34 0 -8
BITMAP
0000000000
0000000000
0000020800
0000020800
0000041000
0000041000
0000082000
0000082000
0000104000
0000104000
0000208000
0000208000
0000410000
0000410000
0000820000
0000820000
0001040000
0001040000
0000820000
0000820000
0000410000
0000410000
0000208000
0000208000
0000104000
0000104000
0000082000
0000082000
0000041000
0000041000
0000020800
0000020800
0000000000
0000000000
ENDCHAR

STARTCHAR A1B7
ENCODING 41399
SWIDTH 960 0
DWIDTH 34 0
BBX 34 34 0 -8
BITMAP
0000000000
0000000000
0410000000
0410000000
0208000000
0208000000
0104000000
0104000000
0082000000
0082000000
0041000000
0041000000
0020800000
0020800000
0010400000
0010400000
0008200000
0008200000
0010400000
0010400000
0020800000
0020800000
0041000000
0041000000
0082000000
0082000000
0104000000
0104000000
0208000000
0208000000
0410000000
0410000000
0000000000
0000000000
ENDCHAR

STARTCHAR A1B8
ENCODING 41400
SWIDTH 960 0
DWIDTH 34 0
BBX 34 34 0 -8
BITMAP
0000000000
0000000000
00001FF800
0000100000
0000100000
0000100000
0000100000
0000100000
0000100000
0000100000
0000100000
0000100000
0000100000
0000100000
0000100000
0000100000
0000100000
0000100000
0000100000
0000100000
0000100000
0000100000
0000100000
0000100000
0000100000
0000000000
0000000000
0000000000
0000000000
0000000000
0000000000
0000000000
0000000000
0000000000
ENDCHAR

STARTCHAR A1B9
ENCODING 41401
SWIDTH 960 0
DWIDTH 34 0
BBX 34 34 0 -8
BITMAP
0000000000
0000000000
0000000000
0000000000
0000000000
0000000000
0000000000
0000000000
0000000000
0002000000
0002000000
0002000000
0002000000
0002000000
0002000000
0002000000
0002000000
0002000000
0002000000
0002000000
0002000000
0002000000
0002000000
0002000000
0002000000
0002000000
0002000000
0002000000
0002000000
0002000000
0002000000
07FE000000
0000000000
0000000000
ENDCHAR

STARTCHAR A1BA
ENCODING 41402
SWIDTH 960 0
DWIDTH 34 0
BBX 34 34 0 -8
BITMAP
0000000000
0000000000
00001FF800
0000100800
0000100800
000013F800
0000120000
0000120000
0000120000
0000120000
0000120000
0000120000
0000120000
0000120000
0000120000
0000120000
0000120000
0000120000
0000120000
0000120000
0000120000
0000120000
0000120000
0000120000
00001E0000
0000000000
0000000000
0000000000
0000000000
0000000000
0000000000
0000000000
0000000000
0000000000
ENDCHAR

STARTCHAR A1BB
ENCODING 41403
SWIDTH 960 0
DWIDTH 34 0
BBX 34 34 0 -8
BITMAP
0000000000
0000000000
0000000000
0000000000
0000000000
0000000000
0000000000
0000000000
0000000000
001E000000
0012000000
0012000000
0012000000
0012000000
0012000000
0012000000
0012000000
0012000000
0012000000
0012000000
0012000000
0012000000
0012000000
0012000000
0012000000
0012000000
0012000000
0012000000
07F2000000
0402000000
0402000000
07FE000000
0000000000
0000000000
ENDCHAR

STARTCHAR A1BC
ENCODING 41404
SWIDTH 960 0
DWIDTH 34 0
BBX 34 34 0 -8
BITMAP
0000000000
0000000000
00001FF800
0000101000
0000101000
0000102000
0000102000
0000104000
0000104000
0000108000
0000108000
0000108000
0000110000
0000110000
0000110000
0000110000
0000110000
0000110000
0000110000
0000110000
0000110000
0000110000
0000108000
0000108000
0000108000
0000104000
0000104000
0000102000
0000102000
0000101000
0000101000
00001FF800
0000000000
0000000000
ENDCHAR

STARTCHAR A1BD
ENCODING 41405
SWIDTH 960 0
DWIDTH 34 0
BBX 34 34 0 -8
BITMAP
0000000000
0000000000
07FE000000
0202000000
0202000000
0102000000
0102000000
0082000000
0082000000
0042000000
0042000000
0042000000
0022000000
0022000000
0022000000
0022000000
0022000000
0022000000
0022000000
0022000000
0022000000
0022000000
0042000000
0042000000
0042000000
0082000000
0082000000
0102000000
0102000000
0202000000
0202000000
07FE000000
0000000000
0000000000
ENDCHAR

STARTCHAR A1BE
ENCODING 41406
SWIDTH 960 0
DWIDTH 34 0
BBX 34 34 0 -8
BITMAP
0000000000
0000000000
00001FF800
00001FF000
00001FF000
00001FE000
00001FE000
00001FC000
00001FC000
00001F8000
00001F8000
00001F8000
00001F0000
00001F0000
00001F0000
00001F0000
00001F0000
00001F0000
00001F0000
00001F0000
00001F0000
00001F0000
00001F8000
00001F8000
00001F8000
00001FC000
00001FC000
00001FE000
00001FE000
00001FF000
00001FF000
00001FF800
0000000000
0000000000
ENDCHAR

STARTCHAR A1BF
ENCODING 41407
SWIDTH 960 0
DWIDTH 34 0
BBX 34 34 0 -8
BITMAP
0000000000
0000000000
07FE000000
03FE000000
03FE000000
01FE000000
01FE000000
00FE000000
00FE000000
007E000000
007E000000
007E000000
003E000000
003E000000
003E000000
003E000000
003E000000
003E000000
003E000000
003E000000
003E000000
003E000000
007E000000
007E000000
007E000000
00FE000000
00FE000000
01FE000000
01FE000000
03FE000000
03FE000000
07FE000000
0000000000
0000000000
ENDCHAR

STARTCHAR A1C0
ENCODING 41408
SWIDTH 960 0
DWIDTH 34 0
BBX 34 34 0 -8
BITMAP
0000000000
0000000000
0000000000
0000000000
0000800000
0000800000
0000800000
0000800000
0000800000
0000800000
0000800000
0000800000
03FFFFE000
0000800000
0000800000
0000800000
0000800000
0000800000
0000800000
0000800000
0000800000
0000000000
0000000000
0000000000
0000000000
03FFFFE000
0000000000
0000000000
0000000000
0000000000
0000000000
0000000000
0000000000
0000000000
ENDCHAR

STARTCHAR A1C1
ENCODING 41409
SWIDTH 960 0
DWIDTH 34 0
BBX 34 34 0 -8
BITMAP
0000000000
0000000000
0000000000
0000000000
0000000000
0000000000
0200002000
0100004000
0080008000
0040010000
0020020000
0010040000
0008080000
0004100000
0002200000
0001400000
0000800000
0001400000
0002200000
0004100000
0008080000
0010040000
0020020000
0040010000
0080008000
0100004000
0200002000
0000000000
0000000000
0000000000
0000000000
0000000000
0000000000
0000000000
ENDCHAR

STARTCHAR A1C2
ENCODING 41410
SWIDTH 960 0
DWIDTH 34 0
BBX 34 34 0 -8
BITMAP
0000000000
0000000000
0000000000
0000000000
0000000000
0000000000
0000C00000
0001E00000
0001E00000
0000C00000
0000000000
0000000000
0000000000
0000000000
0000000000
0000000000
07FFFFF800
0000000000
0000000000
0000000000
0000000000
0000000000
0000000000
0000C00000
0001E00000
0001E00000
0000C00000
0000000000
0000000000
0000000000
0000000000
0000000000
0000000000
0000000000
ENDCHAR

STARTCHAR A1C3
ENCODING 41411
SWIDTH 960 0
DWIDTH 34 0
BBX 34 34 0 -8
BITMAP
0000000000
0000000000
0000000000
0000000000
0000000000
0000000000
0000000000
0000000000
0001C00000
0003E00000
0003E00000
0003E00000
0001C00000
0000000000
0000000000
0000000000
0000000000
0000000000
0000000000
0000000000
0000000000
0001C00000
0003E00000
0003E00000
0003E00000
0001C00000
0000000000
0000000000
0000000000
0000000000
0000000000
0000000000
0000000000
0000000000
ENDCHAR

STARTCHAR A1C4
ENCODING 41412
SWIDTH 960 0
DWIDTH 34 0
BBX 34 34 0 -8
BITMAP
0000000000
0000000000
0000000000
0000000000
0000800000
0001400000
0001400000
0002200000
0002200000
0004100000
0004100000
0008080000
0008080000
0010040000
0010040000
0020020000
0020020000
0040010000
0040010000
0080008000
0080008000
0100004000
0100004000
0200002000
0200002000
0400001000
0400001000
0800000800
0800000800
1000000400
0000000000
0000000000
0000000000
0000000000
ENDCHAR

STARTCHAR A1C5
ENCODING 41413
SWIDTH 960 0
DWIDTH 34 0
BBX 34 34 0 -8
BITMAP
0000000000
0000000000
0000000000
0000000000
1000000400
0800000800
0800000800
0400001000
0400001000
0200002000
0200002000
0100004000
0100004000
0080008000
0080008000
0040010000
0040010000
0020020000
0020020000
0010040000
0010040000
0008080000
0008080000
0004100000
0004100000
0002200000
0002200000
0001400000
0001400000
0000800000
0000000000
0000000000
0000000000
0000000000
ENDCHAR

STARTCHAR A1C6
ENCODING 41414
SWIDTH 960 0
DWIDTH 34 0
BBX 34 34 0 -8
BITMAP
0000000000
0000000000
0000000000
0000000000
0FFFFFFC00
0780000400
0380000400
01C0000400
01C0000000
00E0000000
0070000000
0070000000
0038000000
001C000000
001E000000
000F000000
0006000000
0006000000
0004000000
0004000000
0008000000
0010000000
0020000000
0020000000
0040000000
0080000000
0100000400
0200000400
07FFFFFC00
0FFFFFFC00
0000000000
0000000000
0000000000
0000000000
ENDCHAR

STARTCHAR A1C7
ENCODING 41415
SWIDTH 960 0
DWIDTH 34 0
BBX 34 34 0 -8
BITMAP
0000000000
0000000000
0000000000
0000000000
07FFFFF800
00E001C000
00E001C000
00E001C000
00E001C000
00E001C000
00E001C000
00E001C000
00E001C000
00E001C000
00E001C000
00E001C000
00E001C000
00E001C000
00E001C000
00E001C000
00E001C000
00E001C000
00E001C000
00E001C000
00E001C000
00E001C000
00E001C000
00E001C000
00E001C000
03F807F000
0000000000
0000000000
0000000000
0000000000
ENDCHAR

STARTCHAR A1C8
ENCODING 41416
SWIDTH 960 0
DWIDTH 34 0
BBX 34 34 0 -8
BITMAP
0000000000
0000000000
0000000000
0000000000
0080004000
0080004000
0080004000
0080004000
0080004000
0080004000
0080004000
0080004000
0080004000
0080004000
0080004000
0080004000
0080004000
0080004000
0080004000
0080004000
0080004000
0080004000
0080004000
00C000C000
0040008000
0060018000
0030030000
0018060000
000E1C0000
0003F00000
0000000000
0000000000
0000000000
0000000000
ENDCHAR

STARTCHAR A1C9
ENCODING 41417
SWIDTH 960 0
DWIDTH 34 0
BBX 34 34 0 -8
BITMAP
0000000000
0000000000
0000000000
0000000000
0003F00000
000E1C0000
0018060000
0030030000
0060018000
0040008000
00C000C000
0080004000
0080004000
0080004000
0080004000
0080004000
0080004000
0080004000
0080004000
0080004000
0080004000
0080004000
0080004000
0080004000
0080004000
0080004000
0080004000
0080004000
0080004000
0080004000
0000000000
0000000000
0000000000
0000000000
ENDCHAR

STARTCHAR A1CA
ENCODING 41418
SWIDTH 960 0
DWIDTH 34 0
BBX 34 34 0 -8
BITMAP
0000000000
0000000000
0000000000
0000000000
00001F8000
0000600000
0001800000
0002000000
0004000000
0008000000
0008000000
0010000000
0010000000
0010000000
0020000000
0020000000
003FFF8000
0020000000
0020000000
0010000000
0010000000
0010000000
0008000000
0008000000
0004000000
0006000000
0002000000
0001800000
0000600000
00001F8000
0000000000
0000000000
0000000000
0000000000
ENDCHAR

STARTCHAR A1CB
ENCODING 41419
SWIDTH 960 0
DWIDTH 34 0
BBX 34 34 0 -8
BITMAP
0000000000
0000000000
0000000000
0000000000
0000000000
0000000000
0000000000
00C000C000
01E001E000
01E001E000
00C000C000
0000000000
0000000000
0000000000
0000000000
0000000000
0000000000
0000000000
0000000000
0000000000
0000000000
0000000000
0000000000
00C000C000
01E001E000
01E001E000
00C000C000
0000000000
0000000000
0000000000
0000000000
0000000000
0000000000
0000000000
ENDCHAR

STARTCHAR A1CC
ENCODING 41420
SWIDTH 960 0
DWIDTH 34 0
BBX 34 34 0 -8
BITMAP
0000000000
0000000080
0000000100
0000000200
0000000400
0000000400
0000000800
0000001000
0000001000
0000002000
0000004000
0000004000
0000008000
0000010000
0000020000
0000020000
0000040000
0000080000
0000080000
0000100000
1000200000
1800200000
2C00400000
4600800000
0300800000
0181000000
00C2000000
0064000000
0038000000
0010000000
0000000000
0000000000
0000000000
0000000000
ENDCHAR

STARTCHAR A1CD
ENCODING 41421
SWIDTH 960 0
DWIDTH 34 0
BBX 34 34 0 -8
BITMAP
0000000000
0000000000
0000000000
0000000000
0000800000
0000800000
0000800000
0000800000
0000800000
0000800000
0000800000
0000800000
0000800000
0000800000
0000800000
0000800000
0000800000
0000800000
0000800000
0000800000
0000800000
0000800000
0000800000
0000800000
0000800000
0000800000
0000800000
0000800000
0000800000
03FFFFE000
0000000000
0000000000
0000000000
0000000000
ENDCHAR

STARTCHAR A1CE
ENCODING 41422
SWIDTH 960 0
DWIDTH 34 0
BBX 34 34 0 -8
BITMAP
0000000000
0000000000
0000000000
0000000000
0000410000
0000410000
0000410000
0000820000
0000820000
0000820000
0001040000
0001040000
0001040000
0002080000
0002080000
0002080000
0004100000
0004100000
0004100000
0008200000
0008200000
0008200000
0010400000
0010400000
0010400000
0020800000
0020800000
0020800000
0041000000
0041000000
0000000000
0000000000
0000000000
0000000000
ENDCHAR

STARTCHAR A1CF
ENCODING 41423
SWIDTH 960 0
DWIDTH 34 0
BBX 34 34 0 -8
BITMAP
0000000000
0000000000
0000000000
0000000000
0000000800
0000001000
0000002000
0000004000
0000008000
0000010000
0000020000
0000040000
0000080000
0000100000
0000200000
0000400000
0000800000
0001000000
0002000000
0004000000
0008000000
0010000000
0020000000
0040000000
0080000000
0100000000
0200000000
0400000000
0800000000
0FFFFFF800
0000000000
0000000000
0000000000
0000000000
ENDCHAR

STARTCHAR A1D0
ENCODING 41424
SWIDTH 960 0
DWIDTH 34 0
BBX 34 34 0 -8
BITMAP
0000000000
0000000000
0000000000
0000000000
0000000000
0000000000
0000000000
0000000000
0007F80000
0018060000
0060018000
0080004000
0100002000
0100002000
0200001000
0200001000
0400000800
0400000800
0400000800
0000000000
0000000000
0000000000
0000000000
0000000000
0000000000
0000000000
0000000000
0000000000
0000000000
0000000000
0000000000
0000000000
0000000000
0000000000
ENDCHAR

STARTCHAR A1D1
ENCODING 41425
SWIDTH 960 0
DWIDTH 34 0
BBX 34 34 0 -8
BITMAP
0000000000
0000000000
0000000000
0000000000
0007F80000
0018060000
0060018000
0080004000
0100002000
0200001000
0200001000
0400000800
0400000800
0400000800
0800C00400
0801E00400
0803F00400
0803F00400
0801E00400
0800C00400
0400000800
0400000800
0400000800
0200001000
0200001000
0100002000
0080004000
0060018000
0018060000
0007F80000
0000000000
0000000000
0000000000
0000000000
ENDCHAR

STARTCHAR A1D2
ENCODING 41426
SWIDTH 960 0
DWIDTH 34 0
BBX 34 34 0 -8
BITMAP
0000000000
0000000000
00003C0000
0000660000
0000C70000
0000C60000
0000C00000
0000C00000
0000C00000
0000C00000
0000C00000
0000C00000
0000C00000
0000C00000
0000C00000
0000C00000
0000C00000
0001800000
0001800000
0001800000
0001800000
0001800000
0001800000
0001800000
0001800000
0001800000
0001800000
0001800000
0031800000
0071800000
0033000000
001E000000
0000000000
0000000000
ENDCHAR

STARTCHAR A1D3
ENCODING 41427
SWIDTH 960 0
DWIDTH 34 0
BBX 34 34 0 -8
BITMAP
0000000000
0000000000
00003C0000
0000660000
0000C70000
0000C20000
0000C00000
0000C00000
0000C00000
0000C00000
0000C00000
0000C00000
0007F00000
0008C80000
0010C40000
0020C20000
0020C20000
0021820000
0021820000
0011840000
0009880000
0007F00000
0001800000
0001800000
0001800000
0001800000
0001800000
0001800000
0031800000
0071800000
0033000000
001E000000
0000000000
0000000000
ENDCHAR

STARTCHAR A1D4
ENCODING 41428
SWIDTH 960 0
DWIDTH 34 0
BBX 34 34 0 -8
BITMAP
0000000000
0000000000
0000000000
0000000000
0000000000
0000000000
0000000000
0000000000
0000000000
0000000000
0000000000
0000000000
0FFFFFFC00
0000000000
0000000000
0000000000
0FFFFFFC00
0000000000
0000000000
0000000000
0FFFFFFC00
0000000000
0000000000
0000000000
0000000000
0000000000
0000000000
0000000000
0000000000
0000000000
0000000000
0000000000
0000000000
0000000000
ENDCHAR

STARTCHAR A1D5
ENCODING 41429
SWIDTH 960 0
DWIDTH 34 0
BBX 34 34 0 -8
BITMAP
0000000000
0000000000
0000000000
0000000000
0000000000
0000000000
006007C000
0180082000
0200101000
0200201000
0400200800
0400400800
0400800800
0201001000
0201001000
0186066000
0078018000
0000000000
0000000000
0000000000
07FFFFF800
0000000000
0000000000
0000000000
0000000000
0000000000
07FFFFF800
0000000000
0000000000
0000000000
0000000000
0000000000
0000000000
0000000000
ENDCHAR

STARTCHAR A1D6
ENCODING 41430
SWIDTH 960 0
DWIDTH 34 0
BBX 34 34 0 -8
BITMAP
0000000000
0000000000
0000000000
0000000000
0000000000
0000000000
0000000000
0000000000
0000000000
0000000000
0000000000
007C000000
00FF000400
0301C00800
0400F03000
08003FC000
007C0F8000
00FF000400
0301C00800
0400F03000
08003FC000
00000F8000
0000000000
0000000000
0000000000
0000000000
0000000000
0000000000
0000000000
0000000000
0000000000
0000000000
0000000000
0000000000
ENDCHAR

STARTCHAR A1D7
ENCODING 41431
SWIDTH 960 0
DWIDTH 34 0
BBX 34 34 0 -8
BITMAP
0000000000
0000000000
0000000000
0000000000
0000000000
0000000000
0000000000
0000000000
0000000000
0000000000
0000000000
006007C000
0198082000
0200101000
0200201000
0400200800
0400400800
0400800800
0201001000
0201001000
0186066000
0078018000
0000000000
0000000000
0000000000
0000000000
0000000000
0000000000
0000000000
0000000000
0000000000
0000000000
0000000000
0000000000
ENDCHAR

STARTCHAR A1D8
ENCODING 41432
SWIDTH 960 0
DWIDTH 34 0
BBX 34 34 0 -8
BITMAP
0000000000
0000000000
0000000000
0000000000
0000000000
0000000000
0000000000
0000000000
0000000000
0000000000
0000000000
007801F000
0186060800
0201080000
0201100000
0400A00000
0400400000
0400A00000
0201100000
0201080000
0186060800
007801F000
0000000000
0000000000
0000000000
0000000000
0000000000
0000000000
0000000000
0000000000
0000000000
0000000000
0000000000
0000000000
ENDCHAR

STARTCHAR A1D9
ENCODING 41433
SWIDTH 960 0
DWIDTH 34 0
BBX 34 34 0 -8
BITMAP
0000000000
0000000000
0000000000
0000000000
0000020000
0000020000
0000040000
0000040000
0000080000
0000080000
0000100000
0FFFFFFC00
0000200000
0000200000
0000400000
0000400000
0000800000
0000800000
0001000000
0001000000
0FFFFFFC00
0002000000
0004000000
0004000000
0008000000
0008000000
0010000000
0010000000
0020000000
0020000000
0000000000
0000000000
0000000000
0000000000
ENDCHAR

STARTCHAR A1DA
ENCODING 41434
SWIDTH 960 0
DWIDTH 34 0
BBX 34 34 0 -8
BITMAP
0000000000
0000000000
0000000000
0000000000
0000801800
0000806000
0000818000
0000860000
0000980000
0000E00000
0001800000
0006800000
0018800000
0060800000
0180800000
0600800000
0800800000
0600800000
0180800000
0060800000
0018800000
0006800000
0001800000
0000E00000
0000980000
0000860000
0000818000
0000806000
0000801000
0000800800
0000000000
0000000000
0000000000
0000000000
ENDCHAR

STARTCHAR A1DB
ENCODING 41435
SWIDTH 960 0
DWIDTH 34 0
BBX 34 34 0 -8
BITMAP
0000000000
0000000000
0000000000
0000000000
0600400000
0180400000
0060400000
0018400000
0006400000
0001C00000
0000600000
0000580000
0000460000
0000418000
0000406000
0000401800
0000400400
0000401800
0000406000
0000418000
0000460000
0000580000
0000600000
0001C00000
0006400000
0018400000
0060400000
0180400000
0200400000
0400400000
0000000000
0000000000
0000000000
0000000000
ENDCHAR

STARTCHAR A1DC
ENCODING 41436
SWIDTH 960 0
DWIDTH 34 0
BBX 34 34 0 -8
BITMAP
0000000000
0000000000
0000000000
0000000000
0000001800
0000006000
0000018000
0000060000
0000180000
0000600000
0001800000
0006000000
0018000000
0060000000
0180000000
0600000000
0180000000
0060000000
0618000000
0186000000
0061800000
0018600000
0006180000
0001860000
0000618000
0000186000
0000061800
0000018000
0000006000
0000001800
0000000000
0000000000
0000000000
0000000000
ENDCHAR

STARTCHAR A1DD
ENCODING 41437
SWIDTH 960 0
DWIDTH 34 0
BBX 34 34 0 -8
BITMAP
0000000000
0000000000
0000000000
0000000000
0600000000
0180000000
0060000000
0018000000
0006000000
0001800000
0000600000
0000180000
0000060000
0000018000
0000006000
0000001800
0000006000
0000018000
0000061800
0000186000
0000618000
0001860000
0006180000
0018600000
0061800000
0186000000
0618000000
0060000000
0180000000
0600000000
0000000000
0000000000
0000000000
0000000000
ENDCHAR

STARTCHAR A1DE
ENCODING 41438
SWIDTH 960 0
DWIDTH 34 0
BBX 34 34 0 -8
BITMAP
0000000000
0000000000
0000000000
0000000000
0000000000
0000000000
0000000000
0000000000
0000000000
0000000000
0000000000
007803C000
01860C3000
0201100800
0201100800
0400A00400
0400400400
0400A00400
0201100800
0201100800
01860C3000
007803C000
0000000000
0000000000
0000000000
0000000000
0000000000
0000000000
0000000000
0000000000
0000000000
0000000000
0000000000
0000000000
ENDCHAR

STARTCHAR A1DF
ENCODING 41439
SWIDTH 960 0
DWIDTH 34 0
BBX 34 34 0 -8
BITMAP
0000000000
0000000000
0000000000
0000000000
0000000000
0000000000
0000000000
0000000000
00C000C000
01E001E000
01E001E000
00C000C000
0000000000
0000000000
0000000000
0000000000
0000000000
0000000000
0000000000
0000000000
0000000000
0000000000
0000C00000
0001E00000
0001E00000
0000C00000
0000000000
0000000000
0000000000
0000000000
0000000000
0000000000
0000000000
0000000000
ENDCHAR

STARTCHAR A1E0
ENCODING 41440
SWIDTH 960 0
DWIDTH 34 0
BBX 34 34 0 -8
BITMAP
0000000000
0000000000
0000000000
0000000000
0000000000
0000000000
0000000000
0000000000
0000C00000
0001E00000
0001E00000
0000C00000
0000000000
0000000000
0000000000
0000000000
0000000000
0000000000
0000000000
0000000000
0000000000
0000000000
00C000C000
01E001E000
01E001E000
00C000C000
0000000000
0000000000
0000000000
0000000000
0000000000
0000000000
0000000000
0000000000
ENDCHAR

STARTCHAR A1E1
ENCODING 41441
SWIDTH 960 0
DWIDTH 34 0
BBX 34 34 0 -8
BITMAP
0000000000
0000000000
0000000000
0000000000
0000800000
0001C00000
0002A00000
0004900000
0008880000
0010840000
0020820000
0000800000
0000800000
0000800000
0000800000
0000800000
0000800000
0000800000
0003E00000
000C180000
0010040000
0010040000
0020020000
0020020000
0020020000
0020020000
0010040000
0010040000
000C180000
0003E00000
0000000000
0000000000
0000000000
0000000000
ENDCHAR

STARTCHAR A1E2
ENCODING 41442
SWIDTH 960 0
DWIDTH 34 0
BBX 34 34 0 -8
BITMAP
0000000000
0000000000
0000000000
0000000000
0003E00000
000C180000
0010040000
0010040000
0020020000
0020020000
0020020000
0020020000
0010040000
0010040000
000C180000
0003E00000
0000800000
0000800000
0000800000
0000800000
03FFFFE000
0000800000
0000800000
0000800000
0000800000
0000800000
0000800000
0000800000
0000800000
0000800000
0000000000
0000000000
0000000000
0000000000
ENDCHAR

STARTCHAR A1E3
ENCODING 41443
SWIDTH 960 0
DWIDTH 34 0
BBX 34 34 0 -8
BITMAP
0000000000
0000000000
03C0000000
0420000000
0810000000
0810000000
0810000000
0810000000
0420000000
03C0000000
0000000000
0000000000
0000000000
0000000000
0000000000
0000000000
0000000000
0000000000
0000000000
0000000000
0000000000
0000000000
0000000000
0000000000
0000000000
0000000000
0000000000
0000000000
0000000000
0000000000
0000000000
0000000000
0000000000
0000000000
ENDCHAR

STARTCHAR A1E4
ENCODING 41444
SWIDTH 960 0
DWIDTH 34 0
BBX 34 34 0 -8
BITMAP
0000000000
0000000000
0040000000
00E0000000
01E0000000
01C0000000
01C0000000
0380000000
0380000000
0300000000
0600000000
0400000000
0000000000
0000000000
0000000000
0000000000
0000000000
0000000000
0000000000
0000000000
0000000000
0000000000
0000000000
0000000000
0000000000
0000000000
0000000000
0000000000
0000000000
0000000000
0000000000
0000000000
0000000000
0000000000
ENDCHAR

STARTCHAR A1E5
ENCODING 41445
SWIDTH 960 0
DWIDTH 34 0
BBX 34 34 0 -8
BITMAP
0000000000
0000000000
0104000000
038E000000
079E000000
071C000000
071C000000
0E38000000
0E38000000
0C30000000
1860000000
1040000000
0000000000
0000000000
0000000000
0000000000
0000000000
0000000000
0000000000
0000000000
0000000000
0000000000
0000000000
0000000000
0000000000
0000000000
0000000000
0000000000
0000000000
0000000000
0000000000
0000000000
0000000000
0000000000
ENDCHAR

STARTCHAR A1E6
ENCODING 41446
SWIDTH 960 0
DWIDTH 34 0
BBX 34 34 0 -8
BITMAP
0000000000
0000000000
0000000000
0E00000000
1100000000
1103FE0000
1107018800
0E0C006800
001C003800
0018001800
0038000800
0038000800
0070000000
0070000000
0070000000
0070000000
0070000000
0070000000
0070000000
0070000000
0070000000
0070000000
0038000000
0038000800
001C001800
000E003000
000700C000
0003C38000
0000FF0000
0000000000
0000000000
0000000000
0000000000
0000000000
ENDCHAR

STARTCHAR A1E7
ENCODING 41447
SWIDTH 960 0
DWIDTH 34 0
BBX 34 34 0 -8
BITMAP
0000000000
0000000000
0000800000
0000800000
0000800000
001FFC2000
0078872000
00E081E000
01C080E000
0380806000
0380802000
0380802000
0380800000
01C0800000
01F8800000
007FE00000
003FFC0000
0007FF0000
00009FC000
000083E000
000080E000
0100807000
0100807000
0180807000
01C0807000
01E080E000
013881C000
011E878000
0007FE0000
0000800000
0000800000
0000800000
0000000000
0000000000
ENDCHAR

STARTCHAR A1E8
ENCODING 41448
SWIDTH 960 0
DWIDTH 34 0
BBX 34 34 0 -8
BITMAP
0000000000
0000000000
0000000000
0000000000
1800000600
0C03F00C00
060FFC1800
037807B000
01E001E000
0180006000
0180006000
0300003000
0300003000
0600001800
0600001800
0600001800
0600001800
0600001800
0600001800
0600001800
0600001800
0300003000
0300003000
0180006000
0180006000
01E001E000
037807B000
060FFC1800
0C03F00C00
1800000600
0000000000
0000000000
0000000000
0000000000
ENDCHAR

STARTCHAR A1E9
ENCODING 41449
SWIDTH 960 0
DWIDTH 34 0
BBX 34 34 0 -8
BITMAP
0000000000
0000000000
0000010000
0000010000
0000020000
0007FA2000
001E0E2000
003807A000
007008E000
00E0086000
01C0102000
01C0100000
03C0200000
0380200000
0380400000
0380400000
0380800000
0380800000
0381000000
0381000000
0382000000
0382000000
01C4002000
01C4002000
00E8004000
007800C000
003C038000
001F0F0000
0023FC0000
0020000000
0040000000
0040000000
0000000000
0000000000
ENDCHAR

STARTCHAR A1EA
ENCODING 41450
SWIDTH 960 0
DWIDTH 34 0
BBX 34 34 0 -8
BITMAP
0000000000
0000000000
0000000000
0000000000
0001FE0000
0003030000
0006038000
0006018000
001C000000
001C000000
001C000000
001C000000
001C000000
001C000000
07FFFC0000
000E000000
000E000000
000E000000
000E000000
000E000000
000E000000
000E000000
000E000000
03CE000000
042E000000
081C000400
081C000800
081E001800
0423FFF000
03C1FFE000
0000000000
0000000000
0000000000
0000000000
ENDCHAR

STARTCHAR A1EB
ENCODING 41451
SWIDTH 960 0
DWIDTH 34 0
BBX 34 34 0 -8
BITMAP
0000000000
0000000000
0000000000
0000000000
0380040000
0440080000
0820080000
0820100000
0820200000
0820200000
0820400000
0820800000
0820800000
0821000000
0442000000
0382000000
0004000000
0008000000
0009C07000
0012208800
0024110400
0024110400
0044110400
0084110400
0084110400
0104110400
0204110400
0204110400
0402208800
0801C07000
0000000000
0000000000
0000000000
0000000000
ENDCHAR

STARTCHAR A1EC
ENCODING 41452
SWIDTH 960 0
DWIDTH 34 0
BBX 34 34 0 -8
BITMAP
0000000000
0000000000
0000000000
0000000000
0001E00000
0003300000
0006180000
0006180000
0006000000
0006000000
0003000000
0001800000
0000E00000
0003300000
0003180000
0006180000
0006180000
0006180000
0006180000
0006180000
0003300000
0001800000
0000C00000
0000700000
0000180000
0000180000
000C180000
000C180000
0006300000
0003E00000
0000000000
0000000000
0000000000
0000000000
ENDCHAR

STARTCHAR A1ED
ENCODING 41453
SWIDTH 960 0
DWIDTH 34 0
BBX 34 34 0 -8
BITMAP
0000000000
0000000000
0000000000
0000000000
0F801E0000
0180330000
0080270000
00C0270000
00C0220000
00E0200000
00E0200000
00B020F000
00B0219800
0098230C00
0098260600
008C260600
008C260600
0086260600
0086260600
0083260600
0083260600
0081A30C00
0081A19800
0080E0F000
0080E00000
1880600000
1C80600000
1C8067FE00
0D80200000
0700200000
0000000000
0000000000
0000000000
0000000000
ENDCHAR

STARTCHAR A1EE
ENCODING 41454
SWIDTH 960 0
DWIDTH 34 0
BBX 34 34 0 -8
BITMAP
0000000000
0000000000
0000000000
0000000000
0000C00000
0000C00000
0001200000
0001200000
0001200000
0002100000
0002100000
0004080000
1FFC0FFE00
0800000400
0400000800
0300003000
0080004000
0060018000
0030030000
0010020000
0010020000
0020010000
0020C10000
0021210000
0042108000
0044088000
0048048000
00F003C000
00C000C000
0080004000
0000000000
0000000000
0000000000
0000000000
ENDCHAR

STARTCHAR A1EF
ENCODING 41455
SWIDTH 960 0
DWIDTH 34 0
BBX 34 34 0 -8
BITMAP
0000000000
0000000000
0000000000
0000000000
0000C00000
0000C00000
0001E00000
0001E00000
0001E00000
0003F00000
0003F00000
0007F80000
1FFFFFFE00
0FFFFFFC00
07FFFFF800
03FFFFF000
00FFFFC000
007FFF8000
003FFF0000
001FFE0000
001FFE0000
003FFF0000
003FFF0000
003F3F0000
007E1F8000
007C0F8000
00F807C000
00F003C000
00C000C000
0080004000
0000000000
0000000000
0000000000
0000000000
ENDCHAR

STARTCHAR A1F0
ENCODING 41456
SWIDTH 960 0
DWIDTH 34 0
BBX 34 34 0 -8
BITMAP
0000000000
0000000000
0000000000
0000000000
0007F80000
0018060000
0060018000
0080004000
0100002000
0200001000
0200001000
0400000800
0400000800
0400000800
0800000400
0800000400
0800000400
0800000400
0800000400
0800000400
0400000800
0400000800
0400000800
0200001000
0200001000
0100002000
0080004000
0060018000
0018060000
0007F80000
0000000000
0000000000
0000000000
0000000000
ENDCHAR

STARTCHAR A1F1
ENCODING 41457
SWIDTH 960 0
DWIDTH 34 0
BBX 34 34 0 -8
BITMAP
0000000000
0000000000
0000000000
0000000000
0007F80000
001FFE0000
007FFF8000
00FFFFC000
01FFFFE000
03FFFFF000
03FFFFF000
07FFFFF800
07FFFFF800
07FFFFF800
0FFFFFFC00
0FFFFFFC00
0FFFFFFC00
0FFFFFFC00
0FFFFFFC00
0FFFFFFC00
07FFFFF800
07FFFFF800
07FFFFF800
03FFFFF000
03FFFFF000
01FFFFE000
00FFFFC000
007FFF8000
001FFE0000
0007F80000
0000000000
0000000000
0000000000
0000000000
ENDCHAR

STARTCHAR A1F2
ENCODING 41458
SWIDTH 960 0
DWIDTH 34 0
BBX 34 34 0 -8
BITMAP
0000000000
0000000000
0000000000
0000000000
0007F80000
0018060000
0060018000
0080004000
0101E02000
0206181000
0218061000
0420010800
0420010800
0440008800
0840008400
0880004400
0880004400
0880004400
0880004400
0840008400
0440008800
0420010800
0420010800
0218061000
0206181000
0101E02000
0080004000
0060018000
0018060000
0007F80000
0000000000
0000000000
0000000000
0000000000
ENDCHAR

STARTCHAR A1F3
ENCODING 41459
SWIDTH 960 0
DWIDTH 34 0
BBX 34 34 0 -8
BITMAP
0000000000
0000000000
0000C00000
0001200000
0002100000
0004080000
0008040000
0010020000
0020010000
0040008000
0080004000
0100002000
0200001000
0400000800
0800000400
1000000200
2000000100
1000000200
0800000400
0400000800
0200001000
0100002000
0080004000
0040008000
0020010000
0010020000
0008040000
0004080000
0002100000
0001200000
0000C00000
0000000000
0000000000
0000000000
ENDCHAR

STARTCHAR A1F4
ENCODING 41460
SWIDTH 960 0
DWIDTH 34 0
BBX 34 34 0 -8
BITMAP
0000000000
0000000000
0000C00000
0001E00000
0003F00000
0007F80000
000FFC0000
001FFE0000
003FFF0000
007FFF8000
00FFFFC000
01FFFFE000
03FFFFF000
07FFFFF800
0FFFFFFC00
1FFFFFFE00
3FFFFFFF00
1FFFFFFE00
0FFFFFFC00
07FFFFF800
03FFFFF000
01FFFFE000
00FFFFC000
007FFF8000
003FFF0000
001FFE0000
000FFC0000
0007F80000
0003F00000
0001E00000
0000C00000
0000000000
0000000000
0000000000
ENDCHAR

STARTCHAR A1F5
ENCODING 41461
SWIDTH 960 0
DWIDTH 34 0
BBX 34 34 0 -8
BITMAP
0000000000
0000000000
0000000000
0000000000
0FFFFFFC00
0800000400
0800000400
0800000400
0800000400
0800000400
0800000400
0800000400
0800000400
0800000400
0800000400
0800000400
0800000400
0800000400
0800000400
0800000400
0800000400
0800000400
0800000400
0800000400
0800000400
0800000400
0800000400
0800000400
0800000400
0FFFFFFC00
0000000000
0000000000
0000000000
0000000000
ENDCHAR

STARTCHAR A1F6
ENCODING 41462
SWIDTH 960 0
DWIDTH 34 0
BBX 34 34 0 -8
BITMAP
0000000000
0000000000
0000000000
0000000000
0FFFFFFC00
0FFFFFFC00
0FFFFFFC00
0FFFFFFC00
0FFFFFFC00
0FFFFFFC00
0FFFFFFC00
0FFFFFFC00
0FFFFFFC00
0FFFFFFC00
0FFFFFFC00
0FFFFFFC00
0FFFFFFC00
0FFFFFFC00
0FFFFFFC00
0FFFFFFC00
0FFFFFFC00
0FFFFFFC00
0FFFFFFC00
0FFFFFFC00
0FFFFFFC00
0FFFFFFC00
0FFFFFFC00
0FFFFFFC00
0FFFFFFC00
0FFFFFFC00
0000000000
0000000000
0000000000
0000000000
ENDCHAR

STARTCHAR A1F7
ENCODING 41463
SWIDTH 960 0
DWIDTH 34 0
BBX 34 34 0 -8
BITMAP
0000000000
0000000000
0000000000
0000000000
0000C00000
0001200000
0001200000
0002100000
0002100000
0004080000
0004080000
0008040000
0008040000
0010020000
0010020000
0020010000
0020010000
0040008000
0040008000
0080004000
0080004000
0100002000
0100002000
0200001000
0200001000
0400000800
0400000800
0800000400
0FFFFFFC00
0000000000
0000000000
0000000000
0000000000
0000000000
ENDCHAR

STARTCHAR A1F8
ENCODING 41464
SWIDTH 960 0
DWIDTH 34 0
BBX 34 34 0 -8
BITMAP
0000000000
0000000000
0000000000
0000000000
0000C00000
0001E00000
0001E00000
0003F00000
0003F00000
0007F80000
0007F80000
000FFC0000
000FFC0000
001FFE0000
001FFE0000
003FFF0000
003FFF0000
007FFF8000
007FFF8000
00FFFFC000
00FFFFC000
01FFFFE000
01FFFFE000
03FFFFF000
03FFFFF000
07FFFFF800
07FFFFF800
0FFFFFFC00
0FFFFFFC00
0000000000
0000000000
0000000000
0000000000
0000000000
ENDCHAR

STARTCHAR A1F9
ENCODING 41465
SWIDTH 960 0
DWIDTH 34 0
BBX 34 34 0 -8
BITMAP
0000000000
0000000000
0000000000
0000000000
0000000000
0400000800
0600001800
0300C03000
0181E06000
00C1E0C000
0060C18000
0030030000
0018060000
000C0C0000
0006180000
00C330C000
01E1E1E000
01E0C1E000
00C1E0C000
0003300000
0006180000
000C0C0000
0018060000
0030030000
0060C08000
00C1E0C000
0181E06000
0300C03000
0600001800
0400000800
0000000000
0000000000
0000000000
0000000000
ENDCHAR

STARTCHAR A1FA
ENCODING 41466
SWIDTH 960 0
DWIDTH 34 0
BBX 34 34 0 -8
BITMAP
0000000000
0000000000
0000000000
0000000000
0000000000
0000000000
0000000000
0000000000
0000000000
0000000000
0000000000
0000040000
0000030000
000001C000
000000F000
0000007E00
7FFFFFFF80
0000007E00
000000F000
000001C000
0000030000
0000040000
0000000000
0000000000
0000000000
0000000000
0000000000
0000000000
0000000000
0000000000
0000000000
0000000000
0000000000
0000000000
ENDCHAR

STARTCHAR A1FB
ENCODING 41467
SWIDTH 960 0
DWIDTH 34 0
BBX 34 34 0 -8
BITMAP
0000000000
0000000000
0000000000
0000000000
0000000000
0000000000
0000000000
0000000000
0000000000
0000000000
0000000000
0008000000
0030000000
00E0000000
03C0000000
1F80000000
7FFFFFFF80
1F80000000
03C0000000
00E0000000
0030000000
0008000000
0000000000
0000000000
0000000000
0000000000
0000000000
0000000000
0000000000
0000000000
0000000000
0000000000
0000000000
0000000000
ENDCHAR

STARTCHAR A1FC
ENCODING 41468
SWIDTH 960 0
DWIDTH 34 0
BBX 34 34 0 -8
BITMAP
0000000000
0000800000
0000800000
0001C00000
0001C00000
0001C00000
0003E00000
0003E00000
0007F00000
0006B00000
000C980000
0008880000
0010840000
0000800000
0000800000
0000800000
0000800000
0000800000
0000800000
0000800000
0000800000
0000800000
0000800000
0000800000
0000800000
0000800000
0000800000
0000800000
0000800000
0000800000
0000800000
0000800000
0000800000
0000000000
ENDCHAR

STARTCHAR A1FD
ENCODING 41469
SWIDTH 960 0
DWIDTH 34 0
BBX 34 34 0 -8
BITMAP
0000000000
0000800000
0000800000
0000800000
0000800000
0000800000
0000800000
0000800000
0000800000
0000800000
0000800000
0000800000
0000800000
0000800000
0000800000
0000800000
0000800000
0000800000
0000800000
0000800000
0000800000
0010840000
0008880000
000C980000
0006B00000
0007F00000
0003E00000
0003E00000
0001C00000
0001C00000
0001C00000
0000800000
0000800000
0000000000
ENDCHAR

STARTCHAR A1FE
ENCODING 41470
SWIDTH 960 0
DWIDTH 34 0
BBX 34 34 0 -8
BITMAP
0000000000
0000000000
0000000000
0000000000
0000000000
07FFFFFC00
07FFFFFC00
07FFFFFC00
07FFFFFC00
07FFFFFC00
07FFFFFC00
07FFFFFC00
07FFFFFC00
0000000000
0000000000
0000000000
0000000000
0000000000
0000000000
0000000000
07FFFFFC00
07FFFFFC00
07FFFFFC00
07FFFFFC00
07FFFFFC00
07FFFFFC00
07FFFFFC00
07FFFFFC00
0000000000
0000000000
0000000000
0000000000
0000000000
0000000000
ENDCHAR

STARTCHAR A2B1
ENCODING 41649
SWIDTH 960 0
DWIDTH 34 0
BBX 34 34 0 -8
BITMAP
0000000000
0000000000
0000000000
0000000000
0000400000
0000C00000
0001C00000
0007C00000
0000C00000
0000C00000
0000C00000
0000C00000
0000C00000
0000C00000
0000C00000
0000C00000
0000C00000
0000C00000
0000C00000
0000C00000
0000C00000
0000C00000
0000C00000
0000C00000
0000C00000
0000C01800
0000C03C00
0001E03C00
0007F81800
0000000000
0000000000
0000000000
0000000000
0000000000
ENDCHAR

STARTCHAR A2B2
ENCODING 41650
SWIDTH 960 0
DWIDTH 34 0
BBX 34 34 0 -8
BITMAP
0000000000
0000000000
0000000000
0000000000
0003E00000
000E300000
000C180000
0018180000
0018180000
001C180000
001C180000
000C180000
0000180000
0000180000
0000300000
0000300000
0000600000
0000600000
0000C00000
0000C00000
0001800000
0001800000
0003000000
0003000000
0006000000
0006081800
000C083C00
001C183C00
001FF81800
0000000000
0000000000
0000000000
0000000000
0000000000
ENDCHAR

STARTCHAR A2B3
ENCODING 41651
SWIDTH 960 0
DWIDTH 34 0
BBX 34 34 0 -8
BITMAP
0000000000
0000000000
0000000000
0000000000
0003F00000
0007180000
00061C0000
000C0C0000
000E0C0000
000E0C0000
000C0C0000
00000C0000
00000C0000
0000180000
0000380000
0001E00000
0000380000
00001C0000
00000C0000
00000C0000
00000C0000
00000C0000
00000C0000
000C0C0000
000E0C0000
000E0C1800
000C1C3C00
0006383C00
0003F01800
0000000000
0000000000
0000000000
0000000000
0000000000
ENDCHAR

STARTCHAR A2B4
ENCODING 41652
SWIDTH 960 0
DWIDTH 34 0
BBX 34 34 0 -8
BITMAP
0000000000
0000000000
0000000000
0000000000
0001C00000
0001C00000
0002C00000
0002C00000
0002C00000
0004C00000
0004C00000
0004C00000
0008C00000
0008C00000
0008C00000
0010C00000
0010C00000
0010C00000
0020C00000
0020C00000
0020C00000
0040C00000
00FFFC0000
0000C00000
0000C00000
0000C01800
0000C03C00
0001E03C00
0007F81800
0000000000
0000000000
0000000000
0000000000
0000000000
ENDCHAR

STARTCHAR A2B5
ENCODING 41653
SWIDTH 960 0
DWIDTH 34 0
BBX 34 34 0 -8
BITMAP
0000000000
0000000000
0000000000
0000000000
000FFC0000
000C0C0000
000C040000
000C000000
000C000000
000C000000
000C000000
000C000000
000DF00000
000F1C0000
000E0C0000
000C0C0000
00000C0000
00000C0000
00000C0000
00000C0000
00000C0000
00000C0000
000C0C0000
000E0C0000
000C0C0000
000E0C1800
00061C3C00
0007383C00
0003F01800
0000000000
0000000000
0000000000
0000000000
0000000000
ENDCHAR

STARTCHAR A2B6
ENCODING 41654
SWIDTH 960 0
DWIDTH 34 0
BBX 34 34 0 -8
BITMAP
0000000000
0000000000
0000000000
0000000000
0000200000
0000400000
0000C00000
0001800000
0003000000
0003000000
0006000000
0006000000
000C000000
000C000000
000CF00000
000D980000
000E0C0000
000C0C0000
000C0C0000
000C0C0000
000C0C0000
000C0C0000
000C0C0000
000C0C0000
000C0C0000
000C0C1800
000E1C3C00
0007383C00
0003F01800
0000000000
0000000000
0000000000
0000000000
0000000000
ENDCHAR

STARTCHAR A2B7
ENCODING 41655
SWIDTH 960 0
DWIDTH 34 0
BBX 34 34 0 -8
BITMAP
0000000000
0000000000
0000000000
0000000000
001FFC0000
0018180000
0010180000
0000180000
0000180000
0000300000
0000300000
0000300000
0000300000
0000600000
0000600000
0000600000
0000600000
0000600000
0000C00000
0000C00000
0000C00000
0000C00000
0001C00000
0001800000
0001800000
0001801800
0003803C00
0003803C00
0007801800
0000000000
0000000000
0000000000
0000000000
0000000000
ENDCHAR

STARTCHAR A2B8
ENCODING 41656
SWIDTH 960 0
DWIDTH 34 0
BBX 34 34 0 -8
BITMAP
0000000000
0000000000
0000000000
0000000000
0003F00000
0007380000
000E1C0000
000C0C0000
000C0C0000
000C0C0000
000C0C0000
000C0C0000
000C0C0000
0006180000
0006180000
0003F00000
0006180000
0006180000
000C0C0000
000C0C0000
000C0C0000
000C0C0000
000C0C0000
000C0C0000
000C0C0000
000C0C1800
000E1C3C00
0007383C00
0003F01800
0000000000
0000000000
0000000000
0000000000
0000000000
ENDCHAR

STARTCHAR A2B9
ENCODING 41657
SWIDTH 960 0
DWIDTH 34 0
BBX 34 34 0 -8
BITMAP
0000000000
0000000000
0000000000
0000000000
0001F00000
0007380000
000E1C0000
000C0C0000
000C0C0000
000C0C0000
000C0C0000
000C0C0000
000C0C0000
000C0C0000
000C0C0000
000C0C0000
000C1C0000
00066C0000
0003CC0000
00000C0000
00000C0000
0000180000
0000180000
0000300000
0000300000
0000601800
0000C03C00
0000803C00
0001001800
0000000000
0000000000
0000000000
0000000000
0000000000
ENDCHAR

STARTCHAR A2BA
ENCODING 41658
SWIDTH 960 0
DWIDTH 34 0
BBX 34 34 0 -8
BITMAP
0000000000
0000000000
0000000000
0000000000
00407E0000
00C0E70000
01C1C18000
07C1818000
00C1818000
00C1818000
00C1818000
00C1818000
00C1818000
00C1818000
00C1818000
00C1818000
00C1818000
00C1818000
00C1818000
00C1818000
00C1818000
00C1818000
00C1818000
00C1818000
00C1818000
00C1818C00
00C1C39E00
01E0E71E00
07F87E0C00
0000000000
0000000000
0000000000
0000000000
0000000000
ENDCHAR

STARTCHAR A2BB
ENCODING 41659
SWIDTH 960 0
DWIDTH 34 0
BBX 34 34 0 -8
BITMAP
0000000000
0000000000
0000000000
0000000000
0040080000
00C0180000
01C0380000
07C0F80000
00C0180000
00C0180000
00C0180000
00C0180000
00C0180000
00C0180000
00C0180000
00C0180000
00C0180000
00C0180000
00C0180000
00C0180000
00C0180000
00C0180000
00C0180000
00C0180000
00C0180000
00C0180C00
00C0181E00
01E03C1E00
07F8FF0C00
0000000000
0000000000
0000000000
0000000000
0000000000
ENDCHAR

STARTCHAR A2BC
ENCODING 41660
SWIDTH 960 0
DWIDTH 34 0
BBX 34 34 0 -8
BITMAP
0000000000
0000000000
0000000000
0000000000
00403E0000
00C0E30000
01C0C18000
07C1818000
00C1818000
00C1C18000
00C1C18000
00C0C18000
00C0018000
00C0030000
00C0030000
00C0030000
00C0060000
00C0060000
00C00C0000
00C00C0000
00C0180000
00C0180000
00C0300000
00C0300000
00C0600000
00C0608C00
00C0C09E00
01E0C19E00
07F9FF8C00
0000000000
0000000000
0000000000
0000000000
0000000000
ENDCHAR

STARTCHAR A2BD
ENCODING 41661
SWIDTH 960 0
DWIDTH 34 0
BBX 34 34 0 -8
BITMAP
0000000000
0000000000
0000000000
0000000000
00407E0000
00C0E30000
01C0C38000
07C1818000
00C1C18000
00C1C18000
00C1818000
00C0018000
00C0018000
00C0030000
00C0070000
00C03C0000
00C0070000
00C0038000
00C0018000
00C0018000
00C0018000
00C0018000
00C0018000
00C1818000
00C1C18000
00C1C18C00
00C1839E00
01E0C71E00
07F87E0C00
0000000000
0000000000
0000000000
0000000000
0000000000
ENDCHAR

STARTCHAR A2BE
ENCODING 41662
SWIDTH 960 0
DWIDTH 34 0
BBX 34 34 0 -8
BITMAP
0000000000
0000000000
0000000000
0000000000
00400E0000
00C00E0000
01C0160000
07C0160000
00C0160000
00C0260000
00C0260000
00C0260000
00C0460000
00C0460000
00C0460000
00C0860000
00C0860000
00C0860000
00C1060000
00C1060000
00C1060000
00C2060000
00C7FFE000
00C0060000
00C0060000
00C0060C00
00C0061E00
01E00F1E00
07F83FCC00
0000000000
0000000000
0000000000
0000000000
0000000000
ENDCHAR

STARTCHAR A2BF
ENCODING 41663
SWIDTH 960 0
DWIDTH 34 0
BBX 34 34 0 -8
BITMAP
0000000000
0000000000
0000000000
0000000000
0041FF8000
00C1818000
01C1808000
07C1800000
00C1800000
00C1800000
00C1800000
00C1800000
00C1BE0000
00C1E38000
00C1C18000
00C1818000
00C0018000
00C0018000
00C0018000
00C0018000
00C0018000
00C1818000
00C1C18000
00C1C18000
00C1818000
00C1818C00
00C0C39E00
01E0E71E00
07F87E0C00
0000000000
0000000000
0000000000
0000000000
0000000000
ENDCHAR

STARTCHAR A2C0
ENCODING 41664
SWIDTH 960 0
DWIDTH 34 0
BBX 34 34 0 -8
BITMAP
0000000000
0000000000
0000000000
0000000000
0040040000
00C0080000
01C0180000
07C0300000
00C0600000
00C0600000
00C0C00000
00C0C00000
00C1800000
00C1800000
00C19E0000
00C1B30000
00C1C18000
00C1818000
00C1818000
00C1818000
00C1818000
00C1818000
00C1818000
00C1818000
00C1818000
00C1818C00
00C1C39E00
01E0E71E00
07F87E0C00
0000000000
0000000000
0000000000
0000000000
0000000000
ENDCHAR

STARTCHAR A2C1
ENCODING 41665
SWIDTH 960 0
DWIDTH 34 0
BBX 34 34 0 -8
BITMAP
0000000000
0000000000
0000000000
0000000000
0041FFC000
00C0018000
01C0018000
07C0018000
00C0018000
00C0030000
00C0030000
00C0030000
00C0030000
00C0060000
00C0060000
00C0060000
00C0060000
00C0060000
00C00C0000
00C00C0000
00C00C0000
00C00C0000
00C01C0000
00C0180000
00C0180000
00C0180C00
00C0381E00
01E0381E00
07F8780C00
0000000000
0000000000
0000000000
0000000000
0000000000
ENDCHAR

STARTCHAR A2C2
ENCODING 41666
SWIDTH 960 0
DWIDTH 34 0
BBX 34 34 0 -8
BITMAP
0000000000
0000000000
0000000000
0000000000
00407E0000
00C0E70000
01C1C38000
07C1818000
00C1818000
00C1818000
00C1818000
00C1818000
00C1818000
00C0C30000
00C0C30000
00C07E0000
00C0C30000
00C0C30000
00C1818000
00C1818000
00C1818000
00C1818000
00C1818000
00C1818000
00C1818000
00C1818C00
00C1C39E00
01E0E71E00
07F87E0C00
0000000000
0000000000
0000000000
0000000000
0000000000
ENDCHAR

STARTCHAR A2C3
ENCODING 41667
SWIDTH 960 0
DWIDTH 34 0
BBX 34 34 0 -8
BITMAP
0000000000
0000000000
0000000000
0000000000
00403E0000
00C0E70000
01C1C38000
07C1818000
00C1818000
00C1818000
00C1818000
00C1818000
00C1818000
00C1818000
00C1818000
00C1818000
00C1838000
00C0CD8000
00C0798000
00C0018000
00C0018000
00C0030000
00C0030000
00C0060000
00C0060000
00C00C0C00
00C0181E00
01E0101E00
07F8200C00
0000000000
0000000000
0000000000
0000000000
0000000000
ENDCHAR

STARTCHAR A2C4
ENCODING 41668
SWIDTH 960 0
DWIDTH 34 0
BBX 34 34 0 -8
BITMAP
0000000000
0000000000
0000000000
0000000000
01F01F8000
071839C000
060C70E000
0C0C606000
0C0C606000
0E0C606000
0E0C606000
060C606000
000C606000
001C606000
0018606000
0018606000
0030606000
0030606000
0060606000
0060606000
00C0606000
00C0606000
0180606000
0180606000
0300606000
0304606600
060470EF00
0E0C39CF00
0FFC1F8600
0000000000
0000000000
0000000000
0000000000
0000000000
ENDCHAR

STARTCHAR A2C5
ENCODING 41669
SWIDTH 960 0
DWIDTH 34 0
BBX 34 34 0 -8
BITMAP
0000000000
0000000000
0000000000
0000000000
0080004000
0100002000
0300403000
0600C01800
0C01C00C00
0C03C00C00
1800C00600
1800C00600
3000C00300
3000C00300
3000C00300
3000C00300
3000C00300
3000C00300
3000C00300
3000C00300
3000C00300
1800C00600
1800C00600
0C00C00C00
0C01E00C00
0607F81800
0300003000
0100002000
0080004000
0000000000
0000000000
0000000000
0000000000
0000000000
ENDCHAR

STARTCHAR A2C6
ENCODING 41670
SWIDTH 960 0
DWIDTH 34 0
BBX 34 34 0 -8
BITMAP
0000000000
0000000000
0000000000
0000000000
0080004000
0100002000
0303F83000
060E1E1800
0C18070C00
0C38030C00
1838030600
1838070600
3018070300
30000E0300
30000C0300
3000180300
3000300300
3000600300
3000C00300
3001800300
3003000300
1806000600
180C010600
0C18010C00
0C18030C00
063FFF1800
0300003000
0100002000
0080004000
0000000000
0000000000
0000000000
0000000000
0000000000
ENDCHAR

STARTCHAR A2C7
ENCODING 41671
SWIDTH 960 0
DWIDTH 34 0
BBX 34 34 0 -8
BITMAP
0000000000
0000000000
0000000000
0000000000
0080004000
0100002000
0303F03000
060E1C1800
0C18060C00
0C30030C00
1838030600
1830030600
3000070300
30000E0300
3000380300
3001C00300
3000380300
30000E0300
3000030300
3000030300
3030030300
1838030600
1830030600
0C18060C00
0C0E0C0C00
0603F81800
0300003000
0100002000
0080004000
0000000000
0000000000
0000000000
0000000000
0000000000
ENDCHAR

STARTCHAR A2C8
ENCODING 41672
SWIDTH 960 0
DWIDTH 34 0
BBX 34 34 0 -8
BITMAP
0000000000
0000000000
0000000000
0000000000
0080004000
0100002000
0300383000
0600781800
0C00780C00
0C00D80C00
1800980600
1801980600
3001180300
3003180300
3002180300
3006180300
3004180300
300C180300
3008180300
3018180300
3010180300
183FFF0600
1800180600
0C00180C00
0C00180C00
06003C1800
0300003000
0100002000
0080004000
0000000000
0000000000
0000000000
0000000000
0000000000
ENDCHAR

STARTCHAR A2C9
ENCODING 41673
SWIDTH 960 0
DWIDTH 34 0
BBX 34 34 0 -8
BITMAP
0000000000
0000000000
0000000000
0000000000
0080004000
0100002000
031FFF3000
0618031800
0C18010C00
0C18000C00
1818000600
1818000600
3018F00300
301B9C0300
301F0E0300
301C070300
3000030300
3000030300
3000030300
3000030300
3038030300
1838030600
1830070600
0C380E0C00
0C1C1C0C00
060FF81800
0300003000
0100002000
0080004000
0000000000
0000000000
0000000000
0000000000
0000000000
ENDCHAR

STARTCHAR A2CA
ENCODING 41674
SWIDTH 960 0
DWIDTH 34 0
BBX 34 34 0 -8
BITMAP
0000000000
0000000000
0000000000
0000000000
0080004000
0100002000
0300603000
0601801800
0C03000C00
0C06000C00
180C000600
1818000600
3018000300
3030000300
3031F00300
30361C0300
3038060300
3030030300
3030030300
3030030300
3030030300
1830030600
1830030600
0C18060C00
0C0E1C0C00
0607F81800
0300003000
0100002000
0080004000
0000000000
0000000000
0000000000
0000000000
0000000000
ENDCHAR

STARTCHAR A2CB
ENCODING 41675
SWIDTH 960 0
DWIDTH 34 0
BBX 34 34 0 -8
BITMAP
0000000000
0000000000
0000000000
0000000000
0080004000
0100002000
031FFF3000
0600021800
0C00060C00
0C00040C00
18000C0600
18000C0600
3000080300
3000180300
3000180300
3000100300
3000300300
3000300300
3000200300
3000600300
3000600300
1800400600
1800C00600
0C00C00C00
0C00C00C00
0601C01800
0300003000
0100002000
0080004000
0000000000
0000000000
0000000000
0000000000
0000000000
ENDCHAR

STARTCHAR A2CC
ENCODING 41676
SWIDTH 960 0
DWIDTH 34 0
BBX 34 34 0 -8
BITMAP
0000000000
0000000000
0000000000
0000000000
0080004000
0100002000
0303F03000
060E1C1800
0C18060C00
0C18060C00
1818060600
1818060600
3018060300
3018060300
300E1C0300
3003F00300
300E1C0300
3018060300
3030030300
3030030300
3030030300
1830030600
1830030600
0C18060C00
0C1C0E0C00
0607F81800
0300003000
0100002000
0080004000
0000000000
0000000000
0000000000
0000000000
0000000000
ENDCHAR

STARTCHAR A2CD
ENCODING 41677
SWIDTH 960 0
DWIDTH 34 0
BBX 34 34 0 -8
BITMAP
0000000000
0000000000
0000000000
0000000000
0080004000
0100002000
0307F83000
060E1C1800
0C18060C00
0C30030C00
1830030600
1830030600
3030030300
3030030300
3030030300
3018070300
300E1B0300
3007E30300
3000030300
3000060300
3000060300
18000C0600
1800180600
0C00300C00
0C00600C00
0601801800
0300003000
0100002000
0080004000
0000000000
0000000000
0000000000
0000000000
0000000000
ENDCHAR

STARTCHAR A2CE
ENCODING 41678
SWIDTH 960 0
DWIDTH 34 0
BBX 34 34 0 -8
BITMAP
0000000000
0000000000
0000000000
0000000000
0080004000
0100002000
03307C3000
0670C61800
0CF1C70C00
0C31830C00
1831830600
1831830600
3031830300
3031830300
3031830300
3031830300
3031830300
3031830300
3031830300
3031830300
3031830300
1831830600
1831830600
0C31C70C00
0C30C60C00
06787C1800
0300003000
0100002000
0080004000
0000000000
0000000000
0000000000
0000000000
0000000000
ENDCHAR

STARTCHAR A2CF
ENCODING 41679
SWIDTH 960 0
DWIDTH 34 0
BBX 34 34 0 -8
BITMAP
0000000000
0000000000
0000000000
0000000000
0080004000
0100002000
030C063000
061C0E1800
0C7C3E0C00
0C0C060C00
180C060600
180C060600
300C060300
300C060300
300C060300
300C060300
300C060300
300C060300
300C060300
300C060300
300C060300
180C060600
180C060600
0C0C060C00
0C1E0F0C00
063F1F9800
0300003000
0100002000
0080004000
0000000000
0000000000
0000000000
0000000000
0000000000
ENDCHAR

STARTCHAR A2D0
ENCODING 41680
SWIDTH 960 0
DWIDTH 34 0
BBX 34 34 0 -8
BITMAP
0000000000
0000000000
0000000000
0000000000
0080004000
0100002000
03307F3000
0670E39800
0CF1818C00
0C31818C00
1831C18600
1831C18600
3030018300
3030018300
3030030300
3030030300
3030060300
3030060300
30300C0300
3030180300
3030300300
1830600600
1830C00600
0C30C08C00
0C31818C00
0679FF9800
0300003000
0100002000
0080004000
0000000000
0000000000
0000000000
0000000000
0000000000
ENDCHAR

STARTCHAR A2D1
ENCODING 41681
SWIDTH 960 0
DWIDTH 34 0
BBX 34 34 0 -8
BITMAP
0000000000
0000000000
0000000000
0000000000
0080004000
0100002000
03303C3000
0670E61800
0CF0C30C00
0C31818C00
1831C18600
1831818600
3030018300
3030030300
30300E0300
3030780300
30300E0300
3030030300
3030018300
3030018300
3031818300
1831C18600
1831818600
0C30C18C00
0C30E30C00
06783E1800
0300003000
0100002000
0080004000
0000000000
0000000000
0000000000
0000000000
0000000000
ENDCHAR

STARTCHAR A2D2
ENCODING 41682
SWIDTH 960 0
DWIDTH 34 0
BBX 34 34 0 -8
BITMAP
0000000000
0000000000
0000000000
0000000000
0080004000
0100002000
03300E3000
06700E1800
0CF0160C00
0C30160C00
1830260600
1830260600
3030460300
3030460300
3030860300
3030860300
3031060300
3031060300
3032060300
3032060300
3036060300
1837FFC600
1830060600
0C30060C00
0C30060C00
06780F1800
0300003000
0100002000
0080004000
0000000000
0000000000
0000000000
0000000000
0000000000
ENDCHAR

STARTCHAR A2D3
ENCODING 41683
SWIDTH 960 0
DWIDTH 34 0
BBX 34 34 0 -8
BITMAP
0000000000
0000000000
0000000000
0000000000
0080004000
0100002000
0331FFB000
0671819800
0CF1808C00
0C31800C00
1831800600
1831800600
3031800300
3031BC0300
3031E60300
3031830300
3030018300
3030018300
3030018300
3030018300
3030018300
1831C18600
1831C18600
0C31838C00
0C30E70C00
06787E1800
0300003000
0100002000
0080004000
0000000000
0000000000
0000000000
0000000000
0000000000
ENDCHAR

STARTCHAR A2D4
ENCODING 41684
SWIDTH 960 0
DWIDTH 34 0
BBX 34 34 0 -8
BITMAP
0000000000
0000000000
0000000000
0000000000
0080004000
0100002000
0330043000
0670181800
0CF0300C00
0C30600C00
1830600600
1830C00600
3030C00300
3031800300
30319E0300
3031B30300
3031C18300
3031818300
3031818300
3031818300
3031818300
1831818600
1831818600
0C30C38C00
0C30E70C00
06787C1800
0300003000
0100002000
0080004000
0000000000
0000000000
0000000000
0000000000
0000000000
ENDCHAR

STARTCHAR A2D5
ENCODING 41685
SWIDTH 960 0
DWIDTH 34 0
BBX 34 34 0 -8
BITMAP
0000000000
0000000000
0000000000
0000000000
0080004000
0100002000
0331FFB000
0671811800
0CF1010C00
0C30030C00
1830030600
1830020600
3030060300
3030060300
3030060300
3030040300
30300C0300
30300C0300
30300C0300
3030080300
3030180300
1830180600
1830180600
0C30380C00
0C30380C00
0678381800
0300003000
0100002000
0080004000
0000000000
0000000000
0000000000
0000000000
0000000000
ENDCHAR

STARTCHAR A2D6
ENCODING 41686
SWIDTH 960 0
DWIDTH 34 0
BBX 34 34 0 -8
BITMAP
0000000000
0000000000
0000000000
0000000000
0080004000
0100002000
03307E3000
0670C31800
0CF1818C00
0C31818C00
1831818600
1831818600
3031818300
3031818300
3030C30300
30307E0300
3030C30300
3031818300
3031818300
3031818300
3031818300
1831818600
1831818600
0C31818C00
0C30C30C00
06787E1800
0300003000
0100002000
0080004000
0000000000
0000000000
0000000000
0000000000
0000000000
ENDCHAR

STARTCHAR A2D7
ENCODING 41687
SWIDTH 960 0
DWIDTH 34 0
BBX 34 34 0 -8
BITMAP
0000000000
0000000000
0000000000
0000000000
0080004000
0100002000
03307E3000
0670C31800
0CF1818C00
0C31818C00
1831818600
1831818600
3031818300
3031818300
3031818300
3031838300
3030CD8300
3030798300
3030018300
3030030300
3030030300
1830060600
1830060600
0C300C0C00
0C30180C00
0678201800
0300003000
0100002000
0080004000
0000000000
0000000000
0000000000
0000000000
0000000000
ENDCHAR

STARTCHAR A2D8
ENCODING 41688
SWIDTH 960 0
DWIDTH 34 0
BBX 34 34 0 -8
BITMAP
0000000000
0000000000
0000000000
0000000000
0080004000
0100002000
031E0E3000
06371B1800
0C63318C00
0C63318C00
1863318600
1873318600
3073318300
3003318300
3003318300
3006318300
3006318300
3006318300
300C318300
300C318300
3018318300
1818318600
1830318600
0C31318C00
0C631B0C00
067F0E1800
0300003000
0100002000
0080004000
0000000000
0000000000
0000000000
0000000000
0000000000
ENDCHAR

STARTCHAR A2D9
ENCODING 41689
SWIDTH 960 0
DWIDTH 34 0
BBX 34 34 0 -8
BITMAP
0000000000
0000000000
0000000000
0000000000
0007F80000
0038070000
00C000C000
0100002000
0200C01000
0401C00800
0403C00800
0800C00400
0800C00400
0800C00400
1000C00200
1000C00200
1000C00200
1000C00200
1000C00200
1000C00200
0800C00400
0800C00400
0800C00400
0400C00800
0400C00800
0201E01000
0100002000
00C000C000
0038070000
0007F80000
0000000000
0000000000
0000000000
0000000000
ENDCHAR

STARTCHAR A2DA
ENCODING 41690
SWIDTH 960 0
DWIDTH 34 0
BBX 34 34 0 -8
BITMAP
0000000000
0000000000
0000000000
0000000000
0007F80000
0038070000
00C000C000
0100002000
020FFC1000
041C0E0800
0418070800
0830030400
0830030400
0838070400
10380E0200
10001C0200
1000380200
1000600200
1000C00200
1001800200
0803000400
0806000400
080C010400
0418010800
0430030800
023FFF1000
0100002000
00C000C000
0038070000
0007F80000
0000000000
0000000000
0000000000
0000000000
ENDCHAR

STARTCHAR A2DB
ENCODING 41691
SWIDTH 960 0
DWIDTH 34 0
BBX 34 34 0 -8
BITMAP
0000000000
0000000000
0000000000
0000000000
0007F80000
0038070000
00C000C000
0100002000
0207F01000
041C1C0800
0430060800
0838030400
0830030400
0800070400
10000E0200
1000380200
1001C00200
1000380200
10000E0200
1000070200
0830030400
0838030400
0830030400
0418060800
040E0C0800
0207F81000
0100002000
00C000C000
0038070000
0007F80000
0000000000
0000000000
0000000000
0000000000
ENDCHAR

STARTCHAR A2DC
ENCODING 41692
SWIDTH 960 0
DWIDTH 34 0
BBX 34 34 0 -8
BITMAP
0000000000
0000000000
0000000000
0000000000
0007F80000
0038070000
00C000C000
0100002000
0200381000
0400380800
0400580800
0800980400
0800980400
0801180400
1002180200
1002180200
1004180200
1008180200
1008180200
1010180200
0820180400
087FFF0400
0800180400
0400180800
0400180800
02003C1000
0100002000
00C000C000
0038070000
0007F80000
0000000000
0000000000
0000000000
0000000000
ENDCHAR

STARTCHAR A2DD
ENCODING 41693
SWIDTH 960 0
DWIDTH 34 0
BBX 34 34 0 -8
BITMAP
0000000000
0000000000
0000000000
0000000000
0007F80000
0038070000
00C000C000
0100002000
021FFE1000
0418060800
0418020800
0818000400
0818000400
0819F00400
101B1C0200
101C0E0200
1018060200
1000060200
1000060200
1000060200
0838060400
0838060400
0830060400
04180E0800
041C1C0800
020FF01000
0100002000
00C000C000
0038070000
0007F80000
0000000000
0000000000
0000000000
0000000000
ENDCHAR

STARTCHAR A2DE
ENCODING 41694
SWIDTH 960 0
DWIDTH 34 0
BBX 34 34 0 -8
BITMAP
0000000000
0000000000
0000000000
0000000000
0007F80000
0038070000
00C000C000
0100002000
0200701000
0401C00800
0403000800
0806000400
080C000400
0818000400
1018000200
1031F80200
10361C0200
1038060200
1030030200
1030030200
0830030400
0830030400
0830030400
0418060800
040E1C0800
0207F81000
0100002000
00C000C000
0038070000
0007F80000
0000000000
0000000000
0000000000
0000000000
ENDCHAR

STARTCHAR A2DF
ENCODING 41695
SWIDTH 960 0
DWIDTH 34 0
BBX 34 34 0 -8
BITMAP
0000000000
0000000000
0000000000
0000000000
0007F80000
0038070000
00C000C000
0100002000
023FFF1000
0400020800
0400060800
0800040400
08000C0400
0800080400
1000180200
1000180200
1000300200
1000300200
1000600200
1000600200
0800600400
0800C00400
0800C00400
0401C00800
0401C00800
0201C01000
0100002000
00C000C000
0038070000
0007F80000
0000000000
0000000000
0000000000
0000000000
ENDCHAR

STARTCHAR A2E0
ENCODING 41696
SWIDTH 960 0
DWIDTH 34 0
BBX 34 34 0 -8
BITMAP
0000000000
0000000000
0000000000
0000000000
000FF80000
0038070000
00C000C000
0100002000
0203F01000
040E1C0800
041C0E0800
0818060400
0818060400
0818060400
1018060200
100C0C0200
1007F80200
101C0E0200
1038070200
1030030200
0830030400
0830030400
0838070400
0418060800
040E1C0800
0207F81000
0100002000
00C000C000
0038070000
0007F80000
0000000000
0000000000
0000000000
0000000000
ENDCHAR

STARTCHAR A2E1
ENCODING 41697
SWIDTH 960 0
DWIDTH 34 0
BBX 34 34 0 -8
BITMAP
0000000000
0000000000
0000000000
0000000000
0007F80000
0038070000
00C000C000
0100002000
0207F81000
040E1C0800
0418060800
0830030400
0830030400
0830030400
1030030200
1030030200
1018070200
100E1B0200
1007E30200
1000060200
0800060400
08000C0400
0800180400
0400300800
0400E00800
0203801000
0100002000
00C000C000
0038070000
0007F80000
0000000000
0000000000
0000000000
0000000000
ENDCHAR

STARTCHAR A2E2
ENCODING 41698
SWIDTH 960 0
DWIDTH 34 0
BBX 34 34 0 -8
BITMAP
0000000000
0000000000
0000000000
0000000000
0007F80000
0038070000
00C000C000
0100002000
02307C1000
0470EE0800
04F1C70800
0831830400
0831830400
0831830400
1031830200
1031830200
1031830200
1031830200
1031830200
1031830200
0831830400
0831830400
0831830400
0431C70800
0430EE0800
02787C1000
0100002000
00C000C000
0038070000
0007F80000
0000000000
0000000000
0000000000
0000000000
ENDCHAR

STARTCHAR A2E5
ENCODING 41701
SWIDTH 960 0
DWIDTH 34 0
BBX 34 34 0 -8
BITMAP
0000000000
0000000000
0000000000
0000000000
0080004000
0100002000
0300003000
0600001800
0C00000C00
0C00000C00
1800000600
1800000600
3000000300
3000010300
3000038300
30FFFFC300
3000000300
3000000300
3000000300
3000000300
3000000300
1800000600
1800000600
0C00000C00
0C00000C00
0600001800
0300003000
0100002000
0080004000
0000000000
0000000000
0000000000
0000000000
0000000000
ENDCHAR

STARTCHAR A2E6
ENCODING 41702
SWIDTH 960 0
DWIDTH 34 0
BBX 34 34 0 -8
BITMAP
0000000000
0000000000
0000000000
0000000000
0080004000
0100002000
0300003000
0600001800
0C00000C00
0C00030C00
187FFF8600
1800000600
3000000300
3000000300
3000000300
3000000300
3000000300
3000000300
3000000300
3000000300
3000010300
1800038600
187FFFC600
0C00000C00
0C00000C00
0600001800
0300003000
0100002000
0080004000
0000000000
0000000000
0000000000
0000000000
0000000000
ENDCHAR

STARTCHAR A2E7
ENCODING 41703
SWIDTH 960 0
DWIDTH 34 0
BBX 34 34 0 -8
BITMAP
0000000000
0000000000
0000000000
0000000000
0080004000
0100002000
0300003000
0600001800
0C00060C00
0C3FFF0C00
1800000600
1800000600
3000000300
3000000300
3000000300
30000C0300
301FFE0300
3000000300
3000000300
3000000300
3000000300
1800000600
1800010600
0C00038C00
0CFFFFCC00
0600001800
0300003000
0100002000
0080004000
0000000000
0000000000
0000000000
0000000000
0000000000
ENDCHAR

STARTCHAR A2E8
ENCODING 41704
SWIDTH 960 0
DWIDTH 34 0
BBX 34 34 0 -8
BITMAP
0000000000
0000000000
0000000000
0000000000
0080004000
0100002000
0300003000
0640019800
0C7FFFCC00
0C63318C00
1863318600
1863318600
3063318300
3063318300
3063318300
3063318300
3063318300
3063318300
30663F8300
30661D8300
306C018300
1870018600
1860018600
0C7FFF8C00
0C60018C00
0640019800
0300003000
0100002000
0080004000
0000000000
0000000000
0000000000
0000000000
0000000000
ENDCHAR

STARTCHAR A2E9
ENCODING 41705
SWIDTH 960 0
DWIDTH 34 0
BBX 34 34 0 -8
BITMAP
0000000000
0000000000
0000000000
0000000000
0080004000
0100002000
0300003000
0600061800
0C7FFF0C00
0C01800C00
1801800600
1801800600
3001800300
3001800300
30018C0300
303FFE0300
30030C0300
30030C0300
30030C0300
30030C0300
30030C0300
18030C0600
18030C0600
0C030D8C00
0CFFFFCC00
0600001800
0300003000
0100002000
0080004000
0000000000
0000000000
0000000000
0000000000
0000000000
ENDCHAR

STARTCHAR A2EA
ENCODING 41706
SWIDTH 960 0
DWIDTH 34 0
BBX 34 34 0 -8
BITMAP
0000000000
0000000000
0000000000
0000000000
0080004000
0100002000
0302003000
0601801800
0C01C00C00
0C00C00C00
1800808600
180001C600
31FFFFE300
3000000300
3000000300
3004200300
3007100300
3006180300
300E0C0300
300C0C0300
3018060300
1818060600
1830070600
0C20030C00
0C40030C00
0680021800
0300003000
0100002000
0080004000
0000000000
0000000000
0000000000
0000000000
0000000000
ENDCHAR

STARTCHAR A2EB
ENCODING 41707
SWIDTH 960 0
DWIDTH 34 0
BBX 34 34 0 -8
BITMAP
0000000000
0000000000
0000000000
0000000000
0080004000
0100002000
0301003000
0601801800
0C01C00C00
0C01800C00
1801800600
1801808600
300183C300
30019E0300
3001F00300
3007800300
303D800300
31E1800300
3001800300
3001810300
3001810300
1801810600
1801818600
0C01FF8C00
0C00FF0C00
0600001800
0300003000
0100002000
0080004000
0000000000
0000000000
0000000000
0000000000
0000000000
ENDCHAR

STARTCHAR A2EC
ENCODING 41708
SWIDTH 960 0
DWIDTH 34 0
BBX 34 34 0 -8
BITMAP
0000000000
0000000000
0000000000
0000000000
0080004000
0100002000
0300003000
0600701800
0C04200C00
0C07200C00
1806200600
1806300600
3006300300
3006100300
3006100300
3006180300
300C180300
300C080300
300C080300
30180C0300
30180C0300
1830060600
1830070600
0C60078C00
0C4003CC00
0680011800
0300003000
0100002000
0080004000
0000000000
0000000000
0000000000
0000000000
0000000000
ENDCHAR

STARTCHAR A2ED
ENCODING 41709
SWIDTH 960 0
DWIDTH 34 0
BBX 34 34 0 -8
BITMAP
0000000000
0000000000
0000000000
0000000000
0080004000
0100002000
0302003000
0603801800
0C03000C00
0C03000C00
1803000600
1803180600
3003FC0300
30FF180300
3003180300
3006180300
3006180300
3006180300
300C180300
300C180300
3018188300
1818188600
1830188600
0C2018CC00
0C401FCC00
06800F9800
0300003000
0100002000
0080004000
0000000000
0000000000
0000000000
0000000000
0000000000
ENDCHAR

STARTCHAR A2EE
ENCODING 41710
SWIDTH 960 0
DWIDTH 34 0
BBX 34 34 0 -8
BITMAP
0000000000
0000000000
0000000000
0000000000
0080004000
0100002000
0300803000
0600E01800
0C00C00C00
0C00C00C00
1800C00600
1800C00600
3000C00300
3000C08300
3000C1C300
31FFFFE300
3000C00300
3000C00300
3000C00300
3000C00300
3000C00300
1800C00600
1800C00600
0C00C00C00
0C00C00C00
0600C01800
0300003000
0100002000
0080004000
0000000000
0000000000
0000000000
0000000000
0000000000
ENDCHAR

STARTCHAR A2F1
ENCODING 41713
SWIDTH 960 0
DWIDTH 34 0
BBX 34 34 0 -8
BITMAP
0000000000
0000000000
0000000000
0000000000
000FF80000
0001C00000
0001C00000
0001C00000
0001C00000
0001C00000
0001C00000
0001C00000
0001C00000
0001C00000
0001C00000
0001C00000
0001C00000
0001C00000
0001C00000
0001C00000
0001C00000
0001C00000
0001C00000
0001C00000
0001C00000
0001C00000
0001C00000
0001C00000
000FF80000
0000000000
0000000000
0000000000
0000000000
0000000000
ENDCHAR

STARTCHAR A2F2
ENCODING 41714
SWIDTH 960 0
DWIDTH 34 0
BBX 34 34 0 -8
BITMAP
0000000000
0000000000
0000000000
0000000000
01FF3FE000
0038070000
0038070000
0038070000
0038070000
0038070000
0038070000
0038070000
0038070000
0038070000
0038070000
0038070000
0038070000
0038070000
0038070000
0038070000
0038070000
0038070000
0038070000
0038070000
0038070000
0038070000
0038070000
0038070000
01FF3FE000
0000000000
0000000000
0000000000
0000000000
0000000000
ENDCHAR

STARTCHAR A2F3
ENCODING 41715
SWIDTH 960 0
DWIDTH 34 0
BBX 34 34 0 -8
BITMAP
0000000000
0000000000
0000000000
0000000000
07F7F7F000
01C1C1C000
01C1C1C000
01C1C1C000
01C1C1C000
01C1C1C000
01C1C1C000
01C1C1C000
01C1C1C000
01C1C1C000
01C1C1C000
01C1C1C000
01C1C1C000
01C1C1C000
01C1C1C000
01C1C1C000
01C1C1C000
01C1C1C000
01C1C1C000
01C1C1C000
01C1C1C000
01C1C1C000
01C1C1C000
01C1C1C000
07F7F7F000
0000000000
0000000000
0000000000
0000000000
0000000000
ENDCHAR

STARTCHAR A2F4
ENCODING 41716
SWIDTH 960 0
DWIDTH 34 0
BBX 34 34 0 -8
BITMAP
0000000000
0000000000
0000000000
0000000000
0FDFE07E00
038F001C00
0387001800
0387001800
0387001000
0383801000
0383803000
0383802000
0381C02000
0381C02000
0381C06000
0380E04000
0380E04000
0380E04000
038070C000
0380708000
0380708000
0380388000
0380398000
0380390000
03801D0000
03801D0000
03801D0000
03800E0000
0FC00E0000
0000000000
0000000000
0000000000
0000000000
0000000000
ENDCHAR

STARTCHAR A2F5
ENCODING 41717
SWIDTH 960 0
DWIDTH 34 0
BBX 34 34 0 -8
BITMAP
0000000000
0000000000
0000000000
0000000000
0FFC03FC00
03C0006000
01C0004000
01C0004000
00E000C000
00E0008000
0070008000
0070018000
0070010000
0038010000
0038030000
001C020000
001C020000
001C060000
000E040000
000E040000
00070C0000
0007080000
0007080000
0003980000
0003900000
0001900000
0001D00000
0000E00000
0000E00000
0000000000
0000000000
0000000000
0000000000
0000000000
ENDCHAR

STARTCHAR A2F6
ENCODING 41718
SWIDTH 960 0
DWIDTH 34 0
BBX 34 34 0 -8
BITMAP
0000000000
0000000000
0000000000
0000000000
1FF07FFC00
0F001C7000
0700187000
0700107000
0700107000
0380107000
0380307000
0380207000
01C0207000
01C0207000
01C0607000
00E0407000
00E0407000
00E0407000
0070C07000
0070807000
0070807000
0038807000
0039807000
0039007000
001D007000
001D007000
001D007000
000E007000
000E01FC00
0000000000
0000000000
0000000000
0000000000
0000000000
ENDCHAR

STARTCHAR A2F7
ENCODING 41719
SWIDTH 960 0
DWIDTH 34 0
BBX 34 34 0 -8
BITMAP
0000000000
0000000000
0000000000
0000000000
3FC3FFFE00
0E00673800
0E00473800
0E00473800
0600473800
0700C73800
0700873800
0300873800
0300873800
0381873800
0381073800
0181073800
0181073800
01C3073800
01C2073800
00C2073800
00C2073800
0066073800
0064073800
0064073800
0034073800
0034073800
0038073800
0018073800
00181FFE00
0000000000
0000000000
0000000000
0000000000
0000000000
ENDCHAR

STARTCHAR A2F8
ENCODING 41720
SWIDTH 960 0
DWIDTH 34 0
BBX 34 34 0 -8
BITMAP
0000000000
0000000000
0000000000
0000000000
3F8FFFFE00
1C033BB800
0C023BB800
0E023BB800
0E023BB800
06023BB800
06063BB800
07043BB800
07043BB800
03043BB800
03043BB800
030C3BB800
03883BB800
03883BB800
01883BB800
01883BB800
01883BB800
01D83BB800
01D03BB800
00D03BB800
00D03BB800
00F03BB800
00603BB800
00603BB800
0060FFFE00
0000000000
0000000000
0000000000
0000000000
0000000000
ENDCHAR

STARTCHAR A2F9
ENCODING 41721
SWIDTH 960 0
DWIDTH 34 0
BBX 34 34 0 -8
BITMAP
0000000000
0000000000
0000000000
0000000000
0FDFC0FE00
038F003800
0387003000
0383806000
0383804000
0381C08000
0381C08000
0380E10000
0380E20000
0380720000
0380740000
0380380000
03801C0000
03801C0000
03802E0000
0380270000
0380470000
0380438000
0380838000
038181C000
038100E000
038300E000
0386007000
038E007800
0FDF81FE00
0000000000
0000000000
0000000000
0000000000
0000000000
ENDCHAR

STARTCHAR A2FA
ENCODING 41722
SWIDTH 960 0
DWIDTH 34 0
BBX 34 34 0 -8
BITMAP
0000000000
0000000000
0000000000
0000000000
0FFC03FC00
03C0007000
01C000E000
00E001C000
0070018000
0070030000
0038020000
001C040000
001C080000
000E100000
0007200000
0003400000
0003C00000
0001C00000
0003E00000
0002700000
0004380000
0008380000
00101C0000
00200E0000
0040070000
00C0038000
018001C000
038001E000
0FF007FC00
0000000000
0000000000
0000000000
0000000000
0000000000
ENDCHAR

STARTCHAR A2FB
ENCODING 41723
SWIDTH 960 0
DWIDTH 34 0
BBX 34 34 0 -8
BITMAP
0000000000
0000000000
0000000000
0000000000
3FE0FDFC00
0F00707000
0700607000
0380407000
0380C07000
01C0807000
01C1007000
00E2007000
00E2007000
0074007000
0074007000
0038007000
0038007000
001C007000
003C007000
004E007000
004E007000
0087007000
0107007000
0103807000
0203807000
0201C07000
0401C07000
0C00F07000
3F87FDFC00
0000000000
0000000000
0000000000
0000000000
0000000000
ENDCHAR

STARTCHAR A2FC
ENCODING 41724
SWIDTH 960 0
DWIDTH 34 0
BBX 34 34 0 -8
BITMAP
0000000000
0000000000
0000000000
0000000000
3FE1FFFE00
0780673800
0380473800
0380C73800
01C0873800
01C1873800
00E1073800
00E2073800
0072073800
0074073800
0074073800
0038073800
0038073800
001C073800
003C073800
005C073800
004E073800
008E073800
0107073800
0107073800
0203873800
0603873800
0401C73800
0C01E73800
3F87FFFE00
0000000000
0000000000
0000000000
0000000000
0000000000
ENDCHAR

STARTCHAR A3A1
ENCODING 41889
SWIDTH 960 0
DWIDTH 34 0
BBX 34 34 0 -8
BITMAP
0000000000
0000000000
0000000000
0000000000
00C0000000
01E0000000
01E0000000
01E0000000
01E0000000
01E0000000
01E0000000
01E0000000
01E0000000
01E0000000
01E0000000
00C0000000
00C0000000
00C0000000
00C0000000
00C0000000
00C0000000
00C0000000
0000000000
0000000000
0000000000
00C0000000
01E0000000
01E0000000
00C0000000
0000000000
0000000000
0000000000
0000000000
0000000000
ENDCHAR

STARTCHAR A3A2
ENCODING 41890
SWIDTH 960 0
DWIDTH 34 0
BBX 34 34 0 -8
BITMAP
0000000000
0000000000
000C0C0000
001E1E0000
001E1E0000
001E1E0000
001E1E0000
000C0C0000
000C0C0000
000C0C0000
000C0C0000
000C0C0000
0000000000
0000000000
0000000000
0000000000
0000000000
0000000000
0000000000
0000000000
0000000000
0000000000
0000000000
0000000000
0000000000
0000000000
0000000000
0000000000
0000000000
0000000000
0000000000
0000000000
0000000000
0000000000
ENDCHAR

STARTCHAR A3A3
ENCODING 41891
SWIDTH 960 0
DWIDTH 34 0
BBX 34 34 0 -8
BITMAP
0000000000
0000000000
0000000000
0000000000
0004020000
0004020000
0004020000
0004020000
0004020000
0004020000
000407F000
000FFFF000
03FFFC0000
03F8040000
0008040000
0008040000
0008040000
0008040000
0008040000
000807F000
000FFFF000
03FFF80000
03F0080000
0010080000
0010080000
0010080000
0010080000
0010080000
0010080000
0010080000
0000000000
0000000000
0000000000
0000000000
ENDCHAR

STARTCHAR A3A4
ENCODING 41892
SWIDTH 960 0
DWIDTH 34 0
BBX 34 34 0 -8
BITMAP
0000000000
0000000000
0000000000
0000000000
07F803F000
01C000E000
00E001C000
00E0038000
0070030000
0038060000
00380C0000
001C080000
000E100000
0007200000
0003E00000
0001C00000
0001C00000
0001C00000
0001C00000
03FFFFE000
0001C00000
0001C00000
0001C00000
0001C00000
0001C00000
0001C00000
0001C00000
0001C00000
0001C00000
000FF80000
0000000000
0000000000
0000000000
0000000000
ENDCHAR

STARTCHAR A3A5
ENCODING 41893
SWIDTH 960 0
DWIDTH 34 0
BBX 34 34 0 -8
BITMAP
0000000000
0000000000
0000000000
0000000000
0078000C00
00CC001800
0186003000
0186006000
018600C000
0186018000
0186030000
0186060000
01860C0000
0186180000
0186300000
00CC600000
0078C00000
0001878000
00030CC000
0006186000
000C186000
0018186000
0030186000
0060186000
00C0186000
0180186000
0300186000
0600186000
0C000CC000
1800078000
0000000000
0000000000
0000000000
0000000000
ENDCHAR

STARTCHAR A3A6
ENCODING 41894
SWIDTH 960 0
DWIDTH 34 0
BBX 34 34 0 -8
BITMAP
0000000000
0000000000
0000000000
0000000000
000F800000
001CC00000
0030600000
0030600000
0030600000
0030600000
0030600000
0030C00000
0019800000
001B0FE000
000E038000
003E010000
00E7010000
0183010000
0303820000
0201820000
0601C20000
0600C60000
0600E40000
06007C0000
0600380200
03002C0200
03006E0400
0180C71C00
00FF83F800
003E01E000
0000000000
0000000000
0000000000
0000000000
ENDCHAR

STARTCHAR A3A7
ENCODING 41895
SWIDTH 960 0
DWIDTH 34 0
BBX 34 34 0 -8
BITMAP
0000000000
0000000000
0070000000
00F0000000
00F0000000
01E0000000
01C0000000
01C0000000
0380000000
0300000000
0600000000
0400000000
0800000000
0000000000
0000000000
0000000000
0000000000
0000000000
0000000000
0000000000
0000000000
0000000000
0000000000
0000000000
0000000000
0000000000
0000000000
0000000000
0000000000
0000000000
0000000000
0000000000
0000000000
0000000000
ENDCHAR

STARTCHAR A3A8
ENCODING 41896
SWIDTH 960 0
DWIDTH 34 0
BBX 34 34 0 -8
BITMAP
0000000000
0000000000
0000000800
0000001000
0000002000
0000006000
000000C000
000000C000
0000018000
0000018000
0000030000
0000030000
0000030000
0000060000
0000060000
0000060000
0000060000
0000060000
0000060000
0000060000
0000060000
0000030000
0000030000
0000030000
0000018000
0000018000
000000C000
000000C000
0000006000
0000002000
0000001000
0000000800
0000000000
0000000000
ENDCHAR

STARTCHAR A3A9
ENCODING 41897
SWIDTH 960 0
DWIDTH 34 0
BBX 34 34 0 -8
BITMAP
0000000000
0000000000
0400000000
0200000000
0100000000
0180000000
00C0000000
00C0000000
0060000000
0060000000
0030000000
0030000000
0030000000
0018000000
0018000000
0018000000
0018000000
0018000000
0018000000
0018000000
0018000000
0030000000
0030000000
0030000000
0060000000
0060000000
00C0000000
00C0000000
0180000000
0100000000
0200000000
0400000000
0000000000
0000000000
ENDCHAR

STARTCHAR A3AA
ENCODING 41898
SWIDTH 960 0
DWIDTH 34 0
BBX 34 34 0 -8
BITMAP
0000000000
0000000000
0000000000
0000000000
0000800000
0000800000
0000800000
0000800000
0000800000
0000800000
0000800000
0400801000
0300806000
00C0818000
0030860000
000C980000
0002A00000
0001C00000
0001400000
0002200000
0004100000
0008080000
0010040000
0020020000
0040010000
0080008000
0100004000
0200002000
0000000000
0000000000
0000000000
0000000000
0000000000
0000000000
ENDCHAR

STARTCHAR A3AB
ENCODING 41899
SWIDTH 960 0
DWIDTH 34 0
BBX 34 34 0 -8
BITMAP
0000000000
0000000000
0000000000
0000000000
0000000000
0000800000
0000800000
0000800000
0000800000
0000800000
0000800000
0000800000
0000800000
0000800000
0000800000
0000800000
07FFFFF000
0000800000
0000800000
0000800000
0000800000
0000800000
0000800000
0000800000
0000800000
0000800000
0000800000
0000800000
0000000000
0000000000
0000000000
0000000000
0000000000
0000000000
ENDCHAR

STARTCHAR A3AC
ENCODING 41900
SWIDTH 960 0
DWIDTH 34 0
BBX 34 34 0 -8
BITMAP
0000000000
0000000000
0000000000
0000000000
0000000000
0000000000
0000000000
0000000000
0000000000
0000000000
0000000000
0000000000
0000000000
0000000000
0000000000
0000000000
0000000000
0000000000
0000000000
0000000000
0000000000
0000000000
0000000000
0000000000
0000000000
00C0000000
01E0000000
01E0000000
00E0000000
0060000000
0040000000
0080000000
0100000000
0000000000
ENDCHAR

STARTCHAR A3AD
ENCODING 41901
SWIDTH 960 0
DWIDTH 34 0
BBX 34 34 0 -8
BITMAP
0000000000
0000000000
0000000000
0000000000
0000000000
0000000000
0000000000
0000000000
0000000000
0000000000
0000000000
0000000000
0000000000
0000000000
0000000000
0000000000
03FFFFF000
0000000000
0000000000
0000000000
0000000000
0000000000
0000000000
0000000000
0000000000
0000000000
0000000000
0000000000
0000000000
0000000000
0000000000
0000000000
0000000000
0000000000
ENDCHAR

STARTCHAR A3AE
ENCODING 41902
SWIDTH 960 0
DWIDTH 34 0
BBX 34 34 0 -8
BITMAP
0000000000
0000000000
0000000000
0000000000
0000000000
0000000000
0000000000
0000000000
0000000000
0000000000
0000000000
0000000000
0000000000
0000000000
0000000000
0000000000
0000000000
0000000000
0000000000
0000000000
0000000000
0000000000
0000000000
0000000000
0000000000
00C0000000
01E0000000
01E0000000
00C0000000
0000000000
0000000000
0000000000
0000000000
0000000000
ENDCHAR

STARTCHAR A3AF
ENCODING 41903
SWIDTH 960 0
DWIDTH 34 0
BBX 34 34 0 -8
BITMAP
0000000000
0000000000
0000000100
0000000200
0000000400
0000000800
0000001000
0000002000
0000004000
0000008000
0000010000
0000020000
0000040000
0000080000
0000100000
0000200000
0000400000
0000800000
0001000000
0002000000
0004000000
0008000000
0010000000
0020000000
0040000000
0080000000
0100000000
0200000000
0400000000
0800000000
1000000000
2000000000
0000000000
0000000000
ENDCHAR

STARTCHAR A3B0
ENCODING 41904
SWIDTH 960 0
DWIDTH 34 0
BBX 34 34 0 -8
BITMAP
0000000000
0000000000
0000000000
0003F00000
000E1C0000
0038070000
0070038000
0060018000
00E001C000
00E001C000
00E001C000
00E001C000
00E001C000
00E001C000
00E001C000
00E001C000
00E001C000
00E001C000
00E001C000
00E001C000
00E001C000
00E001C000
0060018000
0070038000
003C0F0000
000E1C0000
0003F00000
0000000000
0000000000
0000000000
0000000000
0000000000
0000000000
0000000000
ENDCHAR

STARTCHAR A3B1
ENCODING 41905
SWIDTH 960 0
DWIDTH 34 0
BBX 34 34 0 -8
BITMAP
0000000000
0000000000
0000000000
0000C00000
0001C00000
0007C00000
000FC00000
0001C00000
0001C00000
0001C00000
0001C00000
0001C00000
0001C00000
0001C00000
0001C00000
0001C00000
0001C00000
0001C00000
0001C00000
0001C00000
0001C00000
0001C00000
0001C00000
0001C00000
0001C00000
0003E00000
001FFC0000
0000000000
0000000000
0000000000
0000000000
0000000000
0000000000
0000000000
ENDCHAR

STARTCHAR A3B2
ENCODING 41906
SWIDTH 960 0
DWIDTH 34 0
BBX 34 34 0 -8
BITMAP
0000000000
0000000000
0000000000
0007E00000
001C380000
00780E0000
00F0070000
00E0038000
01C0038000
01C0038000
03C0038000
03C0038000
03C0070000
01800F0000
00001E0000
00003C0000
0000780000
0000F00000
0003C00000
0007800000
001E000000
003C000000
00F0002000
01E0002000
03C0006000
038000E000
03FFFFE000
0000000000
0000000000
0000000000
0000000000
0000000000
0000000000
0000000000
ENDCHAR

STARTCHAR A3B3
ENCODING 41907
SWIDTH 960 0
DWIDTH 34 0
BBX 34 34 0 -8
BITMAP
0000000000
0000000000
0000000000
0007FC0000
001E0F0000
0038078000
007003C000
00E003C000
00E003C000
00E003C000
00E0038000
0040070000
00000E0000
0001FC0000
00001F0000
000007C000
000003E000
000000E000
000000F000
018000F000
03C000F000
03C000F000
03C001E000
01E001E000
006003C000
007C0F0000
001FFC0000
0000000000
0000000000
0000000000
0000000000
0000000000
0000000000
0000000000
ENDCHAR

STARTCHAR A3B4
ENCODING 41908
SWIDTH 960 0
DWIDTH 34 0
BBX 34 34 0 -8
BITMAP
0000000000
0000000000
0000000000
00001F0000
00003F0000
0000770000
0000E70000
0000E70000
0001C70000
0003870000
0007070000
0006070000
000C070000
0018070000
0030070000
0060070000
00C0070000
0180070000
0300070000
0600070000
0600070000
07FFFFF800
0000070000
0000070000
0000070000
00000F8000
00007FF000
0000000000
0000000000
0000000000
0000000000
0000000000
0000000000
0000000000
ENDCHAR

STARTCHAR A3B5
ENCODING 41909
SWIDTH 960 0
DWIDTH 34 0
BBX 34 34 0 -8
BITMAP
0000000000
0000000000
0000000000
00FFFFE000
00E000E000
00E0006000
00E0002000
00E0002000
00E0000000
00E0000000
00E0000000
00E1FC0000
00E60F0000
00F803C000
00E001E000
0000006000
0000007000
0000007000
0000007000
0180007000
03C0007000
03C0007000
01C000E000
01E000E000
00F001C000
007C078000
001FFE0000
0000000000
0000000000
0000000000
0000000000
0000000000
0000000000
0000000000
ENDCHAR

STARTCHAR A3B6
ENCODING 41910
SWIDTH 960 0
DWIDTH 34 0
BBX 34 34 0 -8
BITMAP
0000000000
0000000000
0000000000
0001FF0000
0007C00000
001E000000
0078000000
00F0000000
01E0000000
01C0000000
0380000000
0380000000
0383FE0000
038F0F8000
039C01C000
03B000E000
03C0007000
0380007000
0380007000
0380007000
0380007000
01C0007000
01C0007000
00E000E000
00F001C000
007C070000
001FFE0000
0000000000
0000000000
0000000000
0000000000
0000000000
0000000000
0000000000
ENDCHAR

STARTCHAR A3B7
ENCODING 41911
SWIDTH 960 0
DWIDTH 34 0
BBX 34 34 0 -8
BITMAP
0000000000
0000000000
0000000000
03FFFFF000
0380006000
030000E000
020000C000
020001C000
0000018000
0000038000
0000030000
0000070000
0000060000
00000E0000
00000E0000
00001C0000
00001C0000
00003C0000
0000380000
0000380000
0000780000
0000700000
0000F00000
0000F00000
0000F00000
0001E00000
0001E00000
0000000000
0000000000
0000000000
0000000000
0000000000
0000000000
0000000000
ENDCHAR

STARTCHAR A3B8
ENCODING 41912
SWIDTH 960 0
DWIDTH 34 0
BBX 34 34 0 -8
BITMAP
0000000000
0000000000
0000000000
000FFC0000
003C0F0000
0070038000
00E001C000
00E001C000
00E001C000
00E001C000
00E001C000
0070038000
003C0F0000
000FFC0000
001C0E0000
0070038000
00E001C000
01C000E000
0380007000
0380007000
0380007000
0380007000
0380007000
01C000E000
01E001E000
00FC0FC000
003FFF0000
0000000000
0000000000
0000000000
0000000000
0000000000
0000000000
0000000000
ENDCHAR

STARTCHAR A3B9
ENCODING 41913
SWIDTH 960 0
DWIDTH 34 0
BBX 34 34 0 -8
BITMAP
0000000000
0000000000
0000000000
001FFE0000
00780F8000
00F003C000
01C001E000
01C000F000
0380007000
0380007000
0380007000
0380007000
0380007000
01C000F000
01E0017000
00F0077000
007C1E7000
001FF87000
0000007000
0000007000
000000E000
000001E000
000003C000
0000078000
00001E0000
0000F80000
003FE00000
0000000000
0000000000
0000000000
0000000000
0000000000
0000000000
0000000000
ENDCHAR

STARTCHAR A3BA
ENCODING 41914
SWIDTH 960 0
DWIDTH 34 0
BBX 34 34 0 -8
BITMAP
0000000000
0000000000
0000000000
0000000000
0000000000
0000000000
0000000000
0000000000
0000000000
0000000000
0000000000
0000000000
0000000000
0000000000
0000000000
0000000000
0000000000
0000000000
00C0000000
01E0000000
01E0000000
00C0000000
0000000000
0000000000
0000000000
00C0000000
01E0000000
01E0000000
00C0000000
0000000000
0000000000
0000000000
0000000000
0000000000
ENDCHAR

STARTCHAR A3BB
ENCODING 41915
SWIDTH 960 0
DWIDTH 34 0
BBX 34 34 0 -8
BITMAP
0000000000
0000000000
0000000000
0000000000
0000000000
0000000000
0000000000
0000000000
0000000000
0000000000
0000000000
0000000000
0000000000
0000000000
0000000000
0000000000
0000000000
0000000000
00C0000000
01E0000000
01E0000000
00C0000000
0000000000
0000000000
0000000000
00C0000000
01E0000000
01E0000000
00E0000000
0060000000
0040000000
0080000000
0100000000
0000000000
ENDCHAR

STARTCHAR A3BC
ENCODING 41916
SWIDTH 960 0
DWIDTH 34 0
BBX 34 34 0 -8
BITMAP
0000000000
0000000000
0000000000
0000000000
0000001800
0000006000
0000018000
0000060000
0000180000
0000600000
0001800000
0006000000
0018000000
0060000000
0180000000
0600000000
0800000000
0600000000
0180000000
0060000000
0018000000
0006000000
0001800000
0000600000
0000180000
0000060000
0000018000
0000006000
0000001800
0000000000
0000000000
0000000000
0000000000
0000000000
ENDCHAR

STARTCHAR A3BD
ENCODING 41917
SWIDTH 960 0
DWIDTH 34 0
BBX 34 34 0 -8
BITMAP
0000000000
0000000000
0000000000
0000000000
0000000000
0000000000
0000000000
0000000000
0000000000
0000000000
0000000000
0000000000
0000000000
03FFFFF000
0000000000
0000000000
0000000000
0000000000
0000000000
0000000000
03FFFFF000
0000000000
0000000000
0000000000
0000000000
0000000000
0000000000
0000000000
0000000000
0000000000
0000000000
0000000000
0000000000
0000000000
ENDCHAR

STARTCHAR A3BE
ENCODING 41918
SWIDTH 960 0
DWIDTH 34 0
BBX 34 34 0 -8
BITMAP
0000000000
0000000000
0000000000
0000000000
0600000000
0180000000
0060000000
0018000000
0006000000
0001800000
0000600000
0000180000
0000060000
0000018000
0000006000
0000001800
0000000400
0000001800
0000006000
0000018000
0000060000
0000180000
0000600000
0001800000
0006000000
0018000000
0060000000
0180000000
0600000000
0000000000
0000000000
0000000000
0000000000
0000000000
ENDCHAR

STARTCHAR A3BF
ENCODING 41919
SWIDTH 960 0
DWIDTH 34 0
BBX 34 34 0 -8
BITMAP
0000000000
0000000000
0000000000
0000000000
001F000000
007FC00000
00C0600000
0180700000
0180300000
01C0300000
01C0300000
0080600000
0000600000
0000C00000
0003800000
000E000000
000C000000
000C000000
000C000000
000C000000
000C000000
000C000000
0000000000
0000000000
0000000000
000C000000
001E000000
001E000000
000C000000
0000000000
0000000000
0000000000
0000000000
0000000000
ENDCHAR

STARTCHAR A3C0
ENCODING 41920
SWIDTH 960 0
DWIDTH 34 0
BBX 34 34 0 -8
BITMAP
0000000000
0000000000
0000000000
001FFC0000
007FFF0000
01E0038000
018001C000
020001C000
000000E000
000000E000
000000E000
003F20E000
0061E0E000
00C0E0E000
00C060E000
018060E000
018060E000
018060E000
018060E000
018060E000
018060E000
018060E000
018060E000
00C060E000
00E0B0E000
007199C000
003F0F0000
0000000000
0000000000
0000000000
0000000000
0000000000
0000000000
0000000000
ENDCHAR

STARTCHAR A3C1
ENCODING 41921
SWIDTH 960 0
DWIDTH 34 0
BBX 34 34 0 -8
BITMAP
0000000000
0000000000
0000000000
0000E00000
0001F00000
0001700000
0003700000
0002380000
0002380000
0004380000
00041C0000
000C1C0000
00081E0000
00080E0000
00100E0000
0010070000
0030070000
0020078000
007FFF8000
0040038000
004003C000
008001C000
008001E000
018000E000
010000F000
078000F800
1FF00FFE00
0000000000
0000000000
0000000000
0000000000
0000000000
0000000000
0000000000
ENDCHAR

STARTCHAR A3C2
ENCODING 41922
SWIDTH 960 0
DWIDTH 34 0
BBX 34 34 0 -8
BITMAP
0000000000
0000000000
0000000000
01FFFE0000
0078078000
003803C000
003801C000
003801C000
003801C000
003801C000
003801C000
0038018000
0038030000
0038060000
003FFF0000
003803C000
003800E000
0038006000
0038007000
0038007000
0038007000
0038007000
0038007000
0038006000
003800E000
007803C000
03FFFF0000
0000000000
0000000000
0000000000
0000000000
0000000000
0000000000
0000000000
ENDCHAR

STARTCHAR A3C3
ENCODING 41923
SWIDTH 960 0
DWIDTH 34 0
BBX 34 34 0 -8
BITMAP
0000000000
0000000000
0000000000
0003FC2000
000E072000
001C01E000
003000E000
0070006000
00E0003000
00E0003000
01C0001000
01C0001000
01C0000000
01C0000000
01C0000000
01C0000000
01C0000000
01C0000000
01C0000000
01C0000000
00E0000000
00E0001000
0070001000
0070006000
001C01C000
000E070000
0003FC0000
0000000000
0000000000
0000000000
0000000000
0000000000
0000000000
0000000000
ENDCHAR

STARTCHAR A3C4
ENCODING 41924
SWIDTH 960 0
DWIDTH 34 0
BBX 34 34 0 -8
BITMAP
0000000000
0000000000
0000000000
07FFFC0000
00F03F0000
0070078000
007001E000
007000F000
0070007000
0070007000
0070003800
0070003800
0070003800
0070003800
0070003800
0070003800
0070003800
0070003800
0070003800
0070003800
0070007000
0070007000
007000E000
007001C000
0070078000
00F03F0000
07FFFC0000
0000000000
0000000000
0000000000
0000000000
0000000000
0000000000
0000000000
ENDCHAR

STARTCHAR A3C5
ENCODING 41925
SWIDTH 960 0
DWIDTH 34 0
BBX 34 34 0 -8
BITMAP
0000000000
0000000000
0000000000
03FFFFE000
007C00E000
0038006000
0038002000
0038002000
0038000000
0038000000
0038020000
0038020000
0038020000
0038060000
003FFE0000
0038060000
0038020000
0038020000
0038020000
0038000000
0038000000
0038001000
0038001000
0038003000
0038003000
007C007000
03FFFFF000
0000000000
0000000000
0000000000
0000000000
0000000000
0000000000
0000000000
ENDCHAR

STARTCHAR A3C6
ENCODING 41926
SWIDTH 960 0
DWIDTH 34 0
BBX 34 34 0 -8
BITMAP
0000000000
0000000000
0000000000
03FFFFE000
007C00E000
0038006000
0038006000
0038002000
0038002000
0038000000
0038020000
0038020000
0038020000
0038060000
003FFE0000
0038060000
0038020000
0038020000
0038020000
0038000000
0038000000
0038000000
0038000000
0038000000
0038000000
007C000000
03FF800000
0000000000
0000000000
0000000000
0000000000
0000000000
0000000000
0000000000
ENDCHAR

STARTCHAR A3C7
ENCODING 41927
SWIDTH 960 0
DWIDTH 34 0
BBX 34 34 0 -8
BITMAP
0000000000
0000000000
0000000000
0007F84000
001C1E4000
007803C000
00E001C000
01C000C000
0380004000
0380006000
0700002000
0700002000
0700000000
0700000000
0700000000
07000FFE00
070001F000
070000E000
070000E000
078000E000
038000E000
03C000E000
01E001E000
00F0038000
0078078000
003C1E0000
000FF80000
0000000000
0000000000
0000000000
0000000000
0000000000
0000000000
0000000000
ENDCHAR

STARTCHAR A3C8
ENCODING 41928
SWIDTH 960 0
DWIDTH 34 0
BBX 34 34 0 -8
BITMAP
0000000000
0000000000
0000000000
1FF807FE00
03E001F000
01C000E000
01C000E000
01C000E000
01C000E000
01C000E000
01C000E000
01C000E000
01C000E000
01C000E000
01FFFFE000
01C000E000
01C000E000
01C000E000
01C000E000
01C000E000
01C000E000
01C000E000
01C000E000
01C000E000
01C000E000
03E001F000
1FF807FE00
0000000000
0000000000
0000000000
0000000000
0000000000
0000000000
0000000000
ENDCHAR

STARTCHAR A3C9
ENCODING 41929
SWIDTH 960 0
DWIDTH 34 0
BBX 34 34 0 -8
BITMAP
0000000000
0000000000
0000000000
001FFC0000
0003E00000
0001C00000
0001C00000
0001C00000
0001C00000
0001C00000
0001C00000
0001C00000
0001C00000
0001C00000
0001C00000
0001C00000
0001C00000
0001C00000
0001C00000
0001C00000
0001C00000
0001C00000
0001C00000
0001C00000
0001C00000
0003E00000
001FFC0000
0000000000
0000000000
0000000000
0000000000
0000000000
0000000000
0000000000
ENDCHAR

STARTCHAR A3CA
ENCODING 41930
SWIDTH 960 0
DWIDTH 34 0
BBX 34 34 0 -8
BITMAP
0000000000
0000000000
0000000000
001FFF0000
0001F00000
0000E00000
0000E00000
0000E00000
0000E00000
0000E00000
0000E00000
0000E00000
0000E00000
0000E00000
0000E00000
0000E00000
0000E00000
0000E00000
0000E00000
0000E00000
00C0E00000
01E0E00000
01E0E00000
01E0E00000
00E1C00000
0073800000
003F000000
0000000000
0000000000
0000000000
0000000000
0000000000
0000000000
0000000000
ENDCHAR

STARTCHAR A3CB
ENCODING 41931
SWIDTH 960 0
DWIDTH 34 0
BBX 34 34 0 -8
BITMAP
0000000000
0000000000
0000000000
07FE3FF000
01F0038000
00E0060000
00E00C0000
00E0180000
00E0300000
00E0600000
00E0C00000
00E1800000
00E3000000
00E7800000
00EFC00000
00F9C00000
00F0E00000
00E0F00000
00E0780000
00E03C0000
00E03C0000
00E01E0000
00E00F0000
00E0078000
00E003C000
01F003E000
07FE0FFC00
0000000000
0000000000
0000000000
0000000000
0000000000
0000000000
0000000000
ENDCHAR

STARTCHAR A3CC
ENCODING 41932
SWIDTH 960 0
DWIDTH 34 0
BBX 34 34 0 -8
BITMAP
0000000000
0000000000
0000000000
03FF800000
007C000000
0038000000
0038000000
0038000000
0038000000
0038000000
0038000000
0038000000
0038000000
0038000000
0038000000
0038000000
0038000000
0038000000
0038002000
0038002000
0038006000
0038006000
0038004000
003800C000
003801C000
007C03C000
03FFFFC000
0000000000
0000000000
0000000000
0000000000
0000000000
0000000000
0000000000
ENDCHAR

STARTCHAR A3CD
ENCODING 41933
SWIDTH 960 0
DWIDTH 34 0
BBX 34 34 0 -8
BITMAP
0000000000
0000000000
0000000000
1FC000FE00
07C000F800
03E0017000
02E0017000
02E0017000
0270027000
0270027000
0270027000
0238047000
0238047000
0238047000
021C087000
021C087000
021C087000
020E107000
020E107000
020E207000
0207207000
0207407000
0207C07000
0203C07000
0203807000
070180F800
1FC103FE00
0000000000
0000000000
0000000000
0000000000
0000000000
0000000000
0000000000
ENDCHAR

STARTCHAR A3CE
ENCODING 41934
SWIDTH 960 0
DWIDTH 34 0
BBX 34 34 0 -8
BITMAP
0000000000
0000000000
0000000000
0FC003FE00
03C0007000
01E0002000
00F0002000
00F8002000
00BC002000
009E002000
008F002000
0087802000
0083C02000
0081E02000
0080F02000
0080782000
00803C2000
00801E2000
00800F2000
008007A000
008003E000
008001E000
008000E000
008000E000
0080006000
01C0002000
0FF8002000
0000000000
0000000000
0000000000
0000000000
0000000000
0000000000
0000000000
ENDCHAR

STARTCHAR A3CF
ENCODING 41935
SWIDTH 960 0
DWIDTH 34 0
BBX 34 34 0 -8
BITMAP
0000000000
0000000000
0000000000
0003F00000
001C0E0000
0070038000
00C000C000
0180006000
0300003000
0600001800
0600001800
0E00001C00
0E00001C00
0E00001C00
0E00001C00
0E00001C00
0E00001C00
0E00001C00
0E00001C00
0600001800
0600001800
0300003000
0180006000
00C000C000
0070038000
001C0E0000
0003F00000
0000000000
0000000000
0000000000
0000000000
0000000000
0000000000
0000000000
ENDCHAR

STARTCHAR A3D0
ENCODING 41936
SWIDTH 960 0
DWIDTH 34 0
BBX 34 34 0 -8
BITMAP
0000000000
0000000000
0000000000
07FFFE0000
00F0038000
007001C000
007000E000
007000E000
007000E000
007000E000
007000E000
007000E000
007001C000
0070038000
007FFE0000
0070000000
0070000000
0070000000
0070000000
0070000000
0070000000
0070000000
0070000000
0070000000
0070000000
00F8000000
07FF000000
0000000000
0000000000
0000000000
0000000000
0000000000
0000000000
0000000000
ENDCHAR

STARTCHAR A3D1
ENCODING 41937
SWIDTH 960 0
DWIDTH 34 0
BBX 34 34 0 -8
BITMAP
0000000000
0000000000
0000000000
0007F80000
001C0E0000
0070038000
00C000C000
01C000E000
0380007000
0300003000
0700003800
0700003800
0700003800
0700003800
0700003800
0700003800
0700003800
0700003800
0700003800
0701E03800
0307F03000
038E387000
01DC0CE000
00D806C200
0078038200
001C0FC400
0007F8FC00
0000007800
0000000000
0000000000
0000000000
0000000000
0000000000
0000000000
ENDCHAR

STARTCHAR A3D2
ENCODING 41938
SWIDTH 960 0
DWIDTH 34 0
BBX 34 34 0 -8
BITMAP
0000000000
0000000000
0000000000
07FFFE0000
00F0038000
007001C000
007000E000
007000E000
007000E000
007000E000
007000E000
007000E000
007001C000
0070038000
007FFE0000
0070F00000
0070780000
00703C0000
00703C0000
00701E0000
00701E0000
00700F0000
0070078000
007007C000
007003E000
00F801F800
07FF01FC00
0000000000
0000000000
0000000000
0000000000
0000000000
0000000000
0000000000
ENDCHAR

STARTCHAR A3D3
ENCODING 41939
SWIDTH 960 0
DWIDTH 34 0
BBX 34 34 0 -8
BITMAP
0000000000
0000000000
0000000000
001FF84000
003C0E4000
007003C000
00E001C000
00C000C000
01C0004000
01C0004000
01E0004000
00F0000000
007E000000
003FC00000
000FF80000
0003FE0000
00007F0000
00000F8000
010003C000
010001C000
010001C000
018001C000
018001C000
01C003C000
01F0078000
011E0F0000
0103FC0000
0000000000
0000000000
0000000000
0000000000
0000000000
0000000000
0000000000
ENDCHAR

STARTCHAR A3D4
ENCODING 41940
SWIDTH 960 0
DWIDTH 34 0
BBX 34 34 0 -8
BITMAP
0000000000
0000000000
0000000000
01FFFFF000
01C0E07000
0180E03000
0300E01800
0200E00800
0200E00800
0000E00000
0000E00000
0000E00000
0000E00000
0000E00000
0000E00000
0000E00000
0000E00000
0000E00000
0000E00000
0000E00000
0000E00000
0000E00000
0000E00000
0000E00000
0000E00000
0001F00000
000FFE0000
0000000000
0000000000
0000000000
0000000000
0000000000
0000000000
0000000000
ENDCHAR

STARTCHAR A3D5
ENCODING 41941
SWIDTH 960 0
DWIDTH 34 0
BBX 34 34 0 -8
BITMAP
0000000000
0000000000
0000000000
0FFE07FC00
01F000E000
00E0004000
00E0004000
00E0004000
00E0004000
00E0004000
00E0004000
00E0004000
00E0004000
00E0004000
00E0004000
00E0004000
00E0004000
00E0004000
00E0004000
00E0004000
00E0004000
00E0004000
00F0004000
0070008000
0038018000
001E070000
000FFC0000
0000000000
0000000000
0000000000
0000000000
0000000000
0000000000
0000000000
ENDCHAR

STARTCHAR A3D6
ENCODING 41942
SWIDTH 960 0
DWIDTH 34 0
BBX 34 34 0 -8
BITMAP
0000000000
0000000000
0000000000
0FFC03FC00
01E0007000
00E0006000
00E000C000
007000C000
0070008000
0070018000
0038010000
0038030000
0038020000
001C060000
001C040000
001C040000
000E080000
000E080000
000E080000
0007100000
0007100000
0007300000
0003A00000
0003A00000
0001E00000
0001C00000
0001C00000
0000000000
0000000000
0000000000
0000000000
0000000000
0000000000
0000000000
ENDCHAR

STARTCHAR A3D7
ENCODING 41943
SWIDTH 960 0
DWIDTH 34 0
BBX 34 34 0 -8
BITMAP
0000000000
0000000000
0000000000
3FE7FC7F00
0F01E00C00
0600C00800
0600C01800
0700E01000
0300E01000
0301701000
0381302000
0181302000
0181302000
0182302000
01C2384000
00C2184000
00C2184000
00C4188000
00E41C8000
00640C8000
00680D0000
00680D0000
00780F0000
0030060000
0030060000
0030060000
0030060000
0000000000
0000000000
0000000000
0000000000
0000000000
0000000000
0000000000
ENDCHAR

STARTCHAR A3D8
ENCODING 41944
SWIDTH 960 0
DWIDTH 34 0
BBX 34 34 0 -8
BITMAP
0000000000
0000000000
0000000000
1FFC03FE00
03E0003800
01C0003000
00E0006000
007000C000
0038018000
001C030000
000E060000
00070C0000
0003980000
0001F00000
0001E00000
0000E00000
0000F00000
0001B80000
00031C0000
00060E0000
000C070000
0018038000
003001C000
006000E000
00C0007000
01C000F800
1FFC03FE00
0000000000
0000000000
0000000000
0000000000
0000000000
0000000000
0000000000
ENDCHAR

STARTCHAR A3D9
ENCODING 41945
SWIDTH 960 0
DWIDTH 34 0
BBX 34 34 0 -8
BITMAP
0000000000
0000000000
0000000000
07FC01FC00
01E0007000
00F0006000
007000C000
0078008000
003C018000
001C010000
001E030000
000F020000
0007840000
00078C0000
0003C80000
0001F00000
0000E00000
0000E00000
0000E00000
0000E00000
0000E00000
0000E00000
0000E00000
0000E00000
0000E00000
0001F00000
001FFF0000
0000000000
0000000000
0000000000
0000000000
0000000000
0000000000
0000000000
ENDCHAR

STARTCHAR A3DA
ENCODING 41946
SWIDTH 960 0
DWIDTH 34 0
BBX 34 34 0 -8
BITMAP
0000000000
0000000000
0000000000
01FFFFF000
01C001E000
018003C000
0100078000
0300070000
02000E0000
02001E0000
00003C0000
0000780000
0000700000
0000F00000
0001E00000
0003C00000
0007800000
0007000000
000E000000
001C000000
0038001000
0070001000
00F0003000
01E0002000
01E0006000
03C000E000
03FFFFE000
0000000000
0000000000
0000000000
0000000000
0000000000
0000000000
0000000000
ENDCHAR

STARTCHAR A3DB
ENCODING 41947
SWIDTH 960 0
DWIDTH 34 0
BBX 34 34 0 -8
BITMAP
0000000000
0000000000
000007F800
0000040000
0000040000
0000040000
0000040000
0000040000
0000040000
0000040000
0000040000
0000040000
0000040000
0000040000
0000040000
0000040000
0000040000
0000040000
0000040000
0000040000
0000040000
0000040000
0000040000
0000040000
0000040000
0000040000
0000040000
0000040000
0000040000
0000040000
0000040000
000007F800
0000000000
0000000000
ENDCHAR

STARTCHAR A3DC
ENCODING 41948
SWIDTH 960 0
DWIDTH 34 0
BBX 34 34 0 -8
BITMAP
0000000000
0000000000
2000000000
1000000000
0800000000
0400000000
0200000000
0100000000
0080000000
0040000000
0020000000
0010000000
0008000000
0004000000
0002000000
0001000000
0000800000
0000400000
0000200000
0000100000
0000080000
0000040000
0000020000
0000010000
0000008000
0000004000
0000002000
0000001000
0000000800
0000000400
0000000200
0000000100
0000000000
0000000000
ENDCHAR

STARTCHAR A3DD
ENCODING 41949
SWIDTH 960 0
DWIDTH 34 0
BBX 34 34 0 -8
BITMAP
0000000000
0000000000
07F8000000
0008000000
0008000000
0008000000
0008000000
0008000000
0008000000
0008000000
0008000000
0008000000
0008000000
0008000000
0008000000
0008000000
0008000000
0008000000
0008000000
0008000000
0008000000
0008000000
0008000000
0008000000
0008000000
0008000000
0008000000
0008000000
0008000000
0008000000
0008000000
07F8000000
0000000000
0000000000
ENDCHAR

STARTCHAR A3DE
ENCODING 41950
SWIDTH 960 0
DWIDTH 34 0
BBX 34 34 0 -8
BITMAP
0000000000
0000000000
0000000000
0000000000
0000800000
0001C00000
0001400000
0002200000
0002200000
0004100000
0004100000
0008080000
0008080000
0000000000
0000000000
0000000000
0000000000
0000000000
0000000000
0000000000
0000000000
0000000000
0000000000
0000000000
0000000000
0000000000
0000000000
0000000000
0000000000
0000000000
0000000000
0000000000
0000000000
0000000000
ENDCHAR

STARTCHAR A3DF
ENCODING 41951
SWIDTH 960 0
DWIDTH 34 0
BBX 34 34 0 -8
BITMAP
0000000000
0000000000
0000000000
0000000000
0000000000
0000000000
0000000000
0000000000
0000000000
0000000000
0000000000
0000000000
0000000000
0000000000
0000000000
0000000000
0000000000
0000000000
0000000000
0000000000
0000000000
0000000000
0000000000
0000000000
0000000000
0000000000
0000000000
0000000000
0000000000
0000000000
0000000000
0000000000
7FFFFFFF80
0000000000
ENDCHAR

STARTCHAR A3E0
ENCODING 41952
SWIDTH 960 0
DWIDTH 34 0
BBX 34 34 0 -8
BITMAP
0000000000
0000000000
0000038000
000003C000
000003C000
000001E000
000000E000
000000E000
0000007000
0000003000
0000001800
0000000800
0000000400
0000000000
0000000000
0000000000
0000000000
0000000000
0000000000
0000000000
0000000000
0000000000
0000000000
0000000000
0000000000
0000000000
0000000000
0000000000
0000000000
0000000000
0000000000
0000000000
0000000000
0000000000
ENDCHAR

STARTCHAR A3E1
ENCODING 41953
SWIDTH 960 0
DWIDTH 34 0
BBX 34 34 0 -8
BITMAP
0000000000
0000000000
0000000000
0000000000
0000000000
0000000000
0000000000
0000000000
0000000000
0000000000
0003F00000
000E780000
001C1C0000
00380C0000
00380C0000
00180C0000
00000C0000
0001FC0000
00078C0000
000E0C0000
00180C0000
00380C0000
00301C0000
00306C0000
0030CC8000
003F8F0000
001F060000
0000000000
0000000000
0000000000
0000000000
0000000000
0000000000
0000000000
ENDCHAR

STARTCHAR A3E2
ENCODING 41954
SWIDTH 960 0
DWIDTH 34 0
BBX 34 34 0 -8
BITMAP
0000000000
0008000000
0018000000
0078000000
0018000000
0018000000
0018000000
0018000000
0018000000
0018000000
0018F00000
0019980000
001A0C0000
001C060000
0018060000
0018060000
0018060000
0018060000
0018060000
0018060000
0018060000
0018060000
0018060000
001C060000
001A0C0000
0019980000
0010F00000
0000000000
0000000000
0000000000
0000000000
0000000000
0000000000
0000000000
ENDCHAR

STARTCHAR A3E3
ENCODING 41955
SWIDTH 960 0
DWIDTH 34 0
BBX 34 34 0 -8
BITMAP
0000000000
0000000000
0000000000
0000000000
0000000000
0000000000
0000000000
0000000000
0000000000
0000000000
0003F80000
000E1C0000
001C0E0000
00180E0000
00380E0000
0030060000
0030000000
0030000000
0030000000
0030000000
0030010000
0030010000
0038020000
0018060000
001C060000
000E1C0000
0003F80000
0000000000
0000000000
0000000000
0000000000
0000000000
0000000000
0000000000
ENDCHAR

STARTCHAR A3E4
ENCODING 41956
SWIDTH 960 0
DWIDTH 34 0
BBX 34 34 0 -8
BITMAP
0000000000
0000040000
00000C0000
00003C0000
00000C0000
00000C0000
00000C0000
00000C0000
00000C0000
00000C0000
0007CC0000
000C6C0000
00183C0000
00381C0000
00300C0000
00300C0000
00300C0000
00300C0000
00300C0000
00300C0000
00300C0000
00300C0000
00300C0000
00381C0000
00182F0000
000CCC0000
0007880000
0000000000
0000000000
0000000000
0000000000
0000000000
0000000000
0000000000
ENDCHAR

STARTCHAR A3E5
ENCODING 41957
SWIDTH 960 0
DWIDTH 34 0
BBX 34 34 0 -8
BITMAP
0000000000
0000000000
0000000000
0000000000
0000000000
0000000000
0000000000
0000000000
0000000000
0000000000
0007E00000
000E300000
0018180000
00300C0000
00300C0000
00300C0000
00300C0000
003FFC0000
0030000000
0030000000
0030000000
0030000000
0030040000
0018040000
0018080000
000C180000
0007F00000
0000000000
0000000000
0000000000
0000000000
0000000000
0000000000
0000000000
ENDCHAR

STARTCHAR A3E6
ENCODING 41958
SWIDTH 960 0
DWIDTH 34 0
BBX 34 34 0 -8
BITMAP
0000000000
0000780000
0000DC0000
00018E0000
00018E0000
0001860000
0001800000
0001800000
0001800000
0001800000
001FF80000
0001800000
0001800000
0001800000
0001800000
0001800000
0001800000
0001800000
0001800000
0001800000
0001800000
0001800000
0001800000
0001800000
0001800000
0003C00000
000FF00000
0000000000
0000000000
0000000000
0000000000
0000000000
0000000000
0000000000
ENDCHAR

STARTCHAR A3E7
ENCODING 41959
SWIDTH 960 0
DWIDTH 34 0
BBX 34 34 0 -8
BITMAP
0000000000
0000000000
0000000000
0000000000
0000000000
0000000000
0000000000
0000000000
0000000000
0000000000
0003E20000
0006160000
000C0E0000
0018060000
0018060000
0018060000
0018060000
0018060000
0018060000
0018060000
0018060000
0018060000
000C0E0000
0006160000
0003E60000
0000060000
0000060000
0000060000
0000060000
0018060000
00180C0000
000C0C0000
0007F80000
0000000000
ENDCHAR

STARTCHAR A3E8
ENCODING 41960
SWIDTH 960 0
DWIDTH 34 0
BBX 34 34 0 -8
BITMAP
0000000000
0008000000
0018000000
0078000000
0018000000
0018000000
0018000000
0018000000
0018000000
0018000000
0019F80000
001B0C0000
001A060000
001C060000
0018060000
0018060000
0018060000
0018060000
0018060000
0018060000
0018060000
0018060000
0018060000
0018060000
0018060000
0018060000
007E0F0000
0000000000
0000000000
0000000000
0000000000
0000000000
0000000000
0000000000
ENDCHAR

STARTCHAR A3E9
ENCODING 41961
SWIDTH 960 0
DWIDTH 34 0
BBX 34 34 0 -8
BITMAP
0000000000
0000000000
0001800000
0003C00000
0003C00000
0001800000
0000000000
0000000000
0000000000
0000000000
0000400000
0000C00000
0001C00000
0007C00000
0000C00000
0000C00000
0000C00000
0000C00000
0000C00000
0000C00000
0000C00000
0000C00000
0000C00000
0000C00000
0000C00000
0000C00000
0003F00000
0000000000
0000000000
0000000000
0000000000
0000000000
0000000000
0000000000
ENDCHAR

STARTCHAR A3EA
ENCODING 41962
SWIDTH 960 0
DWIDTH 34 0
BBX 34 34 0 -8
BITMAP
0000000000
0000000000
0001800000
0003C00000
0003C00000
0001800000
0000000000
0000000000
0000000000
0000000000
0000400000
0000C00000
0001C00000
0007C00000
0000C00000
0000C00000
0000C00000
0000C00000
0000C00000
0000C00000
0000C00000
0000C00000
0000C00000
0000C00000
0000C00000
0000C00000
0000C00000
0000C00000
0018C00000
0038C00000
0038C00000
0019800000
000F000000
0000000000
ENDCHAR

STARTCHAR A3EB
ENCODING 41963
SWIDTH 960 0
DWIDTH 34 0
BBX 34 34 0 -8
BITMAP
0000000000
0008000000
0018000000
0078000000
0018000000
0018000000
0018000000
0018000000
0018000000
0018000000
00183E0000
00181C0000
0018300000
0018600000
0018800000
0019000000
001B800000
001DC00000
0018C00000
0018600000
0018600000
0018300000
0018380000
00181C0000
00180E0000
00180E0000
007F1F0000
0000000000
0000000000
0000000000
0000000000
0000000000
0000000000
0000000000
ENDCHAR

STARTCHAR A3EC
ENCODING 41964
SWIDTH 960 0
DWIDTH 34 0
BBX 34 34 0 -8
BITMAP
0000000000
0000400000
0000C00000
0001C00000
0003C00000
0000C00000
0000C00000
0000C00000
0000C00000
0000C00000
0000C00000
0000C00000
0000C00000
0000C00000
0000C00000
0000C00000
0000C00000
0000C00000
0000C00000
0000C00000
0000C00000
0000C00000
0000C00000
0000C00000
0000E60000
00007C0000
0000300000
0000000000
0000000000
0000000000
0000000000
0000000000
0000000000
0000000000
ENDCHAR

STARTCHAR A3ED
ENCODING 41965
SWIDTH 960 0
DWIDTH 34 0
BBX 34 34 0 -8
BITMAP
0000000000
0000000000
0000000000
0000000000
0000000000
0000000000
0000000000
0000000000
0000000000
0000000000
0020000000
0063870000
01E7CF8000
006CD98000
0068D18000
0070E18000
0060C18000
0060C18000
0060C18000
0060C18000
0060C18000
0060C18000
0060C18000
0060C18000
0060C18000
0060C18000
0060C18000
00F1E3C000
0000000000
0000000000
0000000000
0000000000
0000000000
0000000000
ENDCHAR

STARTCHAR A3EE
ENCODING 41966
SWIDTH 960 0
DWIDTH 34 0
BBX 34 34 0 -8
BITMAP
0000000000
0000000000
0000000000
0000000000
0000000000
0000000000
0000000000
0000000000
0000000000
0000000000
0008780000
0018CC0000
0079060000
001A060000
001C060000
0018060000
0018060000
0018060000
0018060000
0018060000
0018060000
0018060000
0018060000
0018060000
0018060000
0018060000
007E1F8000
0000000000
0000000000
0000000000
0000000000
0000000000
0000000000
0000000000
ENDCHAR

STARTCHAR A3EF
ENCODING 41967
SWIDTH 960 0
DWIDTH 34 0
BBX 34 34 0 -8
BITMAP
0000000000
0000000000
0000000000
0000000000
0000000000
0000000000
0000000000
0000000000
0000000000
0000000000
0003E00000
000C180000
0030060000
0030060000
0060030000
0060030000
00C0018000
00C0018000
00C0018000
00C0018000
00C0018000
0060030000
0060030000
0030060000
0030060000
000C180000
0003E00000
0000000000
0000000000
0000000000
0000000000
0000000000
0000000000
0000000000
ENDCHAR

STARTCHAR A3F0
ENCODING 41968
SWIDTH 960 0
DWIDTH 34 0
BBX 34 34 0 -8
BITMAP
0000000000
0000000000
0000000000
0000000000
0000000000
0000000000
0000000000
0000000000
0000000000
0000000000
0009F00000
001B180000
007C0C0000
00180E0000
0018060000
0018060000
0018060000
0018060000
0018060000
0018060000
0018060000
0018060000
0018060000
00180E0000
001C0C0000
001B180000
0019F00000
0018000000
0018000000
0018000000
0018000000
0018000000
007E000000
0000000000
ENDCHAR

STARTCHAR A3F1
ENCODING 41969
SWIDTH 960 0
DWIDTH 34 0
BBX 34 34 0 -8
BITMAP
0000000000
0000000000
0000000000
0000000000
0000000000
0000000000
0000000000
0000000000
0000000000
0000000000
0003E20000
0006360000
000C0E0000
001C060000
0018060000
0018060000
0018060000
0018060000
0018060000
0018060000
0018060000
0018060000
0018060000
001C060000
000C0E0000
0006360000
0003E60000
0000060000
0000060000
0000060000
0000060000
0000060000
00001F8000
0000000000
ENDCHAR

STARTCHAR A3F2
ENCODING 41970
SWIDTH 960 0
DWIDTH 34 0
BBX 34 34 0 -8
BITMAP
0000000000
0000000000
0000000000
0000000000
0000000000
0000000000
0000000000
0000000000
0000000000
0000000000
0000800000
00018E0000
00039F0000
000FA70000
0001C30000
0001800000
0001800000
0001800000
0001800000
0001800000
0001800000
0001800000
0001800000
0001800000
0001800000
0003C00000
000FF00000
0000000000
0000000000
0000000000
0000000000
0000000000
0000000000
0000000000
ENDCHAR

STARTCHAR A3F3
ENCODING 41971
SWIDTH 960 0
DWIDTH 34 0
BBX 34 34 0 -8
BITMAP
0000000000
0000000000
0000000000
0000000000
0000000000
0000000000
0000000000
0000000000
0000000000
0000000000
0007F20000
000C1A0000
00180E0000
0038060000
0030020000
0030000000
0018000000
000F000000
0007F00000
0001FC0000
00000E0000
0000060000
0020060000
0030060000
00380E0000
002E1C0000
0023F00000
0000000000
0000000000
0000000000
0000000000
0000000000
0000000000
0000000000
ENDCHAR

STARTCHAR A3F4
ENCODING 41972
SWIDTH 960 0
DWIDTH 34 0
BBX 34 34 0 -8
BITMAP
0000000000
0000000000
0000800000
0001800000
0007800000
0001800000
0001800000
0001800000
0001800000
0001800000
001FF80000
0001800000
0001800000
0001800000
0001800000
0001800000
0001800000
0001800000
0001800000
0001800000
0001800000
0001800000
0001810000
0001820000
0001C60000
0000FC0000
0000780000
0000000000
0000000000
0000000000
0000000000
0000000000
0000000000
0000000000
ENDCHAR

STARTCHAR A3F5
ENCODING 41973
SWIDTH 960 0
DWIDTH 34 0
BBX 34 34 0 -8
BITMAP
0000000000
0000000000
0000000000
0000000000
0000000000
0000000000
0000000000
0000000000
0000000000
0000000000
00781E0000
0018060000
0018060000
0018060000
0018060000
0018060000
0018060000
0018060000
0018060000
0018060000
0018060000
0018060000
0018060000
00180E0000
0018178000
000C660000
0007C40000
0000000000
0000000000
0000000000
0000000000
0000000000
0000000000
0000000000
ENDCHAR

STARTCHAR A3F6
ENCODING 41974
SWIDTH 960 0
DWIDTH 34 0
BBX 34 34 0 -8
BITMAP
0000000000
0000000000
0000000000
0000000000
0000000000
0000000000
0000000000
0000000000
0000000000
0000000000
00FC1FC000
0030060000
0018040000
0018040000
0018080000
000C080000
000C080000
000C100000
0006100000
0006100000
0006200000
0003200000
0003200000
0003400000
0001C00000
0001C00000
0001800000
0000000000
0000000000
0000000000
0000000000
0000000000
0000000000
0000000000
ENDCHAR

STARTCHAR A3F7
ENCODING 41975
SWIDTH 960 0
DWIDTH 34 0
BBX 34 34 0 -8
BITMAP
0000000000
0000000000
0000000000
0000000000
0000000000
0000000000
0000000000
0000000000
0000000000
0000000000
03E3E1F000
00C1C06000
00C0C04000
00C0C04000
0060C08000
0060608000
0060608000
0060E10000
0030B10000
0031310000
0031310000
00321A0000
003A1A0000
001C1E0000
001C0C0000
00180C0000
00180C0000
0000000000
0000000000
0000000000
0000000000
0000000000
0000000000
0000000000
ENDCHAR

STARTCHAR A3F8
ENCODING 41976
SWIDTH 960 0
DWIDTH 34 0
BBX 34 34 0 -8
BITMAP
0000000000
0000000000
0000000000
0000000000
0000000000
0000000000
0000000000
0000000000
0000000000
0000000000
00FC0FC000
0038030000
001C020000
000C060000
00060C0000
0003080000
0001900000
0001E00000
0000E00000
0000E00000
0001300000
0002180000
00040C0000
000C060000
0018030000
0030038000
00FC07C000
0000000000
0000000000
0000000000
0000000000
0000000000
0000000000
0000000000
ENDCHAR

STARTCHAR A3F9
ENCODING 41977
SWIDTH 960 0
DWIDTH 34 0
BBX 34 34 0 -8
BITMAP
0000000000
0000000000
0000000000
0000000000
0000000000
0000000000
0000000000
0000000000
0000000000
0000000000
00FC1FC000
0038030000
0018020000
001C020000
000C040000
000E040000
0006040000
0007080000
0003080000
0003900000
0001900000
0001E00000
0000E00000
0000400000
0000C00000
0000800000
0001000000
0001000000
0002000000
00C6000000
00EC000000
0078000000
0030000000
0000000000
ENDCHAR

STARTCHAR A3FA
ENCODING 41978
SWIDTH 960 0
DWIDTH 34 0
BBX 34 34 0 -8
BITMAP
0000000000
0000000000
0000000000
0000000000
0000000000
0000000000
0000000000
0000000000
0000000000
0000000000
003FFF8000
0030038000
0060030000
0040070000
00400E0000
00001C0000
0000380000
0000700000
0000E00000
0001C00000
0003800000
0007000000
000E008000
001C008000
0038018000
0070030000
007FFF0000
0000000000
0000000000
0000000000
0000000000
0000000000
0000000000
0000000000
ENDCHAR

STARTCHAR A3FB
ENCODING 41979
SWIDTH 960 0
DWIDTH 34 0
BBX 34 34 0 -8
BITMAP
0000000000
0000000000
0000001000
0000006000
000000C000
000000C000
0000018000
0000018000
0000018000
0000018000
0000018000
0000018000
0000018000
0000018000
0000018000
0000030000
00000C0000
0000030000
0000018000
0000018000
0000018000
0000018000
0000018000
0000018000
0000018000
0000018000
0000018000
0000018000
000000C000
000000C000
0000006000
0000001000
0000000000
0000000000
ENDCHAR

STARTCHAR A3FC
ENCODING 41980
SWIDTH 960 0
DWIDTH 34 0
BBX 34 34 0 -8
BITMAP
0000000000
0000000000
0000800000
0000800000
0000800000
0000800000
0000800000
0000800000
0000800000
0000800000
0000800000
0000800000
0000800000
0000800000
0000800000
0000800000
0000800000
0000800000
0000800000
0000800000
0000800000
0000800000
0000800000
0000800000
0000800000
0000800000
0000800000
0000800000
0000800000
0000800000
0000800000
0000800000
0000000000
0000000000
ENDCHAR

STARTCHAR A3FD
ENCODING 41981
SWIDTH 960 0
DWIDTH 34 0
BBX 34 34 0 -8
BITMAP
0000000000
0000000000
0200000000
0180000000
00C0000000
00C0000000
0060000000
0060000000
0060000000
0060000000
0060000000
0060000000
0060000000
0060000000
0060000000
0030000000
000C000000
0030000000
0060000000
0060000000
0060000000
0060000000
0060000000
0060000000
0060000000
0060000000
0060000000
0060000000
00C0000000
00C0000000
0180000000
0200000000
0000000000
0000000000
ENDCHAR

STARTCHAR A3FE
ENCODING 41982
SWIDTH 960 0
DWIDTH 34 0
BBX 34 34 0 -8
BITMAP
0000000000
7FFFFFFF80
0000000000
0000000000
0000000000
0000000000
0000000000
0000000000
0000000000
0000000000
0000000000
0000000000
0000000000
0000000000
0000000000
0000000000
0000000000
0000000000
0000000000
0000000000
0000000000
0000000000
0000000000
0000000000
0000000000
0000000000
0000000000
0000000000
0000000000
0000000000
0000000000
0000000000
0000000000
0000000000
ENDCHAR

STARTCHAR A4A1
ENCODING 42145
SWIDTH 960 0
DWIDTH 34 0
BBX 34 34 0 -8
BITMAP
0000000000
0000000000
0000000000
0000000000
0000000000
0000000000
0000800000
0000C00000
0000C00000
0001800000
0001070000
00017F8000
00FFC00000
0063100000
0003100000
0003F80000
0006160000
000A130000
0012118000
0013118000
0011318000
0019238000
000FC30000
0000060000
00000C0000
0000180000
0000600000
0003800000
0000000000
0000000000
0000000000
0000000000
0000000000
0000000000
ENDCHAR

STARTCHAR A4A2
ENCODING 42146
SWIDTH 960 0
DWIDTH 34 0
BBX 34 34 0 -8
BITMAP
0000000000
0000000000
0004000000
0006000000
0007000000
0006000000
0006000000
000C038000
000C7FC000
000FE00000
03FC000000
0188200000
0008200000
0009F00000
000E3C0000
0018260000
0028230000
0048218000
00C8218000
008C618000
008C618000
00C4C18000
0065830000
003F030000
001E030000
0000060000
00000C0000
0000180000
0000600000
0001800000
000E000000
0000000000
0000000000
0000000000
ENDCHAR

STARTCHAR A4A3
ENCODING 42147
SWIDTH 960 0
DWIDTH 34 0
BBX 34 34 0 -8
BITMAP
0000000000
0000000000
0000000000
0000000000
0000000000
0000000000
0000000000
0000000000
0000000000
0000000000
0000000000
0000000000
0080000000
00C0000000
0070000000
0070040000
0060030000
0060018000
004000C000
004000C000
006104C000
006303C000
0076018000
0034000000
003C000000
001C000000
0008000000
0000000000
0000000000
0000000000
0000000000
0000000000
0000000000
0000000000
ENDCHAR

STARTCHAR A4A4
ENCODING 42148
SWIDTH 960 0
DWIDTH 34 0
BBX 34 34 0 -8
BITMAP
0000000000
0000000000
0000000000
0000000000
0000000000
0000000000
0000000000
0000000000
0200000000
0300000000
01C0000000
01C0040000
0180030000
0180018000
018000C000
0180006000
0180007000
0100003000
0102003800
0102011800
018400D800
01CC007800
00CC003000
00F8000000
0078000000
0038000000
0010000000
0000000000
0000000000
0000000000
0000000000
0000000000
0000000000
0000000000
ENDCHAR

STARTCHAR A4A5
ENCODING 42149
SWIDTH 960 0
DWIDTH 34 0
BBX 34 34 0 -8
BITMAP
0000000000
0000000000
0000000000
0000000000
0000000000
0000000000
0000000000
0000000000
0010000000
000F000000
0003FC0000
00003C0000
0000300000
0000C00000
0000000000
00007C0000
0107FE0000
00FC070000
0060030000
0000030000
0000060000
0000060000
0000060000
00000C0000
00000C0000
0000180000
0000300000
0000C00000
0003000000
0000000000
0000000000
0000000000
0000000000
0000000000
ENDCHAR

STARTCHAR A4A6
ENCODING 42150
SWIDTH 960 0
DWIDTH 34 0
BBX 34 34 0 -8
BITMAP
0000000000
0000000000
0000000000
0000000000
0000000000
0000000000
0000000000
001C000000
000FE00000
0000FE0000
00001E0000
0000600000
0003800000
0000000000
00001F0000
0103FFC000
00FE00E000
0060006000
0000006000
000000E000
000000C000
0000018000
0000018000
0000030000
0000030000
0000060000
00000C0000
0000180000
0000600000
0001800000
0000000000
0000000000
0000000000
0000000000
ENDCHAR

STARTCHAR A4A7
ENCODING 42151
SWIDTH 960 0
DWIDTH 34 0
BBX 34 34 0 -8
BITMAP
0000000000
0000000000
0000000000
0000000000
0000000000
0000000000
0000000000
0000000000
000C000000
0007000000
0001C00000
0001C00000
0002000000
0000180000
0083FC0000
007E380000
0030300000
0000600000
0000C00000
0001800000
0003000000
0006000000
000F800000
0018E00000
0030300000
0070380000
00E01FE000
00C00FE000
0000000000
0000000000
0000000000
0000000000
0000000000
0000000000
ENDCHAR

STARTCHAR A4A8
ENCODING 42152
SWIDTH 960 0
DWIDTH 34 0
BBX 34 34 0 -8
BITMAP
0000000000
0000000000
0000000000
0000000000
003C000000
001F000000
0007C00000
0001C00000
0001C00000
0007000000
0004000000
0000200000
0000F00000
010FF80000
00FC700000
0070E00000
0000C00000
0001800000
0003000000
0006000000
000C000000
0018000000
003E000000
0063800000
00E0400000
00C0600000
01C0700000
03803FF000
01801FF000
0000000000
0000000000
0000000000
0000000000
0000000000
ENDCHAR

STARTCHAR A4A9
ENCODING 42153
SWIDTH 960 0
DWIDTH 34 0
BBX 34 34 0 -8
BITMAP
0000000000
0000000000
0000000000
0000000000
0000000000
0000000000
0000000000
0008000000
000C000000
0006020000
0006018000
000400C000
0004C06000
0007E07000
00FC00E000
006400C000
0004000000
00047E0000
0005830000
0007018000
001C00C000
006400C000
00C400C000
018400C000
0186018000
00E6430000
003C3E0000
0004000000
0000000000
0000000000
0000000000
0000000000
0000000000
0000000000
ENDCHAR

STARTCHAR A4AA
ENCODING 42154
SWIDTH 960 0
DWIDTH 34 0
BBX 34 34 0 -8
BITMAP
0000000000
0000000000
0000000000
0000000000
0010000000
001C000000
000E000000
000E000000
000C000000
000C008000
000C006000
0009803000
001FC03800
03FC007000
0188006000
0008000000
0008FF8000
000BC1C000
000F00E000
001C007000
0038003000
00E8003000
01CC003000
030C003000
060C003000
060C003000
060C006000
03CC61C000
007C1F8000
0008000000
0000000000
0000000000
0000000000
0000000000
ENDCHAR

STARTCHAR A4AB
ENCODING 42155
SWIDTH 960 0
DWIDTH 34 0
BBX 34 34 0 -8
BITMAP
0000000000
0000000000
0000000000
0000000000
0008000000
000E000000
0007000000
0007000000
0006020000
0006018000
0007E0E000
003FF07000
0FFE387800
07CC183C00
030C181C00
000C181C00
0008181C00
0018181800
0010303000
0030300000
0020300000
0060600000
0060600000
00C0600000
0190C00000
038CC00000
0307C00000
0007800000
0003000000
0000000000
0000000000
0000000000
0000000000
0000000000
ENDCHAR

STARTCHAR A4AC
ENCODING 42156
SWIDTH 960 0
DWIDTH 34 0
BBX 34 34 0 -8
BITMAP
0000000000
0000000000
0000000000
0000000000
0010004000
001C043000
000E031C00
000F01CE00
000600E600
0006006400
0007C04000
000FE60000
00FC61C000
0FEC30E000
078C307000
0218103800
0018103800
0018103800
0030303000
0030306000
0060300000
0060600000
00C0600000
0180600000
0310C00000
070CC00000
060F800000
0407800000
0003000000
0000000000
0000000000
0000000000
0000000000
0000000000
ENDCHAR

STARTCHAR A4AD
ENCODING 42157
SWIDTH 960 0
DWIDTH 34 0
BBX 34 34 0 -8
BITMAP
0000000000
0000000000
0000000000
0000000000
0006000000
000F000000
0007000000
00030C0000
0001BE0000
0003F00000
007F800000
0030C00000
0000C18000
00006FC000
0001F80000
001FB00000
01F8180000
00C00C0000
0000060000
0007C30000
001C7B8000
00300FC000
006001C000
0060000000
0060000000
0030000000
001E000000
000FF00000
0001F80000
0000380000
0000000000
0000000000
0000000000
0000000000
ENDCHAR

STARTCHAR A4AE
ENCODING 42158
SWIDTH 960 0
DWIDTH 34 0
BBX 34 34 0 -8
BITMAP
0000000000
0000000000
0000000000
0000000000
0030000000
0078002000
001C021800
000C319C00
0006F9CC00
000FC0C400
01FF008000
00E3000000
0001860000
0001BF0000
0007E00000
007EC00000
07E0600000
0300300000
0000180000
001F0C0000
0071EE0000
00C03F0000
0180070000
0180000000
0180000000
00C0000000
0078000000
003FC00000
0007E00000
0000600000
0000000000
0000000000
0000000000
0000000000
ENDCHAR

STARTCHAR A4AF
ENCODING 42159
SWIDTH 960 0
DWIDTH 34 0
BBX 34 34 0 -8
BITMAP
0000000000
0000000000
0000000000
0000000000
0000300000
00001C0000
00001C0000
0000380000
0000700000
0000E00000
0001C00000
0003800000
0006000000
000C000000
0018000000
0030000000
0018000000
000C000000
0007000000
0003800000
0001C00000
0000E00000
0000700000
0000780000
0000380000
00003C0000
00001C0000
00001C0000
0000080000
0000000000
0000000000
0000000000
0000000000
0000000000
ENDCHAR

STARTCHAR A4B0
ENCODING 42160
SWIDTH 960 0
DWIDTH 34 0
BBX 34 34 0 -8
BITMAP
0000000000
0000000000
0000000000
0000000000
0000C00000
0000700000
0000700000
0000E00000
0001C08000
0003886000
0007067000
000E073000
0018033000
0030032000
0060020000
00C0000000
0060000000
0030000000
001C000000
000E000000
0007000000
0003800000
0001C00000
0001E00000
0000E00000
0000F00000
0000700000
0000700000
0000200000
0000000000
0000000000
0000000000
0000000000
0000000000
ENDCHAR

STARTCHAR A4B1
ENCODING 42161
SWIDTH 960 0
DWIDTH 34 0
BBX 34 34 0 -8
BITMAP
0000000000
0000000000
0000000000
0000000000
0000100000
01000C0000
01C00F0000
00E0060000
00E0060000
00C0060000
0080067000
008007F800
01801F0000
0103F60000
0101860000
0300060000
0300060000
0300060000
0308060000
0308060000
0310060000
0310060000
03300C0000
03A00C0000
01E00C0000
01C0180000
00C0180000
0080300000
0000200000
0000400000
0000800000
0000000000
0000000000
0000000000
ENDCHAR

STARTCHAR A4B2
ENCODING 42162
SWIDTH 960 0
DWIDTH 34 0
BBX 34 34 0 -8
BITMAP
0000000000
0000000000
0000000000
0000000000
0000200800
0200184400
03801E2600
01C00C3600
01C00C2400
01800C0000
01000CE000
01000FF000
01003E0000
0207EC0000
02000C0000
06000C0000
06000C0000
06000C0000
06100C0000
06100C0000
06200C0000
06200C0000
0660180000
0740180000
03C0180000
0380300000
0180300000
0100600000
0000400000
0000800000
0001000000
0000000000
0000000000
0000000000
ENDCHAR

STARTCHAR A4B3
ENCODING 42163
SWIDTH 960 0
DWIDTH 34 0
BBX 34 34 0 -8
BITMAP
0000000000
0000000000
0000000000
0000000000
0000000000
0000000000
0020000000
001C000000
000FF80000
0003FC0000
00003C0000
0000700000
0000800000
0000000000
0000000000
0000000000
0000000000
0000000000
0040000000
0080000000
0080000000
0180000000
0180000000
0180000000
01C0008000
00E000E000
00FFFFE000
003FFF8000
0003FC0000
0000000000
0000000000
0000000000
0000000000
0000000000
ENDCHAR

STARTCHAR A4B4
ENCODING 42164
SWIDTH 960 0
DWIDTH 34 0
BBX 34 34 0 -8
BITMAP
0000000000
0000000000
0000000000
0000000000
0000000000
0000002000
0040021800
0038019C00
001FF1CC00
0007F8C800
0000788000
0000E00000
0001000000
0000000000
0000000000
0000000000
0000000000
0000000000
0080000000
0100000000
0100000000
0300000000
0300000000
0300000000
0380000000
01C001C000
01FFFFC000
007FFF0000
0007F80000
0000000000
0000000000
0000000000
0000000000
0000000000
ENDCHAR

STARTCHAR A4B5
ENCODING 42165
SWIDTH 960 0
DWIDTH 34 0
BBX 34 34 0 -8
BITMAP
0000000000
0000000000
0000000000
0000000000
0001800000
0003400000
0006300000
0006180000
00060C0000
00031E0000
0001FE0000
0183E00000
00FEC00000
0070600000
0000300000
0000180000
00000C0000
0000060000
000FC30000
003C798000
00700FC000
006003C000
0060008000
0060000000
0020000000
0038000000
001F800000
0007FC0000
0001FC0000
0000380000
0000000000
0000000000
0000000000
0000000000
ENDCHAR

STARTCHAR A4B6
ENCODING 42166
SWIDTH 960 0
DWIDTH 34 0
BBX 34 34 0 -8
BITMAP
0000000000
0000000000
0000000000
0000000000
0003000000
0006801000
000C600C00
000C308E00
000C186600
00061C7400
0003FC3000
0307C02000
01FD800000
00E0C00000
0000600000
0000300000
0000180000
00000C0000
001FC60000
0078F30000
00E01F8000
00C0078000
00C0010000
00C0000000
00E0000000
0070000000
003F000000
000FF80000
0003F80000
0000700000
0000000000
0000000000
0000000000
0000000000
ENDCHAR

STARTCHAR A4B7
ENCODING 42167
SWIDTH 960 0
DWIDTH 34 0
BBX 34 34 0 -8
BITMAP
0000000000
0000000000
0000000000
0000000000
0020000000
0018000000
001C000000
001C000000
0018000000
0018000000
0018000000
0018000000
0018000000
0018000000
0018000000
0018000000
0018000000
0010000000
0010000000
0010000000
0010000000
0010002000
0018004000
0018008000
0018030000
00180E0000
000C3C0000
000FF00000
0007C00000
0000000000
0000000000
0000000000
0000000000
0000000000
ENDCHAR

STARTCHAR A4B8
ENCODING 42168
SWIDTH 960 0
DWIDTH 34 0
BBX 34 34 0 -8
BITMAP
0000000000
0000000000
0000000000
0000000000
0020000000
0018000000
001C080000
001C060000
0018430000
0018638000
0018318000
0018398000
0018190000
0018180000
0018100000
0018000000
0018000000
0010000000
0010000000
0010000000
0010000000
0010002000
0018004000
0018008000
0018030000
001C0E0000
000C3C0000
000FF00000
0007C00000
0000000000
0000000000
0000000000
0000000000
0000000000
ENDCHAR

STARTCHAR A4B9
ENCODING 42169
SWIDTH 960 0
DWIDTH 34 0
BBX 34 34 0 -8
BITMAP
0000000000
0000000000
0000000000
0000C00000
0000600000
0000740000
0000330000
0000218000
000020C000
000027F000
000FFFF000
07FC200000
0300300000
0000300000
0000300000
000FF00000
0018700000
0030380000
0030380000
00306C0000
001CEC0000
000FCC0000
00030C0000
00000C0000
0000180000
0000180000
0000300000
0000600000
0000C00000
0003000000
0000000000
0000000000
0000000000
0000000000
ENDCHAR

STARTCHAR A4BA
ENCODING 42170
SWIDTH 960 0
DWIDTH 34 0
BBX 34 34 0 -8
BITMAP
0000000000
0000000000
0000000000
0001801000
0000C08C00
0000E06E00
0000E87600
0000C43600
0000432400
0000418000
00004FE000
001FFFE000
0FF8400000
0700600000
0000600000
001FE00000
0030E00000
0060700000
0060700000
0060D80000
0039D80000
001F980000
0006180000
0000180000
0000300000
0000300000
0000600000
0000C00000
0001800000
0006000000
0000000000
0000000000
0000000000
0000000000
ENDCHAR

STARTCHAR A4BB
ENCODING 42171
SWIDTH 960 0
DWIDTH 34 0
BBX 34 34 0 -8
BITMAP
0000000000
0000000000
0000000000
0000000000
00000C0000
0000060000
0000070000
0020070000
0030060000
0018060000
001C060000
001C060000
0018063000
00180FF800
001BFFFC00
003F860000
1FF8060000
0E100E0000
00100C0000
00118C0000
0018F80000
0018780000
0018300000
0018000000
001800C000
000C03E000
000FFFE000
0007FF8000
0000000000
0000000000
0000000000
0000000000
0000000000
0000000000
ENDCHAR

STARTCHAR A4BC
ENCODING 42172
SWIDTH 960 0
DWIDTH 34 0
BBX 34 34 0 -8
BITMAP
0000000000
0000000000
0000000000
0000000000
0000180800
00000C8C00
00000E6600
00400E7600
00600C3400
00300C2000
00380C0000
00380C0000
00300C6000
00301FF000
0037FFF800
007F0C0000
1FF00C0000
0C201C0000
0020180000
0023180000
0031F00000
0030F00000
0030600000
0030000000
0030018000
001807C000
001FFFC000
000FFF0000
0000000000
0000000000
0000000000
0000000000
0000000000
0000000000
ENDCHAR

STARTCHAR A4BD
ENCODING 42173
SWIDTH 960 0
DWIDTH 34 0
BBX 34 34 0 -8
BITMAP
0000000000
0000000000
0000000000
0000000000
00001E0000
0003FF0000
003FC70000
001C0E0000
00000C0000
0000180000
0000300000
0000600000
0000C00000
0001807000
000307F000
00063FC000
000CF80000
000FC00000
01FD800000
01F1800000
0081800000
0003000000
0003000000
0003000000
0003800000
0001C00000
0000E00000
00007F8000
00003FE000
00000FE000
0000000000
0000000000
0000000000
0000000000
ENDCHAR

STARTCHAR A4BE
ENCODING 42174
SWIDTH 960 0
DWIDTH 34 0
BBX 34 34 0 -8
BITMAP
0000000000
0000000000
0000001000
0000000800
00003C0C00
0007FE8600
007F8E4600
00380C6400
0000183000
0000303000
0000602000
0000C00000
0001800000
000300F000
00061FF000
000C7F8000
001BF00000
003F800000
03FB000000
03E3000000
0103000000
0006000000
0006000000
0006000000
0007000000
0007800000
0003E00000
0001FF8000
0000FFE000
00003FE000
0000000000
0000000000
0000000000
0000000000
ENDCHAR

STARTCHAR A4BF
ENCODING 42175
SWIDTH 960 0
DWIDTH 34 0
BBX 34 34 0 -8
BITMAP
0000000000
0000000000
0000000000
0010000000
001C000000
000E000000
000C000000
000C000000
000C000000
000C300000
0018F8E000
001FF87800
07FE003800
0398006000
0018008000
0018000000
0030000000
0030000000
0030000000
0030000000
0060000000
0060000000
0062000000
00E3000000
00C3000000
01C3800000
01C1FFF000
0080FFF000
0000000000
0000000000
0000000000
0000000000
0000000000
0000000000
ENDCHAR

STARTCHAR A4C0
ENCODING 42176
SWIDTH 960 0
DWIDTH 34 0
BBX 34 34 0 -8
BITMAP
0000000000
0000000000
0000000000
0040003C00
0070000E00
0030078600
003001C200
003000C000
0030004000
0030C00000
0063E00000
007FF38000
0FF800F000
0760007800
0060003800
0060003000
00C0004000
00C0000000
00C0000000
00C0000000
0180000000
0184000000
0186000000
0386000000
0307000000
0703FFF000
0701FFF000
0200000000
0000000000
0000000000
0000000000
0000000000
0000000000
0000000000
ENDCHAR

STARTCHAR A4C1
ENCODING 42177
SWIDTH 960 0
DWIDTH 34 0
BBX 34 34 0 -8
BITMAP
0000000000
0000000000
0000000000
0010000000
000C000000
000E000000
000E300000
000C380000
000CF80000
001FE00000
07FC000000
038C000000
000C000000
000C000000
000C000000
000C000000
000C000000
00181E0000
00187F8000
0019E1C000
001380E000
0036007000
0038007000
0010007000
0000007000
000000E000
000000C000
0000038000
00000F0000
0001F80000
0000000000
0000000000
0000000000
0000000000
ENDCHAR

STARTCHAR A4C2
ENCODING 42178
SWIDTH 960 0
DWIDTH 34 0
BBX 34 34 0 -8
BITMAP
0000000000
0000000000
0000000000
0000000000
0020000000
0018007800
0018001C00
0018000C00
0018600400
001873C000
0019F0E000
003FC06000
0FF8002000
0718000000
0018000000
0018000000
0018000000
00303C0000
0030FF0000
0033C38000
002701C000
006C00E000
007000E000
002000E000
000000E000
000001C000
0000018000
0000070000
00001E0000
0003F00000
0000000000
0000000000
0000000000
0000000000
ENDCHAR

STARTCHAR A4C3
ENCODING 42179
SWIDTH 960 0
DWIDTH 34 0
BBX 34 34 0 -8
BITMAP
0000000000
0000000000
0000000000
0000000000
0000000000
0000000000
0000000000
0000000000
0000000000
0000000000
0000000000
0000000000
0000000000
0000000000
00007E0000
0187FF0000
00FF038000
0070038000
0000030000
0000070000
0000060000
00000C0000
0000180000
0000300000
0000600000
0001800000
0006000000
0000000000
0000000000
0000000000
0000000000
0000000000
0000000000
0000000000
ENDCHAR

STARTCHAR A4C4
ENCODING 42180
SWIDTH 960 0
DWIDTH 34 0
BBX 34 34 0 -8
BITMAP
0000000000
0000000000
0000000000
0000000000
0000000000
0000000000
0000000000
0000000000
0000000000
00007F0000
0001E1C000
000F00E000
087C003000
0FF0003800
07E0003800
0380003800
0000003000
0000007000
0000006000
000000E000
000001C000
0000038000
0000070000
00000E0000
0000380000
0000E00000
0003800000
0000000000
0000000000
0000000000
0000000000
0000000000
0000000000
0000000000
ENDCHAR

STARTCHAR A4C5
ENCODING 42181
SWIDTH 960 0
DWIDTH 34 0
BBX 34 34 0 -8
BITMAP
0000000000
0000000000
0000000000
0000000800
0000000C00
0000000600
0000008600
0000006400
0000007000
0000FC3000
0003C72000
001E038000
10F800C000
1FE000E000
0FC000E000
070000E000
000000C000
000001C000
0000018000
0000038000
0000070000
00000E0000
00001C0000
0000380000
0000700000
0001C00000
0006000000
0000000000
0000000000
0000000000
0000000000
0000000000
0000000000
0000000000
ENDCHAR

STARTCHAR A4C6
ENCODING 42182
SWIDTH 960 0
DWIDTH 34 0
BBX 34 34 0 -8
BITMAP
0000000000
0000000000
0000000000
0000000000
0000000000
0000000000
0000006000
000003F000
00003FF800
0607F80000
03FFE00000
01F8C00000
00C0C00000
0001800000
0001800000
0001800000
0003000000
0003000000
0003000000
0003000000
0003000000
0003000000
0003800000
0001800000
0001C00000
0000F00000
00007F8000
00003F8000
00000F0000
0000000000
0000000000
0000000000
0000000000
0000000000
ENDCHAR

STARTCHAR A4C7
ENCODING 42183
SWIDTH 960 0
DWIDTH 34 0
BBX 34 34 0 -8
BITMAP
0000000000
0000000000
0000000000
0000000000
0000000400
0000002200
0000031300
00001F9B00
0001FFDB00
003FE01A00
0FFF801000
07C3000000
0303000000
0006000000
0006000000
0006000000
000C000000
000C000000
000C000000
000C000000
000C000000
000C000000
000E000000
0006000000
0007000000
0003C00000
0001FF0000
0000FF0000
00003E0000
0000000000
0000000000
0000000000
0000000000
0000000000
ENDCHAR

STARTCHAR A4C8
ENCODING 42184
SWIDTH 960 0
DWIDTH 34 0
BBX 34 34 0 -8
BITMAP
0000000000
0000000000
0000000000
0004000000
0006000000
0003000000
0003800000
0003800000
0003000000
0003000000
0003000000
0003000000
0003000000
0003000000
0003800000
0001800000
0000C60000
00003F0000
0000FE0000
0003E00000
000F000000
001C000000
0030000000
0060000000
0060000000
0070000000
003C018000
000FFFC000
0003FFC000
0000000000
0000000000
0000000000
0000000000
0000000000
ENDCHAR

STARTCHAR A4C9
ENCODING 42185
SWIDTH 960 0
DWIDTH 34 0
BBX 34 34 0 -8
BITMAP
0000000000
0000000000
0000000000
0008000000
000C000000
0006007800
0007001C00
0007000C00
0006000400
0006000000
000601E000
0006007000
0006003000
0006001000
0007000000
0003000000
00018C0000
00007E0000
0001FC0000
0003800000
000F000000
001C000000
0030000000
0060000000
0060000000
0070000000
003C018000
000FFFC000
0003FFC000
0000000000
0000000000
0000000000
0000000000
0000000000
ENDCHAR

STARTCHAR A4CA
ENCODING 42186
SWIDTH 960 0
DWIDTH 34 0
BBX 34 34 0 -8
BITMAP
0000000000
0000000000
0000000000
0008000000
000E000000
0007000000
0007000000
0006000000
0006600000
001FF00000
0FFF820000
07CC018000
000C00E000
001C007000
001800E000
0018018000
0030000000
0030000000
0060020000
00E0020000
01C0020000
0380060000
0301E60000
0207FE0000
000C078000
000C0DE000
00080CF000
000C183000
0007301000
0003E00000
0000000000
0000000000
0000000000
0000000000
ENDCHAR

STARTCHAR A4CB
ENCODING 42187
SWIDTH 960 0
DWIDTH 34 0
BBX 34 34 0 -8
BITMAP
0000000000
0000000000
0000000000
0000000000
0000000000
0100000000
0180000000
00E0000000
00E0003000
00C103F800
00C0FFFC00
0080700000
0080000000
0080000000
0100000000
0100000000
0300000000
0304000000
0304000000
038C000000
0388000000
0188000000
019A000000
01D1803000
00F1FFF800
00F07FFC00
0000000000
0000000000
0000000000
0000000000
0000000000
0000000000
0000000000
0000000000
ENDCHAR

STARTCHAR A4CC
ENCODING 42188
SWIDTH 960 0
DWIDTH 34 0
BBX 34 34 0 -8
BITMAP
0000000000
0000000000
0000000000
0000000000
0002000000
0003000000
0001800000
0001800000
02019F0000
0301F18000
018180E000
0183807000
018F003000
00D3003800
00E3001800
00C3001800
0166001800
0366001800
0666001000
063C003000
0C38003000
0C18003000
0C3C1E6000
0C2E31C000
0C6660E000
06C061B000
03803F1800
00001E0C00
0000000C00
0000000000
0000000000
0000000000
0000000000
0000000000
ENDCHAR

STARTCHAR A4CD
ENCODING 42189
SWIDTH 960 0
DWIDTH 34 0
BBX 34 34 0 -8
BITMAP
0000000000
0000000000
0000000000
0000000000
0010000000
001C000000
000E000000
000E000000
000C800000
000FC00000
003F9F8000
01FC71C000
07CCC06000
030D803000
0007003800
000E001800
001C001800
0014001800
0024001800
0064001800
00CC001800
018C003000
038C1F3000
070C31E000
0E8C207000
0E6C30DC00
0C3C198C00
003C0F0C00
0018000400
0000000000
0000000000
0000000000
0000000000
0000000000
ENDCHAR

STARTCHAR A4CE
ENCODING 42190
SWIDTH 960 0
DWIDTH 34 0
BBX 34 34 0 -8
BITMAP
0000000000
0000000000
0000000000
0000000000
0000000000
0000000000
0000000000
0000FC0000
0003FF0000
000E21C000
0038207000
0070603800
00E0401800
01C0C00C00
0380C00C00
0301800C00
0701800C00
0603000C00
0603001C00
0606001800
0606003800
060C003000
0338007000
01F000E000
00E001C000
0000038000
00000E0000
0000380000
0000000000
0000000000
0000000000
0000000000
0000000000
0000000000
ENDCHAR

STARTCHAR A4CF
ENCODING 42191
SWIDTH 960 0
DWIDTH 34 0
BBX 34 34 0 -8
BITMAP
0000000000
0000000000
0000000000
0000000000
0000020000
0100030000
01C0018000
00E001C000
00E001C000
00C0018000
00C0018000
0080011000
0081C17800
0180FFFC00
01003FC000
0100010000
0300010000
0300010000
0300018000
0308018000
0308018000
03181D8000
03107F8000
0330C1E000
03B1C0F800
03E1809C00
01E0E18E00
01C0730600
00C03E0000
0000000000
0000000000
0000000000
0000000000
0000000000
ENDCHAR

STARTCHAR A4D0
ENCODING 42192
SWIDTH 960 0
DWIDTH 34 0
BBX 34 34 0 -8
BITMAP
0000000000
0000000000
0000000000
0000000000
0000080800
02000C4C00
0380066600
01C0073600
01C0073400
0180062000
0180060000
0100044000
010385E000
0301FFF000
02007F8000
0200040000
0600040000
0600040000
0600060000
0610060000
0610060000
0630760000
0621FE0000
0663078000
076703E000
07C6027000
03C3863800
0381CC1800
0180F80000
0000000000
0000000000
0000000000
0000000000
0000000000
ENDCHAR

STARTCHAR A4D1
ENCODING 42193
SWIDTH 960 0
DWIDTH 34 0
BBX 34 34 0 -8
BITMAP
0000000000
0000000000
0000000000
0000000000
0000083C00
02000C6600
0380064200
01C0074200
01C0076600
0180063C00
0180060000
0100044000
010385E000
0301FFF000
02007F8000
0200040000
0600040000
0600040000
0600060000
0610060000
0610060000
0630760000
0621FE0000
0663078000
076703E000
07C6027000
03C3863800
0381CC1800
0180F80000
0000000000
0000000000
0000000000
0000000000
0000000000
ENDCHAR

STARTCHAR A4D2
ENCODING 42194
SWIDTH 960 0
DWIDTH 34 0
BBX 34 34 0 -8
BITMAP
0000000000
0000000000
0000000000
0000000000
0000000000
0000000000
0000038000
001E038000
007E018000
03EC018000
039C018000
001801C000
0030014000
0070016000
0060016000
0060033000
00E0033800
00C0061C00
01C0061C00
01C0060C00
01C00E0000
01C00C0000
01C01C0000
00C0180000
00E0380000
0070700000
007FE00000
003FC00000
001F000000
0000000000
0000000000
0000000000
0000000000
0000000000
ENDCHAR

STARTCHAR A4D3
ENCODING 42195
SWIDTH 960 0
DWIDTH 34 0
BBX 34 34 0 -8
BITMAP
0000000000
0000000000
0000000000
0000000000
0000000000
0000000800
00000E0400
00780E4600
01F8062300
0FB0063300
0E70061800
0060071800
0060051000
00C0058000
00C0058000
01C00CC000
01800CE000
0380187000
0380187000
0380183000
0380380000
0380300000
0380700000
0180600000
01C0E00000
00E1C00000
00FF800000
007F000000
003E000000
0000000000
0000000000
0000000000
0000000000
0000000000
ENDCHAR

STARTCHAR A4D4
ENCODING 42196
SWIDTH 960 0
DWIDTH 34 0
BBX 34 34 0 -8
BITMAP
0000000000
0000000000
0000000000
0000000000
0000000000
0000003C00
00000E6600
00780E4200
01F8064200
0FB0066600
0E70063C00
0060070000
00C0050000
00C0058000
0180058000
01800CC000
03800CE000
0300187000
0700187000
0700183000
0700380000
0700300000
0700700000
0300600000
0380E00000
01C1C00000
01FF800000
00FF000000
007E000000
0000000000
0000000000
0000000000
0000000000
0000000000
ENDCHAR

STARTCHAR A4D5
ENCODING 42197
SWIDTH 960 0
DWIDTH 34 0
BBX 34 34 0 -8
BITMAP
0000000000
0000000000
0000000000
0000000000
0002000000
0003800000
0001E00000
0000F00000
0000700000
0000600000
0000C00000
0001800000
0001000000
0002000000
0001000000
0001800000
0000C00000
0000E00000
0000600000
0000FC0000
0003338000
008C31E000
013030F000
0360307C00
07CC303C00
0786701C00
0303F00800
0001E00000
0000C00000
0000000000
0000000000
0000000000
0000000000
0000000000
ENDCHAR

STARTCHAR A4D6
ENCODING 42198
SWIDTH 960 0
DWIDTH 34 0
BBX 34 34 0 -8
BITMAP
0000000000
0000000000
0000000000
0000000000
0004000000
0007000000
0003C01000
0001E10800
0000E08C00
0000C0C600
0001806600
0003006400
0002004000
0004000000
0002000000
0003000000
0001800000
0001C00000
0000C00000
0001F80000
0006670000
011863C000
026061E000
06C060F800
0F98607800
0F0CE03800
0607E01000
0003C00000
0001800000
0000000000
0000000000
0000000000
0000000000
0000000000
ENDCHAR

STARTCHAR A4D7
ENCODING 42199
SWIDTH 960 0
DWIDTH 34 0
BBX 34 34 0 -8
BITMAP
0000000000
0000000000
0000000000
0000000000
0004000000
0007007800
0003C0CC00
0001E08400
0000E08400
0000C0CC00
0001807800
0003000000
0002000000
0004000000
0002000000
0003000000
0001800000
0001C00000
0000C00000
0001F80000
0006670000
011863C000
026061E000
06C060F800
0F98607800
0F0CE03800
0607E01000
0003C00000
0001800000
0000000000
0000000000
0000000000
0000000000
0000000000
ENDCHAR

STARTCHAR A4D8
ENCODING 42200
SWIDTH 960 0
DWIDTH 34 0
BBX 34 34 0 -8
BITMAP
0000000000
0000000000
0000000000
0000000000
0000000000
0000000000
0000000000
0000000000
0000000000
0000000000
000E000000
001B800000
0031C00000
0060600000
00C0300000
01C0180000
1F800C0000
0F00060000
0600030000
000001C000
000000E000
0000007C00
0000001E00
0000000E00
0000000000
0000000000
0000000000
0000000000
0000000000
0000000000
0000000000
0000000000
0000000000
0000000000
ENDCHAR

STARTCHAR A4D9
ENCODING 42201
SWIDTH 960 0
DWIDTH 34 0
BBX 34 34 0 -8
BITMAP
0000000000
0000000000
0000000000
0000000000
0000000000
0000000000
0000006000
0000003800
0000061C00
0000038C00
000001C800
000E00C000
001B808000
0031C00000
0060600000
00C0300000
01C0180000
1F800C0000
0F00060000
0600030000
000001C000
000000E000
0000007C00
0000001E00
0000000E00
0000000000
0000000000
0000000000
0000000000
0000000000
0000000000
0000000000
0000000000
0000000000
ENDCHAR

STARTCHAR A4DA
ENCODING 42202
SWIDTH 960 0
DWIDTH 34 0
BBX 34 34 0 -8
BITMAP
0000000000
0000000000
0000000000
0000000000
0000000000
0000000000
000000F000
0000019800
0000010800
0000010800
0000019800
000E00F000
001B800000
0031C00000
0060600000
00C0300000
01C0180000
1F800C0000
0F00060000
0600030000
000001C000
000000E000
0000007C00
0000001E00
0000000E00
0000000000
0000000000
0000000000
0000000000
0000000000
0000000000
0000000000
0000000000
0000000000
ENDCHAR

STARTCHAR A4DB
ENCODING 42203
SWIDTH 960 0
DWIDTH 34 0
BBX 34 34 0 -8
BITMAP
0000000000
0000000000
0000000000
0000000000
0000000000
0100006000
018001F000
00C19FC000
00E0FE0000
00E0060000
00C0030000
00C0030000
0080031800
0100037C00
0103FFFC00
0301F90000
0200018000
0200018000
0300018000
0300018000
0710018000
0710018000
07303F8000
072061C000
0360C37000
03E0C33800
01C0E61C00
01C07C0C00
00C0000000
0000000000
0000000000
0000000000
0000000000
0000000000
ENDCHAR

STARTCHAR A4DC
ENCODING 42204
SWIDTH 960 0
DWIDTH 34 0
BBX 34 34 0 -8
BITMAP
0000000000
0000000000
0000000000
0000000000
0000000800
020000C600
030003E700
01833F8300
01C1FC3200
01C00C1C00
0180060E00
0180060600
0100060400
0200063000
020006F800
0607FFF800
0403F20000
0400030000
0600030000
0600030000
0E20030000
0E20030000
0E607F0000
0E40C38000
06C186E000
07C1867000
0381CC3800
0380F81800
0180000000
0000000000
0000000000
0000000000
0000000000
0000000000
ENDCHAR

STARTCHAR A4DD
ENCODING 42205
SWIDTH 960 0
DWIDTH 34 0
BBX 34 34 0 -8
BITMAP
0000000000
0000000000
0000000000
0000000000
0000001E00
0200023300
030007A100
01867FA100
01C3F83300
01C0181E00
01800C0000
01800C0000
01000C0000
02000C3000
02000CF800
060FFFF800
0407E40000
0400060000
0600060000
0600060000
0E20060000
0E20060000
0E60FE0000
0E41870000
06430DC000
07C30CE000
0383987000
0381F03000
0180000000
0000000000
0000000000
0000000000
0000000000
0000000000
ENDCHAR

STARTCHAR A4DE
ENCODING 42206
SWIDTH 960 0
DWIDTH 34 0
BBX 34 34 0 -8
BITMAP
0000000000
0000000000
0000000000
0001000000
0001C00000
0000E00000
0000E00000
0000C00000
0000C18000
0000DFC000
01FFFFE000
00FFC00000
0060C00000
0000400000
0000460000
00005F0000
007FFF8000
003F400000
0018400000
0000C00000
0000C00000
0000C00000
000FC00000
0038F00000
0060FC0000
00C0CF0000
00C1878000
00C301C000
007E00C000
001C000000
0000000000
0000000000
0000000000
0000000000
ENDCHAR

STARTCHAR A4DF
ENCODING 42207
SWIDTH 960 0
DWIDTH 34 0
BBX 34 34 0 -8
BITMAP
0000000000
0000000000
0000000000
0000000000
0000000000
0000180000
00007C0000
00CFFC0000
007F9C0000
0038180000
0000380000
0000300000
0000300000
0000610000
0000C1C000
0000C0E000
000180E000
001F80C000
006360C000
00C61D8000
018C078000
031803C000
0230037000
0660063C00
06C00C1E00
0780180E00
0300200000
0000400000
0000000000
0000000000
0000000000
0000000000
0000000000
0000000000
ENDCHAR

STARTCHAR A4E0
ENCODING 42208
SWIDTH 960 0
DWIDTH 34 0
BBX 34 34 0 -8
BITMAP
0000000000
0000000000
0000000000
0000000000
0020000000
0038000000
001C000000
0018800000
0018600000
001BF00000
0C7FF00000
07FC000000
0398007000
001800F800
0008019C00
0008010E00
007C000E00
01CE021C00
030A021800
021A022000
031A020000
01B4030000
00E4010000
0008018000
001001C000
003000E000
003000E000
001FFFC000
000FFF8000
0000000000
0000000000
0000000000
0000000000
0000000000
ENDCHAR

STARTCHAR A4E1
ENCODING 42209
SWIDTH 960 0
DWIDTH 34 0
BBX 34 34 0 -8
BITMAP
0000000000
0000000000
0000000000
0000000000
0000800000
0000C00000
0000600000
0100700000
0180700000
0180600000
00C0E00000
00C1FF0000
00C7C3C000
0079C0E000
0071803000
00E1801800
03B3001800
0733001800
0E1E001800
0C1E001800
0C1C003000
081C007000
0836006000
0C6700C000
06C3018000
0380030000
00000C0000
0000300000
0000000000
0000000000
0000000000
0000000000
0000000000
0000000000
ENDCHAR

STARTCHAR A4E2
ENCODING 42210
SWIDTH 960 0
DWIDTH 34 0
BBX 34 34 0 -8
BITMAP
0000000000
0000000000
0000000000
0008000000
000E000000
0007000000
0003800000
0003800000
0003000000
0003000000
0182600000
007FF00000
0007F00000
000F000000
000C000000
000C000000
0018000000
0018020000
0310030000
01D0C18000
00FFE18000
003FF0C000
001800C000
001800C000
001800C000
000C00C000
000C018000
0007070000
0003FE0000
0000000000
0000000000
0000000000
0000000000
0000000000
ENDCHAR

STARTCHAR A4E3
ENCODING 42211
SWIDTH 960 0
DWIDTH 34 0
BBX 34 34 0 -8
BITMAP
0000000000
0000000000
0000000000
0000000000
0000000000
0000000000
0000000000
0000000000
0000000000
0000800000
0000E00000
001C700000
0022380000
0061300000
0060F0E000
003067F000
0018FE3800
03FFC01800
01EC001800
0086003800
000318E000
0003078000
0001800000
0001800000
0000C00000
0000600000
0000700000
0000300000
0000000000
0000000000
0000000000
0000000000
0000000000
0000000000
ENDCHAR

STARTCHAR A4E4
ENCODING 42212
SWIDTH 960 0
DWIDTH 34 0
BBX 34 34 0 -8
BITMAP
0000000000
0000000000
0000000000
0000000000
0000800000
0000C00000
0000700000
0000380000
003E180000
0061F87000
00C073F800
00C03F1C00
00E0F00C00
0063800C00
007C000C00
0038001C00
10FC001800
0FCE0C7000
070603C000
0003000000
0001800000
0000C00000
0000600000
0000380000
00001C0000
00001E0000
00000F0000
0000070000
0000060000
0000000000
0000000000
0000000000
0000000000
0000000000
ENDCHAR

STARTCHAR A4E5
ENCODING 42213
SWIDTH 960 0
DWIDTH 34 0
BBX 34 34 0 -8
BITMAP
0000000000
0000000000
0000000000
0000000000
0000000000
0000000000
0000000000
0000000000
0000000000
0000700000
0000D80000
0081980000
00C11F0000
0061798000
0062D88000
004318C000
00C218C000
0086198000
018A198000
0193130000
01B1F60000
01E0FC0000
00E0300000
0040300000
0000600000
0000C00000
0001000000
0002000000
0004000000
0000000000
0000000000
0000000000
0000000000
0000000000
ENDCHAR

STARTCHAR A4E6
ENCODING 42214
SWIDTH 960 0
DWIDTH 34 0
BBX 34 34 0 -8
BITMAP
0000000000
0000000000
0000000000
0000000000
0000000000
0000000000
0000600000
0001F80000
0403180000
0702180000
03841F8000
038418E000
0304787000
0308D83800
0209981800
020E181800
060C181800
0608181800
0616181800
0636181800
0663181800
06E3103000
03C190E000
03C0FFC000
03C07F0000
0180300000
0000600000
0000C00000
0000800000
0001000000
0002000000
0000000000
0000000000
0000000000
ENDCHAR

STARTCHAR A4E7
ENCODING 42215
SWIDTH 960 0
DWIDTH 34 0
BBX 34 34 0 -8
BITMAP
0000000000
0000000000
0000000000
0000000000
0000000000
0000000000
0000000000
0000000000
0000000000
0001000000
0001800000
0000C00000
0000C30000
0000CF8000
0000FC0000
0000C00000
0000C00000
0000C00000
0000C00000
0000C00000
0000600000
0000180000
0003F80000
000E3E0000
00181F8000
003019C000
003030E000
001CE06000
000F800000
0000000000
0000000000
0000000000
0000000000
0000000000
ENDCHAR

STARTCHAR A4E8
ENCODING 42216
SWIDTH 960 0
DWIDTH 34 0
BBX 34 34 0 -8
BITMAP
0000000000
0000000000
0000000000
0000000000
0002000000
0003800000
0001C00000
0001E00000
0000E00000
0000C00000
0000C18000
0000CFC000
0000FE0000
0000C00000
0000C00000
0000C00000
0000C00000
0000400000
0000400000
0000600000
0000300000
000FD80000
0038780000
00600E0000
00C00B8000
008019E000
00C030F000
0060E07000
003F800000
0000000000
0000000000
0000000000
0000000000
0000000000
ENDCHAR

STARTCHAR A4E9
ENCODING 42217
SWIDTH 960 0
DWIDTH 34 0
BBX 34 34 0 -8
BITMAP
0000000000
0000000000
0000000000
0000000000
000E000000
0007C00000
0001E00000
0000E00000
0001C00000
0003000000
000C000000
0030000000
0060000000
00C0000000
00C0000000
00C0000000
00C00E0000
00C03F8000
00C0C1C000
00C300C000
00C400E000
00C800E000
01D000E000
01F000C000
00E000C000
0060018000
0000030000
0000060000
0000380000
0001C00000
0000000000
0000000000
0000000000
0000000000
ENDCHAR

STARTCHAR A4EA
ENCODING 42218
SWIDTH 960 0
DWIDTH 34 0
BBX 34 34 0 -8
BITMAP
0000000000
0000000000
0000000000
0000000000
0020000000
0030000000
0018000000
0018780000
0018CC0000
00198E0000
0019060000
001B060000
001A070000
001A070000
001C070000
0018070000
001C070000
000C070000
000C060000
000C0E0000
000C0C0000
000C0C0000
0000180000
0000180000
0000300000
0000300000
0000600000
0000C00000
0000800000
0001000000
0002000000
0000000000
0000000000
0000000000
ENDCHAR

STARTCHAR A4EB
ENCODING 42219
SWIDTH 960 0
DWIDTH 34 0
BBX 34 34 0 -8
BITMAP
0000000000
0000000000
0000000000
0000000000
0000180000
0060FC0000
003FFC0000
0000380000
0000380000
0000700000
0000600000
0000C00000
0001800000
0003000000
0006000000
000CFC0000
001B8F0000
003C038000
007001C000
01E000C000
01C000C000
01C000C000
0007F8C000
000C0D8000
0018058000
0018030000
0018060000
000E1C0000
0007F00000
0000000000
0000000000
0000000000
0000000000
0000000000
ENDCHAR

STARTCHAR A4EC
ENCODING 42220
SWIDTH 960 0
DWIDTH 34 0
BBX 34 34 0 -8
BITMAP
0000000000
0000000000
0000000000
0020000000
0038000000
001C000000
001C000000
0018000000
00180E0000
00181B0000
001B338000
007F438000
0FF2830000
0715030000
041A030000
0014030000
0038020000
0070020000
00F0020000
00D0060000
0198060800
0318060800
0318061800
0618061000
0E98063000
0CD8063000
007803E000
007801C000
0030000000
0020000000
0000000000
0000000000
0000000000
0000000000
ENDCHAR

STARTCHAR A4ED
ENCODING 42221
SWIDTH 960 0
DWIDTH 34 0
BBX 34 34 0 -8
BITMAP
0000000000
0000000000
0000000000
0000000000
0000000000
0000180000
0061FC0000
003FFC0000
001C380000
0000300000
0000700000
0000E00000
0000C00000
0001800000
0003000000
00063E0000
000CE78000
001B01C000
003C00C000
0070006000
00E0006000
03C0006000
0380006000
030000C000
000000C000
0000018000
0000030000
00000E0000
0000380000
0003C00000
0000000000
0000000000
0000000000
0000000000
ENDCHAR

STARTCHAR A4EE
ENCODING 42222
SWIDTH 960 0
DWIDTH 34 0
BBX 34 34 0 -8
BITMAP
0000000000
0000000000
0000000000
0000000000
0000000000
0000000000
0000000000
0000000000
0008000000
000C000000
000E000000
0006000000
0004000000
0005800000
000FC00000
00FF9F8000
0066338000
0004C1C000
000D00C000
001600E000
002E00E000
005600C000
00E601C000
01E6038000
01B6030000
001E0C0000
001C300000
000C000000
0000000000
0000000000
0000000000
0000000000
0000000000
0000000000
ENDCHAR

STARTCHAR A4EF
ENCODING 42223
SWIDTH 960 0
DWIDTH 34 0
BBX 34 34 0 -8
BITMAP
0000000000
0000000000
0000000000
0000000000
0010000000
001C000000
000E000000
000E000000
000C000000
000C000000
000D800000
000FC00000
067F800000
03FD0FE000
018E38E000
000C607000
000D807000
001B003800
002C003800
0078003800
00E8003800
01CC003800
038C003000
070C007000
074C00E000
022C018000
003C070000
001C380000
0008000000
0000000000
0000000000
0000000000
0000000000
0000000000
ENDCHAR

STARTCHAR A4F0
ENCODING 42224
SWIDTH 960 0
DWIDTH 34 0
BBX 34 34 0 -8
BITMAP
0000000000
0000000000
0000000000
0000000000
0000000000
0001800000
0007C00000
003FC00000
01F9C00000
00C1800000
0003800000
0003000000
00033E0000
0007E38000
000700C000
000E006000
001E003000
006C003000
00CC003800
0198003800
0318003800
0330003800
0230003000
02203E3000
036073E000
01E0C1E000
00C0C0C000
0000C18000
0000630000
00003E0000
0000000000
0000000000
0000000000
0000000000
ENDCHAR

STARTCHAR A4F1
ENCODING 42225
SWIDTH 960 0
DWIDTH 34 0
BBX 34 34 0 -8
BITMAP
0000000000
0000000000
0000000000
0000000000
0000180000
0000FC0000
0063FC0000
003F380000
0018700000
0000E00000
0001C00000
00033E0000
0004E70000
000F038000
001C018000
0073C18000
00E6E30000
00CC630000
000C460000
0007F80000
0001E00000
0003000000
000C000000
001807E000
00300C7000
007C183800
01C6301800
0383E03000
0301C06000
0000C18000
0000000000
0000000000
0000000000
0000000000
ENDCHAR

STARTCHAR A4F2
ENCODING 42226
SWIDTH 960 0
DWIDTH 34 0
BBX 34 34 0 -8
BITMAP
0000000000
0000000000
0000000000
0002000000
0003800000
0001C00000
0001800000
0001980000
0003FC0000
018FFE0000
00FF000000
0063000000
0003002000
0006003000
0006001800
000C783800
000D9C7000
001B06E000
003C078000
00700E0000
00E03E0000
00C0E60000
0003860000
000E060000
001C060000
0018060000
0018000000
0018000000
000FFFE000
0007FFE000
0000000000
0000000000
0000000000
0000000000
ENDCHAR

STARTCHAR A4F3
ENCODING 42227
SWIDTH 960 0
DWIDTH 34 0
BBX 34 34 0 -8
BITMAP
0000000000
0000000000
0000000000
0000000000
0001000000
0001C00000
0000E00000
0000E00000
0000C00000
0001C00000
0001800000
0001800000
0003000000
0007000000
0006000000
000C000000
001CE00000
003B300000
0036300000
0078300400
0070300800
00E0601000
01C0603000
01C0606000
038060C000
0380718000
03003F0000
03001E0000
0000000000
0000000000
0000000000
0000000000
0000000000
0000000000
ENDCHAR

STARTCHAR A5A1
ENCODING 42401
SWIDTH 960 0
DWIDTH 34 0
BBX 34 34 0 -8
BITMAP
0000000000
0000000000
0000000000
0000000000
0000000000
0000000000
0000000000
0000000000
0000000000
0000000000
0000060000
00007F0000
0007FF0000
007F0E0000
00301C0000
0000180000
0001300000
0001C00000
0001800000
0001800000
0001800000
0001800000
0003000000
0003000000
0003000000
0006000000
0008000000
0010000000
0020000000
0000000000
0000000000
0000000000
0000000000
0000000000
ENDCHAR

STARTCHAR A5A2
ENCODING 42402
SWIDTH 960 0
DWIDTH 34 0
BBX 34 34 0 -8
BITMAP
0000000000
0000000000
0000000000
0000000000
0000000000
0000006000
000007F000
0007FFF800
07FFE07800
03F800E000
018101C000
0001C30000
0000CC0000
0000F00000
0000C00000
0000C00000
0000C00000
0000C00000
0000C00000
0001800000
0001800000
0001800000
0003000000
0003000000
0006000000
0006000000
000C000000
0008000000
0010000000
0020000000
0040000000
0000000000
0000000000
0000000000
ENDCHAR

STARTCHAR A5A3
ENCODING 42403
SWIDTH 960 0
DWIDTH 34 0
BBX 34 34 0 -8
BITMAP
0000000000
0000000000
0000000000
0000000000
0000000000
0000000000
0000000000
0000000000
0000000000
0000000000
0000200000
0000300000
0000380000
0000700000
0000600000
0000C00000
0001C00000
0003600000
0006600000
0008600000
0010600000
0000600000
0000600000
0000600000
0000600000
0000600000
0000E00000
0000E00000
0000600000
0000000000
0000000000
0000000000
0000000000
0000000000
ENDCHAR

STARTCHAR A5A4
ENCODING 42404
SWIDTH 960 0
DWIDTH 34 0
BBX 34 34 0 -8
BITMAP
0000000000
0000000000
0000000000
0000000000
0000080000
00000C0000
00000F0000
00001E0000
00001C0000
0000380000
0000700000
0000600000
0000C00000
0001800000
0003400000
0006600000
000C600000
0018600000
0030600000
0040600000
0080600000
0000600000
0000600000
0000600000
0000600000
0000600000
0000600000
0000E00000
0000E00000
0000600000
0000400000
0000000000
0000000000
0000000000
ENDCHAR

STARTCHAR A5A5
ENCODING 42405
SWIDTH 960 0
DWIDTH 34 0
BBX 34 34 0 -8
BITMAP
0000000000
0000000000
0000000000
0000000000
0000000000
0000000000
0000000000
0000000000
0000000000
0000000000
0001000000
0001C00000
0000E00000
0000C00000
0000C18000
00E0FFC000
007FE1C000
0030018000
0030038000
0030030000
0030070000
0030060000
00300C0000
0000180000
0000100000
0000200000
0000400000
0000000000
0000000000
0000000000
0000000000
0000000000
0000000000
0000000000
ENDCHAR

STARTCHAR A5A6
ENCODING 42406
SWIDTH 960 0
DWIDTH 34 0
BBX 34 34 0 -8
BITMAP
0000000000
0000000000
0000000000
0000000000
0003000000
0001C00000
0000E00000
0000C00000
0000C00000
0000C0C000
0380FFE000
01FFF0F000
00F800F000
00C000E000
00C001C000
00C001C000
00C0018000
00C0038000
00C0030000
00C0060000
0000060000
00000C0000
0000180000
0000300000
0000600000
0000C00000
0000800000
0001000000
0002000000
0000000000
0000000000
0000000000
0000000000
0000000000
ENDCHAR

STARTCHAR A5A7
ENCODING 42407
SWIDTH 960 0
DWIDTH 34 0
BBX 34 34 0 -8
BITMAP
0000000000
0000000000
0000000000
0000000000
0000000000
0000000000
0000000000
0000000000
0000000000
0000000000
0000000000
00000C0000
00007E0000
003FFF0000
001CC00000
0000C00000
0000C00000
0000C00000
0000C00000
0000C00000
0000C00000
0000C00000
0000C30000
0001FF8000
00FFFFC000
0078000000
0000000000
0000000000
0000000000
0000000000
0000000000
0000000000
0000000000
0000000000
ENDCHAR

STARTCHAR A5A8
ENCODING 42408
SWIDTH 960 0
DWIDTH 34 0
BBX 34 34 0 -8
BITMAP
0000000000
0000000000
0000000000
0000000000
0000000000
0000000000
0000000000
0000000000
0000060000
00C07F0000
007FFF8000
003F800000
0000E00000
0000E00000
0000C00000
0000C00000
0000C00000
0000C00000
0000C00000
0000C00000
0000C0E000
0C00FFF000
07FFFFF800
03F8000000
0180000000
0000000000
0000000000
0000000000
0000000000
0000000000
0000000000
0000000000
0000000000
0000000000
ENDCHAR

STARTCHAR A5A9
ENCODING 42409
SWIDTH 960 0
DWIDTH 34 0
BBX 34 34 0 -8
BITMAP
0000000000
0000000000
0000000000
0000000000
0000000000
0000000000
0000000000
0000000000
0000000000
0000400000
0000700000
0000380000
0000300000
0000320000
00007F0000
001FFF8000
000CF00000
0000F00000
0001B00000
0001B00000
0003300000
0006300000
000C300000
0008300000
0012300000
0021B00000
0001F00000
0000E00000
0000400000
0000000000
0000000000
0000000000
0000000000
0000000000
ENDCHAR

STARTCHAR A5AA
ENCODING 42410
SWIDTH 960 0
DWIDTH 34 0
BBX 34 34 0 -8
BITMAP
0000000000
0000000000
0000000000
0000000000
0000400000
0000700000
0000380000
0000380000
0000300000
0000306000
000037F000
0003FFF800
07FFF00000
03F8700000
0180F00000
0000F00000
0001B00000
0001B00000
0003300000
0006300000
000C300000
0018300000
0030300000
0060300000
0080300000
0106300000
0003F00000
0001F00000
0000E00000
0000600000
0000000000
0000000000
0000000000
0000000000
ENDCHAR

STARTCHAR A5AB
ENCODING 42411
SWIDTH 960 0
DWIDTH 34 0
BBX 34 34 0 -8
BITMAP
0000000000
0000000000
0000000000
0000000000
0000800000
0000C00000
0000600000
0000700000
0000700000
0000E00000
0000E00000
0000C3C000
0101FFE000
00FFF8E000
007D80C000
003180C000
000380C000
000301C000
0007018000
0006018000
000E038000
000C030000
001C030000
0018070000
0031060000
0060CE0000
00C07C0000
0180380000
0200300000
0400000000
0000000000
0000000000
0000000000
0000000000
ENDCHAR

STARTCHAR A5AC
ENCODING 42412
SWIDTH 960 0
DWIDTH 34 0
BBX 34 34 0 -8
BITMAP
0000000000
0000000000
0000000000
0000000000
0001001000
0001800C00
0000C08600
0000E06700
0000E07300
0001C03A00
0001C01800
0001879000
0203FFC000
01FFF1C000
00FB018000
0063018000
0007018000
0006038000
000E030000
000C030000
001C070000
0018060000
0038060000
00300E0000
00620C0000
00C19C0000
0180F80000
0300700000
0200600000
0400000000
0000000000
0000000000
0000000000
0000000000
ENDCHAR

STARTCHAR A5AD
ENCODING 42413
SWIDTH 960 0
DWIDTH 34 0
BBX 34 34 0 -8
BITMAP
0000000000
0000000000
0000000000
0000000000
0008000000
000E000000
0007000000
0007000000
0003000000
0003060000
00033F0000
0007FF8000
03FF800000
01F9800000
00C1800000
0001800000
0000C00000
0000C1C000
0000FFE000
000FFFF000
07FFE00000
03F0600000
0180300000
0000300000
0000300000
0000380000
0000180000
00001C0000
00001C0000
00000C0000
0000080000
0000000000
0000000000
0000000000
ENDCHAR

STARTCHAR A5AE
ENCODING 42414
SWIDTH 960 0
DWIDTH 34 0
BBX 34 34 0 -8
BITMAP
0000000000
0000000000
0000000000
0000000000
0010001000
001C000800
000E018C00
000E00C600
0006006700
00060C7300
00067E3200
0007FF2000
07FF000000
03F3000000
0183000000
0003000000
0001800000
0001838000
0001FFC000
001FFFE000
0FFFC00000
07E0C00000
0300600000
0000600000
0000600000
0000700000
0000300000
0000380000
0000380000
0000180000
0000100000
0000000000
0000000000
0000000000
ENDCHAR

STARTCHAR A5AF
ENCODING 42415
SWIDTH 960 0
DWIDTH 34 0
BBX 34 34 0 -8
BITMAP
0000000000
0000000000
0000000000
0000000000
0003000000
0003800000
0003C00000
0007800000
0007018000
000E0FC000
000CFFC000
001FE38000
0030038000
0060070000
0040070000
00800E0000
01000E0000
00001C0000
0000180000
0000380000
0000700000
0000C00000
0001800000
0003000000
0006000000
0018000000
0060000000
0180000000
0600000000
0000000000
0000000000
0000000000
0000000000
0000000000
ENDCHAR

STARTCHAR A5B0
ENCODING 42416
SWIDTH 960 0
DWIDTH 34 0
BBX 34 34 0 -8
BITMAP
0000000000
0000000000
0000000000
0000000000
0006003000
0007031C00
000781CE00
000F00E600
000E066600
001C3F6400
0019FF4000
003F8E0000
00600E0000
00C01C0000
00801C0000
0100380000
0200700000
0000700000
0000E00000
0001C00000
0001800000
0003000000
0006000000
000C000000
0018000000
0030000000
0060000000
0180000000
0600000000
0000000000
0000000000
0000000000
0000000000
0000000000
ENDCHAR

STARTCHAR A5B1
ENCODING 42417
SWIDTH 960 0
DWIDTH 34 0
BBX 34 34 0 -8
BITMAP
0000000000
0000000000
0000000000
0000000000
0018000000
000E000000
000F000000
000F000000
001E000000
001C006000
003807F000
0030FFF800
007FF80000
00C00E0000
01800E0000
03001C0000
02001C0000
0400380000
0800380000
0000700000
0000600000
0000C00000
0001800000
0003000000
0006000000
000C000000
0018000000
0030000000
00C0000000
0300000000
0000000000
0000000000
0000000000
0000000000
ENDCHAR

STARTCHAR A5B2
ENCODING 42418
SWIDTH 960 0
DWIDTH 34 0
BBX 34 34 0 -8
BITMAP
0000000000
0000000000
0000000000
0000000000
0030000C00
001C000600
001E00C300
001E007300
003C003A00
0038019800
00700FC000
0061FFE000
00FFF00000
01801C0000
03001C0000
0600380000
0400380000
0800700000
1000700000
0000E00000
0000C00000
0001800000
0003000000
0006000000
000C000000
0018000000
0030000000
0060000000
0180000000
0600000000
0000000000
0000000000
0000000000
0000000000
ENDCHAR

STARTCHAR A5B3
ENCODING 42419
SWIDTH 960 0
DWIDTH 34 0
BBX 34 34 0 -8
BITMAP
0000000000
0000000000
0000000000
0000000000
0000000000
0000000000
0000000000
0000000000
0000000000
0000000000
000001C000
00007FE000
00FFFFE000
007C01C000
000001C000
000001C000
0000038000
0000038000
0000030000
0000070000
0000060000
00000E0000
0001FF8000
01FFFFC000
00FE000000
0060000000
0000000000
0000000000
0000000000
0000000000
0000000000
0000000000
0000000000
0000000000
ENDCHAR

STARTCHAR A5B4
ENCODING 42420
SWIDTH 960 0
DWIDTH 34 0
BBX 34 34 0 -8
BITMAP
0000000000
0000000000
0000000000
0000000000
0000000000
0000000000
0000001800
0000000C00
000000CE00
0000006600
0000007400
0000073000
0001FFA000
03FFFF8000
01F0070000
0000070000
0000070000
00000E0000
00000E0000
00001C0000
0000180000
0000380000
0007FE0000
07FFFF0000
03F8000000
0180000000
0000000000
0000000000
0000000000
0000000000
0000000000
0000000000
0000000000
0000000000
ENDCHAR

STARTCHAR A5B5
ENCODING 42421
SWIDTH 960 0
DWIDTH 34 0
BBX 34 34 0 -8
BITMAP
0000000000
0000000000
0000000000
0000000000
00000C0000
00000E0000
0020070000
0038070000
001C060000
000C060000
000C061800
000C0FFC00
000FFFFE00
0FFFCC0000
07FC0C0000
030C0C0000
000C0C0000
000C180000
000C180000
000C180000
000C180000
001C300000
001C300000
000C300000
0008600000
0000600000
0000C00000
0000800000
0001000000
0002000000
0000000000
0000000000
0000000000
0000000000
ENDCHAR

STARTCHAR A5B6
ENCODING 42422
SWIDTH 960 0
DWIDTH 34 0
BBX 34 34 0 -8
BITMAP
0000000000
0000000000
0000001800
0000000E00
000018C700
00001C6300
00000E3200
00400E3000
00700C2000
00380C0000
00180C0000
00180C3000
00180FF800
001FFFFC00
0FFF980000
07F8180000
0318180000
0018180000
0018180000
0018300000
0018300000
0018300000
0038600000
0038600000
0018600000
0010C00000
0000C00000
0001800000
0001000000
0002000000
0000000000
0000000000
0000000000
0000000000
ENDCHAR

STARTCHAR A5B7
ENCODING 42423
SWIDTH 960 0
DWIDTH 34 0
BBX 34 34 0 -8
BITMAP
0000000000
0000000000
0000000000
0000000000
0000000000
0000000000
0018000000
000E000000
0007000000
0003800000
0003800000
0001000000
0000000000
0180000800
00E0001000
0070006000
003800C000
0038018000
0010030000
0000060000
00000C0000
0000180000
0000700000
0000E00000
00C1C00000
0067800000
007F000000
003E000000
003C000000
0018000000
0000000000
0000000000
0000000000
0000000000
ENDCHAR

STARTCHAR A5B8
ENCODING 42424
SWIDTH 960 0
DWIDTH 34 0
BBX 34 34 0 -8
BITMAP
0000000000
0000000000
0000000000
0000000000
0000007000
0000003800
0018001C00
000E0E0C00
0007070800
0003838000
0003818000
0001010000
0000000000
0180000800
00E0001000
0070006000
003800C000
0038018000
0010030000
0000060000
00000C0000
0000180000
0000700000
0000E00000
00C1C00000
0067800000
007F000000
003E000000
003C000000
0018000000
0000000000
0000000000
0000000000
0000000000
ENDCHAR

STARTCHAR A5B9
ENCODING 42425
SWIDTH 960 0
DWIDTH 34 0
BBX 34 34 0 -8
BITMAP
0000000000
0000000000
0000000000
0000000000
0000000000
0000000000
0000000000
0000060000
0000FF0000
00FFFF0000
007E0E0000
00300E0000
00001C0000
00001C0000
0000380000
0000380000
0000700000
0000700000
0000F80000
0000CE0000
0001870000
0003038000
000601C000
000C00E000
0018007000
0030007800
00C0003800
0300001000
0000000000
0000000000
0000000000
0000000000
0000000000
0000000000
ENDCHAR

STARTCHAR A5BA
ENCODING 42426
SWIDTH 960 0
DWIDTH 34 0
BBX 34 34 0 -8
BITMAP
0000000000
0000000000
0000000000
0000000000
0000002000
0000001800
0000018C00
000000CE00
0003FCE600
03FFFC6400
01F8384000
00C0380000
0000700000
0000700000
0000E00000
0000E00000
0001C00000
0001C00000
0003E00000
0003380000
00061C0000
000C0E0000
0018070000
0030038000
006001C000
00C001E000
030000E000
0C00004000
0000000000
0000000000
0000000000
0000000000
0000000000
0000000000
ENDCHAR

STARTCHAR A5BB
ENCODING 42427
SWIDTH 960 0
DWIDTH 34 0
BBX 34 34 0 -8
BITMAP
0000000000
0000000000
0000000000
0000000000
0000000000
0018000000
000E000000
000F000000
0007000000
0006000000
0006000000
000600C000
000607E000
00063CF000
0007E0F000
001F01C000
07FE018000
03E6030000
0186040000
0006080000
0006000000
0006000000
0006000000
0006000000
0007000000
000781C000
0003FFE000
0001FFC000
0000000000
0000000000
0000000000
0000000000
0000000000
0000000000
ENDCHAR

STARTCHAR A5BC
ENCODING 42428
SWIDTH 960 0
DWIDTH 34 0
BBX 34 34 0 -8
BITMAP
0000000000
0000000000
0000000000
0000000000
0000003000
0030031C00
001C01CE00
001C00E600
000C006400
000C004000
000C000000
000C018000
000C0FC000
000C7FC000
000FE3C000
001C038000
0FFC060000
07CC0C0000
030C100000
000C200000
000C000000
000C000000
000C000000
000C000000
000C000000
000F038000
0007FFC000
0003FF8000
0000000000
0000000000
0000000000
0000000000
0000000000
0000000000
ENDCHAR

STARTCHAR A5BD
ENCODING 42429
SWIDTH 960 0
DWIDTH 34 0
BBX 34 34 0 -8
BITMAP
0000000000
0000000000
0000000000
0000000000
0000000000
0000000000
0000000000
0000030000
000003C000
008001E000
006001E000
003001C000
003801C000
001C018000
001E038000
000E038000
000E070000
0004070000
00000E0000
00000C0000
0000180000
0000300000
0000600000
0000C00000
0001800000
0003000000
000C000000
0030000000
00C0000000
0000000000
0000000000
0000000000
0000000000
0000000000
ENDCHAR

STARTCHAR A5BE
ENCODING 42430
SWIDTH 960 0
DWIDTH 34 0
BBX 34 34 0 -8
BITMAP
0000000000
0000000000
0000000000
0000001000
0000000C00
0000008600
0000006700
00000C3300
00000F3B00
0200079A00
0180079000
00C0070000
00E0070000
0070060000
00780E0000
00380E0000
00381C0000
00101C0000
0000380000
0000300000
0000600000
0000C00000
0001800000
0003000000
0006000000
000C000000
0030000000
00C0000000
0300000000
0000000000
0000000000
0000000000
0000000000
0000000000
ENDCHAR

STARTCHAR A5BF
ENCODING 42431
SWIDTH 960 0
DWIDTH 34 0
BBX 34 34 0 -8
BITMAP
0000000000
0000000000
0000000000
0000000000
0002000000
0003800000
0003C00000
0003800000
0007018000
00070FC000
000E7FC000
000FE38000
0018038000
0018030000
0034070000
0063070000
00438E0000
0081CC0000
0100FC0000
0000780000
0000380000
00007C0000
0000CE0000
0001870000
0003070000
0006030000
000C020000
0030000000
00C0000000
0300000000
0000000000
0000000000
0000000000
0000000000
ENDCHAR

STARTCHAR A5C0
ENCODING 42432
SWIDTH 960 0
DWIDTH 34 0
BBX 34 34 0 -8
BITMAP
0000000000
0000000000
0000000000
0000000000
0004001800
000700CE00
0007806700
0007007300
000E033200
000E1FA000
001CFF8000
001FC70000
0030070000
0030060000
00680E0000
00C60E0000
00871C0000
0103980000
0201D80000
0000F00000
0000700000
0000D80000
00019C0000
00030E0000
00060E0000
000C060000
0018040000
0060000000
0180000000
0600000000
0000000000
0000000000
0000000000
0000000000
ENDCHAR

STARTCHAR A5C1
ENCODING 42433
SWIDTH 960 0
DWIDTH 34 0
BBX 34 34 0 -8
BITMAP
0000000000
0000000000
0000000000
0000000000
0000040000
0000070000
00000F8000
00003F8000
0000F80000
0007C00000
003E400000
01E0700000
0000700000
0000603000
00007FF800
0007FFFC00
07FFE00000
03C0600000
0000600000
0000600000
0000C00000
0000C00000
0000C00000
0001800000
0001800000
0003000000
0006000000
000C000000
0018000000
0020000000
0040000000
0000000000
0000000000
0000000000
ENDCHAR

STARTCHAR A5C2
ENCODING 42434
SWIDTH 960 0
DWIDTH 34 0
BBX 34 34 0 -8
BITMAP
0000000000
0000000000
0000000000
0000000000
0000080000
00000E0800
00001F0400
00007F4600
0001F02300
000F803300
007C801A00
03C0E01800
0000E01000
0000C0C000
0000FFE000
000FFFF000
0FFFC00000
0780C00000
0000C00000
0000C00000
0001800000
0001800000
0001800000
0003000000
0003000000
0006000000
000C000000
0018000000
0030000000
0040000000
0080000000
0000000000
0000000000
0000000000
ENDCHAR

STARTCHAR A5C3
ENCODING 42435
SWIDTH 960 0
DWIDTH 34 0
BBX 34 34 0 -8
BITMAP
0000000000
0000000000
0000000000
0000000000
0000000000
0000000000
0000000000
0000000000
0000000000
0000000000
0000000000
0003010000
000181C000
0001C1E000
00C0E1E000
0060E1C000
0070638000
0038438000
0038070000
0018060000
00100E0000
00000C0000
0000180000
0000300000
0000600000
0000C00000
0001000000
0002000000
0000000000
0000000000
0000000000
0000000000
0000000000
0000000000
ENDCHAR

STARTCHAR A5C4
ENCODING 42436
SWIDTH 960 0
DWIDTH 34 0
BBX 34 34 0 -8
BITMAP
0000000000
0000000000
0000000000
0000000000
0000000000
0000000000
0000000000
0006000000
0003018000
000380E000
0301C0F000
0181E0F000
00C0E0E000
00E0E1C000
00F0C1C000
0070838000
0070038000
0060030000
0040060000
00000C0000
0000180000
0000300000
0000600000
0000C00000
0001800000
0003000000
000C000000
0030000000
0000000000
0000000000
0000000000
0000000000
0000000000
0000000000
ENDCHAR

STARTCHAR A5C5
ENCODING 42437
SWIDTH 960 0
DWIDTH 34 0
BBX 34 34 0 -8
BITMAP
0000000000
0000000000
0000000000
0000000000
0000000C00
000000C600
0000006700
0018003300
000C063A00
000E039800
0C0703D000
060783C000
0303838000
0383870000
03C3070000
01C20E0000
01C00E0000
01801C0000
0100180000
0000300000
0000600000
0000C00000
0001800000
0003000000
0006000000
000C000000
0030000000
00C0000000
0000000000
0000000000
0000000000
0000000000
0000000000
0000000000
ENDCHAR

STARTCHAR A5C6
ENCODING 42438
SWIDTH 960 0
DWIDTH 34 0
BBX 34 34 0 -8
BITMAP
0000000000
0000000000
0000000000
0000000000
0000000000
0000060000
00007F0000
007FFF8000
003E000000
0010000000
0000000000
0000000000
000001E000
00007FF000
0FFFFFF800
07F1000000
0301C00000
0000E00000
0000E00000
0000C00000
0000C00000
0000C00000
0001800000
0001800000
0003000000
0003000000
0006000000
000C000000
0018000000
0030000000
00C0000000
0000000000
0000000000
0000000000
ENDCHAR

STARTCHAR A5C7
ENCODING 42439
SWIDTH 960 0
DWIDTH 34 0
BBX 34 34 0 -8
BITMAP
0000000000
0000000000
0000000000
0000000000
0000000000
0000180C00
0000FC0600
00FFFE4700
007F006300
0020003300
0000003A00
0000001800
0000019000
00007FC000
0FFFFFE000
07E2000000
0303800000
0001C00000
0001C00000
0001800000
0001800000
0003800000
0003000000
0007000000
0006000000
000C000000
000C000000
0018000000
0030000000
0060000000
0180000000
0000000000
0000000000
0000000000
ENDCHAR

STARTCHAR A5C8
ENCODING 42440
SWIDTH 960 0
DWIDTH 34 0
BBX 34 34 0 -8
BITMAP
0000000000
0000000000
0000000000
0000000000
0006000000
0007000000
0003800000
0003800000
0003000000
0003000000
0003000000
0003000000
0003000000
0003E00000
0003380000
00031C0000
00030E0000
0003070000
0003038000
0003018000
0003010000
0003000000
0003000000
0003000000
0003000000
0003800000
0007800000
0007000000
0003000000
0002000000
0000000000
0000000000
0000000000
0000000000
ENDCHAR

STARTCHAR A5C9
ENCODING 42441
SWIDTH 960 0
DWIDTH 34 0
BBX 34 34 0 -8
BITMAP
0000000000
0000000000
0000000000
0000000000
0006000000
0007000000
0003806000
0003803800
0003061C00
0003031C00
0003018C00
000301C800
000300C000
0003E08000
0003380000
00031C0000
00030E0000
0003070000
0003038000
0003018000
0003010000
0003000000
0003000000
0003000000
0003000000
0003800000
0007800000
0007000000
0003000000
0002000000
0000000000
0000000000
0000000000
0000000000
ENDCHAR

STARTCHAR A5CA
ENCODING 42442
SWIDTH 960 0
DWIDTH 34 0
BBX 34 34 0 -8
BITMAP
0000000000
0000000000
0000000000
0000000000
0000800000
0000E00000
0000700000
0000700000
0000600000
0000600000
0000600000
0000606000
000067F000
0001FFF800
07FFE00000
03F0600000
0180600000
0000C00000
0000C00000
0000C00000
0001C00000
0001800000
0001800000
0003800000
0003000000
0003000000
0006000000
000C000000
0008000000
0010000000
0020000000
0000000000
0000000000
0000000000
ENDCHAR

STARTCHAR A5CB
ENCODING 42443
SWIDTH 960 0
DWIDTH 34 0
BBX 34 34 0 -8
BITMAP
0000000000
0000000000
0000000000
0000000000
0000000000
0000000000
0000000000
0000000000
0000000000
0000060000
00007F0000
007FFF8000
003E000000
0010000000
0000000000
0000000000
0000000000
0000000000
0000000000
0000003000
00001FF800
07FFFFFC00
03FC000000
0180000000
0000000000
0000000000
0000000000
0000000000
0000000000
0000000000
0000000000
0000000000
0000000000
0000000000
ENDCHAR

STARTCHAR A5CC
ENCODING 42444
SWIDTH 960 0
DWIDTH 34 0
BBX 34 34 0 -8
BITMAP
0000000000
0000000000
0000000000
0000000000
0000000000
0000000000
0000060000
00007F0000
003FFF8000
001F078000
000C070000
00000E0000
00000E0000
00000C0000
00180C0000
0006180000
0003B00000
0001F00000
0000F00000
0000780000
0000DE0000
00018F0000
0003078000
000603C000
000C01C000
001801C000
0060008000
0180000000
0600000000
0000000000
0000000000
0000000000
0000000000
0000000000
ENDCHAR

STARTCHAR A5CD
ENCODING 42445
SWIDTH 960 0
DWIDTH 34 0
BBX 34 34 0 -8
BITMAP
0000000000
0000000000
0000000000
0003800000
0001E00000
0000F00000
0000700000
0000200000
0000000000
0000030000
0000FF8000
007FFF8000
003E3C0000
0010780000
0000700000
0000E00000
0001C60000
0001F38000
000371C000
000660E000
000C607000
0018603800
0030603800
0060601000
0180600000
0600600000
0000700000
0000F00000
0000E00000
0000600000
0000400000
0000000000
0000000000
0000000000
ENDCHAR

STARTCHAR A5CE
ENCODING 42446
SWIDTH 960 0
DWIDTH 34 0
BBX 34 34 0 -8
BITMAP
0000000000
0000000000
0000000000
0000000000
00000C0000
00000F0000
0000078000
0000078000
0000070000
00000E0000
00000E0000
00000E0000
00001C0000
00001C0000
0000180000
0000380000
0000300000
0000700000
0000600000
0000C00000
0000C00000
0001800000
0003000000
0006000000
000C000000
0018000000
0030000000
0060000000
0180000000
0000000000
0000000000
0000000000
0000000000
0000000000
ENDCHAR

STARTCHAR A5CF
ENCODING 42447
SWIDTH 960 0
DWIDTH 34 0
BBX 34 34 0 -8
BITMAP
0000000000
0000000000
0000000000
0000000000
0000000000
0000000000
0000000000
0000000000
0000000000
0000000000
0000180000
001C0E0000
000E070000
000E038000
001C01C000
001C00E000
0038007000
0038007000
0070003800
0060003800
00C0003C00
0180001C00
0300001C00
0600001800
0800000000
0000000000
0000000000
0000000000
0000000000
0000000000
0000000000
0000000000
0000000000
0000000000
ENDCHAR

STARTCHAR A5D0
ENCODING 42448
SWIDTH 960 0
DWIDTH 34 0
BBX 34 34 0 -8
BITMAP
0000000000
0000000000
0000000000
0000000000
0000000000
0000003000
0000001800
0000000C00
0000018E00
000000E600
0000307400
00381C3000
001C0E2000
001C070000
0038038000
003801C000
007000E000
007000E000
00E0007000
00C0007000
0180007800
0300003800
0600003800
0C00003000
1000000000
0000000000
0000000000
0000000000
0000000000
0000000000
0000000000
0000000000
0000000000
0000000000
ENDCHAR

STARTCHAR A5D1
ENCODING 42449
SWIDTH 960 0
DWIDTH 34 0
BBX 34 34 0 -8
BITMAP
0000000000
0000000000
0000000000
0000000000
0000000000
0000000000
0000003C00
0000006600
0000004200
0000004200
0000306600
00381C3C00
001C0E0000
001C070000
0038038000
003801C000
007000E000
007000E000
00E0007000
00C0007000
0180007800
0300003800
0600003800
0C00003000
1000000000
0000000000
0000000000
0000000000
0000000000
0000000000
0000000000
0000000000
0000000000
0000000000
ENDCHAR

STARTCHAR A5D2
ENCODING 42450
SWIDTH 960 0
DWIDTH 34 0
BBX 34 34 0 -8
BITMAP
0000000000
0000000000
0000000000
0000000000
0000000000
0000000000
0060000000
0070000000
0038000000
0038000000
00300C0000
0030060000
00301F0000
00303F0000
0030F80000
0033C00000
003F000000
0030000000
0030000000
0030000000
0030000000
0030000000
0030000000
0030000000
0030000000
003801C000
001FFFE000
000FFFE000
0000000000
0000000000
0000000000
0000000000
0000000000
0000000000
ENDCHAR

STARTCHAR A5D3
ENCODING 42451
SWIDTH 960 0
DWIDTH 34 0
BBX 34 34 0 -8
BITMAP
0000000000
0000000000
0000000000
0000000000
0000000000
0000003000
0060001C00
0070000E00
0038018600
003800E400
0030007000
00300C3000
0030062000
00301F0000
00303F0000
0030F80000
0033C00000
003F000000
0030000000
0030000000
0030000000
0030000000
0030000000
0030000000
0030000000
003801C000
001FFFE000
000FFFE000
0000000000
0000000000
0000000000
0000000000
0000000000
0000000000
ENDCHAR

STARTCHAR A5D4
ENCODING 42452
SWIDTH 960 0
DWIDTH 34 0
BBX 34 34 0 -8
BITMAP
0000000000
0000000000
0000000000
0000000000
0000000000
0000007800
006000CC00
0070008400
0038008400
003800CC00
0030007800
00300C0000
0030060000
00301F0000
00303F0000
0030F80000
0033C00000
003F000000
0030000000
0030000000
0030000000
0030000000
0030000000
0030000000
0030000000
003801C000
001FFFE000
000FFFE000
0000000000
0000000000
0000000000
0000000000
0000000000
0000000000
ENDCHAR

STARTCHAR A5D5
ENCODING 42453
SWIDTH 960 0
DWIDTH 34 0
BBX 34 34 0 -8
BITMAP
0000000000
0000000000
0000000000
0000000000
0000000000
0000000000
0000000000
000001C000
00003FE000
01FFFFE000
00FE01C000
006001C000
000001C000
0000038000
0000038000
0000070000
0000070000
00000E0000
00000C0000
0000180000
0000180000
0000300000
0000600000
0000C00000
0001800000
0003000000
0006000000
000C000000
0010000000
0020000000
0000000000
0000000000
0000000000
0000000000
ENDCHAR

STARTCHAR A5D6
ENCODING 42454
SWIDTH 960 0
DWIDTH 34 0
BBX 34 34 0 -8
BITMAP
0000000000
0000000000
0000000000
0000000000
0000000C00
000000C600
0000006700
0000003300
0000071A00
0000FF9800
07FFFF9000
03F8070000
0180070000
0000070000
00000E0000
00000E0000
00001C0000
00001C0000
0000380000
0000300000
0000600000
0000600000
0000C00000
0001800000
0003000000
0006000000
000C000000
0018000000
0020000000
0040000000
0000000000
0000000000
0000000000
0000000000
ENDCHAR

STARTCHAR A5D7
ENCODING 42455
SWIDTH 960 0
DWIDTH 34 0
BBX 34 34 0 -8
BITMAP
0000000000
0000000000
0000000000
0000000000
0000001E00
0000003300
0000002100
0000002100
0000073300
0000FF9E00
07FFFF8000
03F8070000
0180070000
0000070000
00000E0000
00000E0000
00001C0000
00001C0000
0000380000
0000300000
0000600000
0000600000
0000C00000
0001800000
0003000000
0006000000
000C000000
0018000000
0020000000
0040000000
0000000000
0000000000
0000000000
0000000000
ENDCHAR

STARTCHAR A5D8
ENCODING 42456
SWIDTH 960 0
DWIDTH 34 0
BBX 34 34 0 -8
BITMAP
0000000000
0000000000
0000000000
0000000000
0000000000
0000000000
0000000000
0000000000
0000000000
0000000000
0000000000
000F000000
001F800000
0038C00000
0070600000
00E0300000
07C0180000
03800E0000
0000070000
0000038000
000001E000
000000FC00
0000003E00
0000000E00
0000000000
0000000000
0000000000
0000000000
0000000000
0000000000
0000000000
0000000000
0000000000
0000000000
ENDCHAR

STARTCHAR A5D9
ENCODING 42457
SWIDTH 960 0
DWIDTH 34 0
BBX 34 34 0 -8
BITMAP
0000000000
0000000000
0000000000
0000000000
0000000000
0000000000
0000000000
0000006000
0000003800
0000001C00
0000030C00
000F018800
001F80C000
0038C0E000
0070606000
00E0304000
07C0180000
03800E0000
0000070000
0000038000
000001E000
000000FC00
0000003E00
0000000E00
0000000000
0000000000
0000000000
0000000000
0000000000
0000000000
0000000000
0000000000
0000000000
0000000000
ENDCHAR

STARTCHAR A5DA
ENCODING 42458
SWIDTH 960 0
DWIDTH 34 0
BBX 34 34 0 -8
BITMAP
0000000000
0000000000
0000000000
0000000000
0000000000
0000000000
0000000000
0000000000
000000F000
0000019800
0000010800
000F010800
001F819800
0038C0F000
0070600000
00E0300000
07C0180000
03800E0000
0000070000
0000038000
000001E000
000000FC00
0000003E00
0000000E00
0000000000
0000000000
0000000000
0000000000
0000000000
0000000000
0000000000
0000000000
0000000000
0000000000
ENDCHAR

STARTCHAR A5DB
ENCODING 42459
SWIDTH 960 0
DWIDTH 34 0
BBX 34 34 0 -8
BITMAP
0000000000
0000000000
0000000000
0000000000
0001800000
0001C00000
0000E00000
0000E00000
0000C00000
0000C00000
0000C00000
0000C0C000
0000DFE000
03FFFFF000
01F8C00000
00C0C00000
0000C00000
0020C60000
0060C30000
0060C18000
00C0C1C000
01C0C0E000
03C0C0F000
0380C07000
0380C07000
0108C02000
0006C00000
0003C00000
0003C00000
0001800000
0000000000
0000000000
0000000000
0000000000
ENDCHAR

STARTCHAR A5DC
ENCODING 42460
SWIDTH 960 0
DWIDTH 34 0
BBX 34 34 0 -8
BITMAP
0000000000
0000000000
0000000000
0000000000
0001801800
0001C00E00
0000E0C700
0000E07300
0000C03A00
0000C01800
0000C01000
0000C0C000
0000DFE000
03FFFFF000
01F8C00000
00C0C00000
0000C00000
0020C60000
0060C30000
0060C18000
00C0C1C000
01C0C0E000
03C0C0F000
0380C07000
0388C07000
0106C02000
0003C00000
0003C00000
0001C00000
0001800000
0000000000
0000000000
0000000000
0000000000
ENDCHAR

STARTCHAR A5DD
ENCODING 42461
SWIDTH 960 0
DWIDTH 34 0
BBX 34 34 0 -8
BITMAP
0000000000
0000000000
0000000000
0000000000
0001807800
0001C0CC00
0000E08400
0000E08400
0000C0CC00
0000C07800
0000C00000
0000C0C000
0000DFE000
03FFFFF000
01F8C00000
00C0C00000
0000C00000
0020C60000
0060C30000
0060C18000
00C0C1C000
01C0C0E000
03C0C0F000
0380C07000
0388C07000
0106C02000
0003C00000
0003C00000
0001C00000
0001800000
0000000000
0000000000
0000000000
0000000000
ENDCHAR

STARTCHAR A5DE
ENCODING 42462
SWIDTH 960 0
DWIDTH 34 0
BBX 34 34 0 -8
BITMAP
0000000000
0000000000
0000000000
0000000000
0000000000
0000000000
0000000000
0000000000
0000000000
000000E000
00001FF000
0607FFF000
03FF81E000
01F803C000
00C0038000
0000070000
00000E0000
00000C0000
000C180000
0003300000
0001C00000
0000F00000
0000780000
00003C0000
00003C0000
0000180000
0000000000
0000000000
0000000000
0000000000
0000000000
0000000000
0000000000
0000000000
ENDCHAR

STARTCHAR A5DF
ENCODING 42463
SWIDTH 960 0
DWIDTH 34 0
BBX 34 34 0 -8
BITMAP
0000000000
0000000000
0000000000
0000000000
0000000000
0000000000
000F000000
0003E00000
0000F80000
00003C0000
00001E0000
00000E0000
0000040000
001E000000
0007800000
0001E00000
0000780000
00003C0000
00001C0000
0000080000
0000000000
0000000000
003C000000
000F800000
0003F00000
0000FE0000
00003F0000
00000F8000
0000078000
0000030000
0000000000
0000000000
0000000000
0000000000
ENDCHAR

STARTCHAR A5E0
ENCODING 42464
SWIDTH 960 0
DWIDTH 34 0
BBX 34 34 0 -8
BITMAP
0000000000
0000000000
0000000000
0000000000
0001000000
0001C00000
0000E00000
0000F00000
0000F00000
0001E00000
0001C00000
0003800000
0003800000
0007000000
0006000000
000E000000
000C000000
001C0E0000
0018030000
0030018000
003001C000
006000E000
00C03FF000
07FFF87000
03FF807000
01F8002000
00C0000000
0000000000
0000000000
0000000000
0000000000
0000000000
0000000000
0000000000
ENDCHAR

STARTCHAR A5E1
ENCODING 42465
SWIDTH 960 0
DWIDTH 34 0
BBX 34 34 0 -8
BITMAP
0000000000
0000000000
0000000000
0000000000
0000000000
0000060000
0000078000
000003C000
000003C000
0000038000
0000070000
0000070000
00000E0000
00060E0000
00039C0000
0001DC0000
0000F80000
0000780000
00007C0000
0000FE0000
0000CF0000
0001870000
0003070000
0006020000
000C000000
0018000000
0030000000
00C0000000
0300000000
0000000000
0000000000
0000000000
0000000000
0000000000
ENDCHAR

STARTCHAR A5E2
ENCODING 42466
SWIDTH 960 0
DWIDTH 34 0
BBX 34 34 0 -8
BITMAP
0000000000
0000000000
0000000000
0000000000
0000000000
0000000000
0000000000
00000C0000
0000FE0000
00FFFF0000
007E000000
0023800000
0001C00000
0001C00000
000180C000
00018FE000
0007FFF000
07FFC00000
03F1800000
0181800000
0001800000
0001800000
0001800000
0001800000
0001C1C000
0000FFE000
00007FE000
0000000000
0000000000
0000000000
0000000000
0000000000
0000000000
0000000000
ENDCHAR

STARTCHAR A5E3
ENCODING 42467
SWIDTH 960 0
DWIDTH 34 0
BBX 34 34 0 -8
BITMAP
0000000000
0000000000
0000000000
0000000000
0000000000
0000000000
0000000000
0000000000
0000000000
0000000000
0000000000
0018000000
001C000000
000E000000
000E020000
000C0F0000
000C7F8000
011FE38000
01FC030000
00E6060000
0006040000
0006080000
0003000000
0003000000
0003000000
0001800000
0001C00000
0000C00000
0000C00000
0000000000
0000000000
0000000000
0000000000
0000000000
ENDCHAR

STARTCHAR A5E4
ENCODING 42468
SWIDTH 960 0
DWIDTH 34 0
BBX 34 34 0 -8
BITMAP
0000000000
0000000000
0000000000
0000000000
0000000000
0030000000
003C000000
001C000000
000C000000
000E000000
0006004000
000603E000
00031FF000
0003FC7800
003F80F800
0FFB00E000
07C3818000
0201830000
0001840000
0001800000
0000C00000
0000C00000
0000E00000
0000600000
0000700000
0000700000
0000380000
0000380000
0000180000
0000000000
0000000000
0000000000
0000000000
0000000000
ENDCHAR

STARTCHAR A5E5
ENCODING 42469
SWIDTH 960 0
DWIDTH 34 0
BBX 34 34 0 -8
BITMAP
0000000000
0000000000
0000000000
0000000000
0000000000
0000000000
0000000000
0000000000
0000000000
0000000000
0000000000
0000000000
0000000000
0000180000
0003FC0000
007FF80000
0030700000
0000700000
0000600000
0000600000
0000E00000
0000C00000
0000C30000
0001FF8000
01FFFFC000
00FC000000
0060000000
0000000000
0000000000
0000000000
0000000000
0000000000
0000000000
0000000000
ENDCHAR

STARTCHAR A5E6
ENCODING 42470
SWIDTH 960 0
DWIDTH 34 0
BBX 34 34 0 -8
BITMAP
0000000000
0000000000
0000000000
0000000000
0000000000
0000000000
0000000000
0000000000
0000060000
00007F0000
007FFF0000
003E0E0000
00100E0000
00000C0000
00001C0000
0000180000
0000180000
0000300000
0000300000
0000300000
0000606000
00007FF000
07FFFFF000
03F8000000
0180000000
0000000000
0000000000
0000000000
0000000000
0000000000
0000000000
0000000000
0000000000
0000000000
ENDCHAR

STARTCHAR A5E7
ENCODING 42471
SWIDTH 960 0
DWIDTH 34 0
BBX 34 34 0 -8
BITMAP
0000000000
0000000000
0000000000
0000000000
0000000000
0000000000
0000000000
0000000000
0000000000
0000000000
0000000000
0000060000
0000FF0000
007FFF0000
003E0E0000
00100C0000
00000C0000
00000C0000
001FFC0000
000FD80000
0004180000
0000180000
0000180000
00003E0000
007FFF0000
003E000000
0018000000
0000000000
0000000000
0000000000
0000000000
0000000000
0000000000
0000000000
ENDCHAR

STARTCHAR A5E8
ENCODING 42472
SWIDTH 960 0
DWIDTH 34 0
BBX 34 34 0 -8
BITMAP
0000000000
0000000000
0000000000
0000000000
0000000000
0000000000
0000000000
0000038000
00007FC000
01FFFFE000
00FE01E000
006001C000
0000018000
0000018000
0000018000
00007F8000
007FFF0000
003F030000
0010030000
0000030000
0000060000
0000060000
0000060000
00007F8000
00FFFFC000
007F000000
0030000000
0000000000
0000000000
0000000000
0000000000
0000000000
0000000000
0000000000
ENDCHAR

STARTCHAR A5E9
ENCODING 42473
SWIDTH 960 0
DWIDTH 34 0
BBX 34 34 0 -8
BITMAP
0000000000
0000000000
0000000000
0000000000
0000000000
0000060000
00003F0000
003FFF8000
001F000000
0008000000
0000000000
0000000000
000001C000
00003FE000
01FFFFE000
00FE01C000
004001C000
0000038000
0000038000
0000070000
0000070000
00000C0000
00000C0000
0000180000
0000300000
0000600000
0000C00000
0001800000
0006000000
0038000000
0000000000
0000000000
0000000000
0000000000
ENDCHAR

STARTCHAR A5EA
ENCODING 42474
SWIDTH 960 0
DWIDTH 34 0
BBX 34 34 0 -8
BITMAP
0000000000
0000000000
0000000000
0000000000
0000000000
0000080000
00000E0000
0060070000
0038070000
003C060000
001C060000
0018060000
0018060000
0018060000
0018060000
0018060000
0018060000
0018060000
00380C0000
00380C0000
00180C0000
0010180000
0000180000
0000300000
0000300000
0000600000
0000C00000
0001800000
0002000000
0004000000
0000000000
0000000000
0000000000
0000000000
ENDCHAR

STARTCHAR A5EB
ENCODING 42475
SWIDTH 960 0
DWIDTH 34 0
BBX 34 34 0 -8
BITMAP
0000000000
0000000000
0000000000
0000000000
0000000000
0000000000
0000C00000
0000600000
0040700000
0070700000
0038600000
0038600000
0030600000
0030600000
0030600000
0030600400
0030600800
0030603000
0030606000
006060C000
0060618000
0060670000
00C06E0000
00C07C0000
0180F80000
0300F00000
0600400000
1800000000
0000000000
0000000000
0000000000
0000000000
0000000000
0000000000
ENDCHAR

STARTCHAR A5EC
ENCODING 42476
SWIDTH 960 0
DWIDTH 34 0
BBX 34 34 0 -8
BITMAP
0000000000
0000000000
0000000000
0000000000
0000000000
0000000000
0000000000
0060000000
0038000000
001C000000
001C000000
0018000000
0018000000
0018000800
0018001000
0018006000
001800C000
0018018000
0018030000
0018060000
00180C0000
0018380000
0018700000
0019E00000
003FC00000
003F800000
001E000000
0008000000
0000000000
0000000000
0000000000
0000000000
0000000000
0000000000
ENDCHAR

STARTCHAR A5ED
ENCODING 42477
SWIDTH 960 0
DWIDTH 34 0
BBX 34 34 0 -8
BITMAP
0000000000
0000000000
0000000000
0000000000
0000000000
0000000000
0000000000
0000000000
0000000000
00C0000000
00E3FFF000
007F00F000
006000E000
006000E000
006001C000
002001C000
0020018000
0020018000
0030038000
0030030000
0030030000
0030070000
0031FFC000
003FFFE000
0030000000
0000000000
0000000000
0000000000
0000000000
0000000000
0000000000
0000000000
0000000000
0000000000
ENDCHAR

STARTCHAR A5EE
ENCODING 42478
SWIDTH 960 0
DWIDTH 34 0
BBX 34 34 0 -8
BITMAP
0000000000
0000000000
0000000000
0000000000
0000000000
0000000000
0000000000
0000000000
0000000000
0000000000
0000000000
0000000000
00C0060000
00FFFF0000
007F038000
0060038000
0060070000
0060070000
0060060000
00700E0000
00700C0000
00601C0000
0000180000
0000300000
0000600000
0000C00000
0001800000
0003000000
0004000000
0000000000
0000000000
0000000000
0000000000
0000000000
ENDCHAR

STARTCHAR A5EF
ENCODING 42479
SWIDTH 960 0
DWIDTH 34 0
BBX 34 34 0 -8
BITMAP
0000000000
0000000000
0000000000
0000000000
0000000000
0000000000
0000000000
018000C000
01FFFFE000
00FF00F000
00C000F000
00C000E000
00C000E000
00C001C000
00C001C000
00C0038000
00E0038000
00E0070000
00C0070000
00000E0000
00000E0000
00001C0000
0000180000
0000300000
0000600000
0000C00000
0001800000
0003000000
0004000000
0000000000
0000000000
0000000000
0000000000
0000000000
ENDCHAR

STARTCHAR A5F0
ENCODING 42480
SWIDTH 960 0
DWIDTH 34 0
BBX 34 34 0 -8
BITMAP
0000000000
0000000000
0000000000
0000000000
0000600000
0000700000
0000380000
0000380000
0000300000
0000300000
000030C000
00C03FE000
007FFFF000
007FF00000
0030300000
0030300000
0030300000
0030303000
00303FF800
07FFFFFC00
03FE300000
0180300000
0000300000
0000300000
0000300000
0000300000
0000300000
0000300000
0000700000
0000700000
0000300000
0000200000
0000000000
0000000000
ENDCHAR

STARTCHAR A5F1
ENCODING 42481
SWIDTH 960 0
DWIDTH 34 0
BBX 34 34 0 -8
BITMAP
0000000000
0000000000
0000000000
0000000000
0000000000
0000000000
0000000000
0000000000
00000F8000
0001FFC000
01FFE1E000
00FC01C000
0060030000
0002060000
00038C0000
0001F00000
0001C00000
0000C00000
0000C00000
0000C00000
0000C00000
0000C00000
0000C00000
0000C07000
0000FFF800
0FFFFFFC00
07FC000000
0300000000
0000000000
0000000000
0000000000
0000000000
0000000000
0000000000
ENDCHAR

STARTCHAR A5F2
ENCODING 42482
SWIDTH 960 0
DWIDTH 34 0
BBX 34 34 0 -8
BITMAP
0000000000
0000000000
0000000000
0000000000
0000000000
0000018000
00007FC000
0007FFC000
01FF838000
00F8038000
0060038000
0000070000
0000070000
0000070000
00001E0000
000FFE0000
0FFF8C0000
07E01C0000
0300180000
0000180000
0000300000
0000300000
0000600000
0000600000
0000C00000
0001800000
0003000000
0006000000
000C000000
0010000000
0020000000
0000000000
0000000000
0000000000
ENDCHAR

STARTCHAR A5F3
ENCODING 42483
SWIDTH 960 0
DWIDTH 34 0
BBX 34 34 0 -8
BITMAP
0000000000
0000000000
0000000000
0000000000
0000000000
0000000000
0000000000
0000000000
0038000000
001E000000
0007000000
0003800000
0003800000
0003001000
0000002000
000000C000
0000018000
0000030000
0000060000
00000C0000
0000180000
0000700000
0000E00000
0083C00000
00CF800000
00FF000000
007E000000
0038000000
0000000000
0000000000
0000000000
0000000000
0000000000
0000000000
ENDCHAR

STARTCHAR A5F4
ENCODING 42484
SWIDTH 960 0
DWIDTH 34 0
BBX 34 34 0 -8
BITMAP
0000000000
0000000000
0000000000
0000000000
0000001800
0000018C00
000700CE00
0003C0E600
0001C06400
0001804000
0001800000
000181C000
0701FFE000
03FFFFE000
01F801E000
00C001C000
00C001C000
00C0038000
00C0038000
00C0070000
00C0070000
00C00E0000
00000C0000
0000180000
0000300000
0000600000
0001C00000
0007000000
001C000000
0070000000
0000000000
0000000000
0000000000
0000000000
ENDCHAR

STARTCHAR A5F5
ENCODING 42485
SWIDTH 960 0
DWIDTH 34 0
BBX 34 34 0 -8
BITMAP
0000000000
0000000000
0000000000
0000000000
0000000000
0000000000
0000000000
0000000000
0000000000
0001800000
0001C00000
0000E00000
0000C00000
0000C20000
0000DF0000
007FFF8000
003FC38000
0011830000
0001830000
0003070000
0003060000
0006060000
000C0E0000
000D0C0000
0018CC0000
0020FC0000
0040780000
0000300000
0000000000
0000000000
0000000000
0000000000
0000000000
0000000000
ENDCHAR

STARTCHAR A5F6
ENCODING 42486
SWIDTH 960 0
DWIDTH 34 0
BBX 34 34 0 -8
BITMAP
0000000000
0000000000
0000000000
0000000000
0000000000
0000000000
0000000000
0000000000
0000000000
0004000000
0007000000
0007000000
000E010000
000C1F8000
0018FFC000
001FF80000
0030380000
0020380000
0040700000
0080700000
0000600000
0000E00000
0000C00000
0001800000
0003000000
0006000000
0004000000
0008000000
0010000000
0000000000
0000000000
0000000000
0000000000
0000000000
ENDCHAR

STARTCHAR A6A1
ENCODING 42657
SWIDTH 960 0
DWIDTH 34 0
BBX 34 34 0 -8
BITMAP
0000000000
0000000000
0000000000
0000000000
0000E00000
0001F00000
0001700000
0003700000
0002380000
0002380000
0004380000
00041C0000
000C1C0000
00081E0000
00080E0000
00100E0000
0010070000
0030070000
0020078000
007FFF8000
0040038000
004003C000
008001C000
008001E000
018000E000
010000F000
078000F800
1FF00FFE00
0000000000
0000000000
0000000000
0000000000
0000000000
0000000000
ENDCHAR

STARTCHAR A6A2
ENCODING 42658
SWIDTH 960 0
DWIDTH 34 0
BBX 34 34 0 -8
BITMAP
0000000000
0000000000
0000000000
0000000000
01FFFE0000
0078078000
003803C000
003801C000
003801C000
003801C000
003801C000
003801C000
0038018000
0038030000
0038060000
003FFF0000
003803C000
003800E000
0038006000
0038007000
0038007000
0038007000
0038007000
0038007000
0038006000
003800E000
007803C000
03FFFF0000
0000000000
0000000000
0000000000
0000000000
0000000000
0000000000
ENDCHAR

STARTCHAR A6A3
ENCODING 42659
SWIDTH 960 0
DWIDTH 34 0
BBX 34 34 0 -8
BITMAP
0000000000
0000000000
0000000000
0000000000
01FFFFE000
003C00E000
001C006000
001C002000
001C002000
001C002000
001C002000
001C000000
001C000000
001C000000
001C000000
001C000000
001C000000
001C000000
001C000000
001C000000
001C000000
001C000000
001C000000
001C000000
001C000000
001C000000
003E000000
01FFC00000
0000000000
0000000000
0000000000
0000000000
0000000000
0000000000
ENDCHAR

STARTCHAR A6A4
ENCODING 42660
SWIDTH 960 0
DWIDTH 34 0
BBX 34 34 0 -8
BITMAP
0000000000
0000000000
0000000000
0000000000
0000800000
0000C00000
0001E00000
0001600000
0002700000
0002300000
0004380000
0004180000
00081C0000
00080C0000
00100E0000
0010060000
0020070000
0020030000
0040038000
0040018000
008001C000
008000C000
010000E000
0100007000
0200007000
0200003800
0400003C00
0FFFFFFC00
0000000000
0000000000
0000000000
0000000000
0000000000
0000000000
ENDCHAR

ENDFONT
